<svg xmlns="http://www.w3.org/2000/svg" viewBox="0 0 856.44 725.33" style="width:800px;">
  <title>Asset 4</title>
  <g id="7115789c-493f-46ff-92d8-143fb85a6253" data-name="Layer 2">
    <g id="31119f8a-05a5-4c1d-a546-300eb8b20852" data-name="Layer 1">
      <g>
        <ellipse cx="247" cy="247.13" rx="247" ry="247.1" style="fill: #f5af18"/>
        <text transform="translate(110.69 184.9)" style="font-size: 48px;fill: #fff;font-family: Lato-Bold, Lato;font-weight: 700"> <tspan x="11.66" y="0" style="font-size: 72px;letter-spacing: -0.000006781684027777777em">.47 S</tspan><tspan x="169.27" y="0" style="font-size: 72px;letter-spacing: -0.007493760850694444em">D</tspan><tspan x="223.48" y="0" style="font-size: 72px">s </tspan><tspan x="22.37" y="57.6" style="letter-spacing: -0.007497151692708333em">e</tspan><tspan x="47.64" y="57.6" style="letter-spacing: -0.01348876953125em">ff</tspan><tspan x="79.76" y="57.6">ect si</tspan><tspan x="191.33" y="57.6" style="letter-spacing: -0.008982340494791666em">z</tspan><tspan x="212.96" y="57.6">e </tspan><tspan x="-25.55" y="115.2">in per</tspan><tspan x="96.17" y="115.2" style="letter-spacing: -0.013478597005208334em">f</tspan><tspan x="112.73" y="115.2" style="letter-spacing: -0.000010172526041666666em">orman</tspan><tspan x="249.84" y="115.2" style="letter-spacing: -0.008982340494791666em">c</tspan><tspan x="272.55" y="115.2">e</tspan><tspan x="-45.08" y="172.8" xml:space="preserve"> on </tspan><tspan x="32.9" y="172.8" style="letter-spacing: -0.007486979166666667em">e</tspan><tspan x="58.17" y="172.8" style="letter-spacing: -0.000010172526041666666em">xamin</tspan><tspan x="187.05" y="172.8" style="letter-spacing: -0.006988525390625em">a</tspan><tspan x="211.07" y="172.8">tions</tspan></text>
      </g>
      <g>
        <circle cx="652.34" cy="521.24" r="204.09" style="fill: #5976b6"/>
        <text transform="translate(593.02 485.75)" style="font-size: 60px;fill: #fff;font-family: Lato-Bold, Lato;font-weight: 700">1.95<tspan style="font-size: 36px"><tspan x="-116.8" y="43.2">dec</tspan><tspan x="-59.8" y="43.2" style="letter-spacing: -0.014499240451388888em">r</tspan><tspan x="-46.89" y="43.2">eased p</tspan><tspan x="75.27" y="43.2" style="letter-spacing: -0.014499240451388888em">r</tspan><tspan x="88.18" y="43.2">obabilit</tspan><tspan x="208.61" y="43.2" style="letter-spacing: -0.025010850694444444em">y</tspan><tspan x="226.7" y="43.2"> </tspan><tspan x="-63.05" y="86.4" style="letter-spacing: -0.006483289930555556em">r</tspan><tspan x="-49.85" y="86.4" style="letter-spacing: -0.006971571180555556em">a</tspan><tspan x="-31.84" y="86.4" style="letter-spacing: -0.0000em">tio </tspan><tspan x="20.76" y="86.4" style="letter-spacing: -0.013495551215277778em">f</tspan><tspan x="33.18" y="86.4">o</tspan><tspan x="53.86" y="86.4" style="letter-spacing: -0.020982530381944444em">r</tspan><tspan x="66.53" y="86.4" style="letter-spacing: -0.000013563368055555555em"> </tspan><tspan x="75.28" y="86.4" style="letter-spacing: -0.00146484375em">f</tspan><tspan x="88.13" y="86.4">ailing </tspan><tspan x="-7.4" y="129.6">a </tspan><tspan x="19.62" y="129.6" style="letter-spacing: -0.008978949652777778em">c</tspan><tspan x="36.64" y="129.6">ou</tspan><tspan x="77.63" y="129.6" style="letter-spacing: -0.001491970486111111em">r</tspan><tspan x="91" y="129.6" style="letter-spacing: -0.00002712673611111111em">se</tspan></tspan></text>
      </g>
      <g>
        <ellipse cx="661" cy="142.5" rx="136" ry="142.5" style="fill: #ad7352"/>
        <text transform="translate(607.56 122.8)" style="font-size: 54px;fill: #fff;font-family: Lato-Bold, Lato;font-weight: 700">90%<tspan style="font-size: 32px"><tspan x="-3.38" y="38.4" style="letter-spacing: -0.00897216796875em">c</tspan><tspan x="11.76" y="38.4" style="letter-spacing: -0.000030517578125em">on</tspan><tspan x="48.19" y="38.4" style="letter-spacing: -0.009002685546875em">c</tspan><tspan x="63.33" y="38.4">e</tspan><tspan x="80.41" y="38.4" style="letter-spacing: -0.006988525390625em">p</tspan><tspan x="98.37" y="38.4">t</tspan><tspan x="-55.99" y="76.8" style="letter-spacing: -0.00897216796875em">c</tspan><tspan x="-40.85" y="76.8" style="letter-spacing: -0.000030517578125em">omp</tspan><tspan x="22.51" y="76.8" style="letter-spacing: -0.0145263671875em">r</tspan><tspan x="33.98" y="76.8">ehension</tspan></tspan></text>
      </g>
    </g>
  </g>
</svg>
