<svg xmlns="http://www.w3.org/2000/svg" xmlns:xl="http://www.w3.org/1999/xlink" viewBox="609 1811 465 159">
    <defs>
        <filter id="b" filterUnits="userSpaceOnUse">
            <feGaussianBlur in="SourceAlpha" result="blur" stdDeviation="1.308"/>
            <feOffset in="blur" result="offset" dy="2"/>
            <feFlood flood-color="#000" flood-opacity=".5" result="flood"/>
            <feComposite in="flood" in2="offset" operator="in"/>
        </filter>
    </defs>
    <g fill="none">
        <path  d="M0 0h2310v2349H0z"/>
        <xl:use xl:href="#a" filter="url(#b)"/>
        <xl:use xl:href="#c" filter="url(#b)"/>
        <xl:use xl:href="#d" filter="url(#b)"/>
        <xl:use xl:href="#e" filter="url(#b)"/>
        <xl:use xl:href="#f" filter="url(#b)"/>
        <xl:use xl:href="#g" filter="url(#b)"/>
        <xl:use xl:href="#h" filter="url(#b)"/>
        <xl:use xl:href="#i" filter="url(#b)"/>
        <text transform="translate(695.083 1825.959)" fill="#000">
            <tspan font-family="Helvetica Neue" font-size="16" font-weight="500" x=".396" y="15" textLength="46.208">Server</tspan>
        </text>
        <text transform="translate(935.197 1825.959)" fill="#000">
            <tspan font-family="Helvetica Neue" font-size="16" font-weight="500" x=".384" y="15" textLength="16.288">Br</tspan><tspan font-family="Helvetica Neue" font-size="16" font-weight="500" x="16.384" y="15" textLength="43.232">owser</tspan>
        </text>
        <path fill="#fcf7e4" d="M620.787 1856.693h442.205v59.528H620.787z"/>
        <path d="M620.787 1856.693h442.205v59.527H620.787z" stroke="#000" stroke-linecap="round" stroke-linejoin="round" stroke-dasharray="1,4"/>
        <text transform="translate(625.787 1876.957)" fill="#000">
            <tspan font-family="Helvetica" font-size="16" font-weight="500" x="193.864" y="15" textLength="44.477">Plugin</tspan>
        </text>
        <g id="d" class="fragment">
            <path d="M627.622 1859.527h37.354a4 4 0 0 1 4 4v45.859a4 4 0 0 1-4 4h-37.354a4 4 0 0 1-4-4v-45.859a4 4 0 0 1 4-4z" stroke="#000" stroke-linecap="round" stroke-linejoin="round"/>
            <text transform="rotate(90 -607.99 1260.79)" fill="#3c3c3b">
                <tspan font-family="Helvetica" font-size="11" font-weight="500" x="6.978" y="10" textLength="21.398">npm</tspan>
            </text>
        </g>
        <g id="a" class="fragment">
            <path d="M672.976 1859.527h91.213a4 4 0 0 1 4 4v45.859a4 4 0 0 1-4 4h-91.213a4 4 0 0 1-4-4v-45.859a4 4 0 0 1 4-4z" stroke="#000" stroke-linecap="round" stroke-linejoin="round"/>
            <text transform="translate(673.976 1879.957)" fill="#3c3c3b">
                <tspan font-family="Helvetica" font-size="11" font-weight="500" x="9.141" y="10" textLength="70.931">Node modules</tspan>
            </text>
        </g>
        <g id="c" class="fragment">
            <path d="M919.59 1859.527h91.213a4 4 0 0 1 4 4v45.859a4 4 0 0 1-4 4h-91.212a4 4 0 0 1-4-4v-45.859a4 4 0 0 1 4-4z" stroke="#000" stroke-linecap="round" stroke-linejoin="round"/>
            <text transform="translate(920.59 1879.957)" fill="#3c3c3b">
                <tspan font-family="Helvetica" font-size="11" font-weight="500" x=".681" y="10" textLength="10.382">W</tspan><tspan font-family="Helvetica" font-size="11" font-weight="500" x="10.87" y="10" textLength="77.661">eb Components</tspan>
            </text>
        </g>
        <g id="e" class="fragment">
            <path d="M1018.803 1859.527h37.355a4 4 0 0 1 4 4v45.859a4 4 0 0 1-4 4h-37.355a4 4 0 0 1-4-4v-45.859a4 4 0 0 1 4-4z" stroke="#000" stroke-linecap="round" stroke-linejoin="round"/>
            <text transform="rotate(90 -412.4 1456.38)" fill="#3c3c3b">
                <tspan font-family="Helvetica" font-size="11" font-weight="500" x="2.088" y="10" textLength="31.179">Bower</tspan>
            </text>
        </g>
        <path fill="#c8cbff" d="M620.787 1913.386h442.205v22.677H620.787z"/>
        <path d="M620.787 1913.386h442.205v22.677H620.787z" stroke="#000" stroke-linecap="round" stroke-linejoin="round" stroke-dasharray="1,4"/>
        <text transform="translate(625.787 1915.224)" fill="#000">
            <tspan font-family="Helvetica" font-size="16" font-weight="500" x="203.208" y="15" textLength="25.789">API</tspan>
        </text>
        <g id="f" class="fragment">
            <path d="M672.976 1913.386h91.213a4 4 0 0 1 4 4v14.677a4 4 0 0 1-4 4h-91.213a4 4 0 0 1-4-4v-14.677a4 4 0 0 1 4-4z" stroke="#000" stroke-linecap="round" stroke-linejoin="round"/>
            <text transform="translate(673.976 1918.224)" fill="#3c3c3b">
                <tspan font-family="Helvetica" font-size="11" font-weight="500" x="10.674" y="10" textLength="67.864">Hooks/Events</tspan>
            </text>
        </g>
        <g id="g" class="fragment">
            <path d="M919.59 1913.386h91.213a4 4 0 0 1 4 4v14.677a4 4 0 0 1-4 4h-91.212a4 4 0 0 1-4-4v-14.677a4 4 0 0 1 4-4z" stroke="#000" stroke-linecap="round" stroke-linejoin="round"/>
            <text transform="translate(920.59 1918.224)" fill="#3c3c3b">
                <tspan font-family="Helvetica" font-size="11" font-weight="500" x="27.792" y="10" textLength="33.628">Events</tspan>
            </text>
        </g>
        <path fill="#f7fcff" d="M620.787 1936.063h442.205v22.677H620.787z"/>
        <path d="M620.787 1936.063h442.205v22.677H620.787z" stroke="#000" stroke-linecap="round" stroke-linejoin="round" stroke-dasharray="1,4"/>
        <g id="h" class="fragment">
            <path d="M672.976 1936.063h91.213a4 4 0 0 1 4 4v14.677a4 4 0 0 1-4 4h-91.213a4 4 0 0 1-4-4v-14.677a4 4 0 0 1 4-4z" stroke="#000" stroke-linecap="round" stroke-linejoin="round"/>
            <text transform="translate(673.976 1940.902)" fill="#000">
                <tspan font-family="Helvetica" font-size="11" font-weight="500" x="32.685" y="10" textLength="23.842">Core</tspan>
            </text>
        </g>
        <g id="i" class="fragment">
            <path d="M919.59 1936.063h91.213a4 4 0 0 1 4 4v14.677a4 4 0 0 1-4 4h-91.212a4 4 0 0 1-4-4v-14.677a4 4 0 0 1 4-4z" stroke="#000" stroke-linecap="round" stroke-linejoin="round"/>
            <text transform="translate(920.59 1940.902)" fill="#000">
                <tspan font-family="Helvetica" font-size="11" font-weight="500" x="32.685" y="10" textLength="23.842">Core</tspan>
            </text>
        </g>
        <path id="j" d="M815.383 1938.898h53.014v17.008h-53.014z"/>
        <clipPath id="k">
            <use xl:href="#j"/>
        </clipPath>
        <g clip-path="url(#k)">
            <image xl:href="svg/image8.png" width="293" height="94" transform="matrix(.18093 0 0 .18093 815.383 1938.898)"/>
        </g>
    </g>
</svg>
