<?xml version="1.0" encoding="utf-8"?>
<!-- Generator: Adobe Illustrator 22.1.0, SVG Export Plug-In . SVG Version: 6.00 Build 0)  -->
<svg version="1.1" id="Layer_1" xmlns="http://www.w3.org/2000/svg" xmlns:xlink="http://www.w3.org/1999/xlink" x="0px" y="0px"
	 viewBox="0 0 1552.4 816.1" style="enable-background:new 0 0 1552.4 816.1;" xml:space="preserve">
<style type="text/css">
	.st0{display:none;}
	.st1{fill:#F2F2F2;}
	.st2{fill:#B8B7B5;}
	.st3{display:none;fill:#E6E6E6;stroke:#808080;stroke-linecap:square;stroke-miterlimit:9;}
	.st4{display:none;fill:#E6E6E6;stroke:#808080;stroke-miterlimit:9;}
	.st5{fill:none;stroke:#999999;stroke-width:2;stroke-miterlimit:10;}
	.st6{fill:#999999;}
	.st7{fill:#FFFFFF;}
	.st8{fill:#AAAAAA;}
	.st9{fill:#4B4B4B;}
	.st10{fill:#CCCCCC;}
	.st11{display:inline;fill:#F2F2F2;stroke:#999999;stroke-width:2;stroke-miterlimit:10;}
	.st12{display:inline;fill:#F2F2F2;stroke:#808080;stroke-width:2;stroke-miterlimit:9;}
	.st13{display:inline;fill:none;stroke:#999999;stroke-width:2;stroke-miterlimit:10;}
</style>
<g id="Layer_3">
	<g id="Jb8Xzj_1_" class="st0">
		
			<image style="display:inline;overflow:visible;enable-background:new    ;" width="1285" height="1026" id="Jb8Xzj" xlink:href="img/1DB93F7BCE0D78D7.jpg"  transform="matrix(0.2896 0 0 0.2896 172.3236 401.1767)">
		</image>
	</g>
</g>
<g id="Layer_5">
</g>
<g id="Layer_2_1_">
	<g>
		<path class="st1" d="M739.1,273.5c-40.1,0-61.4-22.1-65.5-26.8c-2.9,1.1-11.6,3.7-24.3,3.7c-18.5,0-37-5.5-55.1-16.4
			c-15.2-9.1-23.8-19.8-25.7-31.8c-2-13,4.4-23.5,7.3-27.5c-7.6-2.8-33.6-14.2-35.4-42.2c-1.9-28.8,32-40.1,40.8-42.6
			c-1.2-2.2-2.8-6.4-2.1-12c1.3-10.1,9.1-20.4,23.4-30.6c13.3-9.5,25.8-14.4,37.3-14.4c13.9,0,22.2,7,25,10
			c5.8-5.4,33.6-28.5,85.1-33.1c4-0.4,7.9-0.5,11.7-0.5c43.6,0,60.2,23.1,63.9,29.3c3.7-2.2,14.6-7.6,31.2-7.6
			c12.5,0,25.5,3.1,38.6,9.2c22.5,10.5,31.7,23.7,35.5,32.9c3.1,7.6,3.2,13.7,3,16.5c4.3,0.7,17.4,3,30.4,9.2
			c20.9,9.8,31.2,24.6,29.9,42.7c-2.9,39-35.8,47.9-42.7,49.3c-0.2,6.5-3.2,35.8-35.2,49.5c-23.4,9.9-45.8,15-66.8,15c0,0,0,0,0,0
			c-18.1,0-29.2-3.8-32.4-5.1c-4.1,3.7-24.7,20-70,23.1C744.4,273.4,741.7,273.5,739.1,273.5z"/>
		<g>
			<path class="st2" d="M761.7,10.8c48.9,0,63.3,30,63.3,30s11.7-8.2,31.8-8.2c10.5,0,23.3,2.2,38,9.1
				c42.7,19.9,37.5,49.3,37.5,49.3s63.5,7.8,60.4,50.5c-3.1,42.7-42.7,48.2-42.7,48.2s1.1,34.2-34.3,49.3
				c-27.3,11.6-49.7,14.8-66.2,14.8c-21.1,0-32.7-5.3-32.7-5.3s-19.8,19.9-69.7,23.4c-2.7,0.2-5.3,0.3-7.9,0.3
				c-44.5,0-65-27.1-65-27.1s-9.4,4-24.8,4c-14,0-33-3.3-54.3-16.1C550.3,206,578.4,174,578.4,174s-34.3-9.5-36.4-41.5
				c-2.1-32,41.6-41.5,41.6-41.5s-14.8-17.6,19.8-42.4c14.9-10.7,27-14.1,36.5-14.1c16.7,0,24.9,10.6,24.9,10.6s27.1-28.6,85.4-33.7
				C754.2,10.9,758,10.8,761.7,10.8 M761.7,8L761.7,8c-3.8,0-7.8,0.1-11.9,0.4c-30.6,2.7-52.6,11.9-65.7,19.1
				c-9.8,5.4-16.1,10.5-19.3,13.3c-3.7-3.4-12-9.4-25.1-9.4c-11.8,0-24.7,4.9-38.2,14.6c-14.6,10.5-22.6,21.1-24,31.7
				c-0.6,4.8,0.4,8.7,1.4,11.3c-4.3,1.3-11.5,3.8-18.6,8.1c-15,9-22.4,21.3-21.5,35.5c0.9,14,7.9,26.1,20.2,35
				c5.5,4,10.9,6.4,14.4,7.8c-3.3,5-8.4,15.1-6.5,27c2,12.5,10.8,23.5,26.4,32.9c18.3,11,37.1,16.6,55.9,16.6
				c11.7,0,20.1-2.3,23.8-3.5c2.3,2.6,7.3,7.6,15.1,12.5c10.1,6.4,27.1,14,50.8,14c2.6,0,5.4-0.1,8.1-0.3
				c43.5-3,64.6-18.2,70.2-22.9c4.2,1.5,15.1,4.9,32.1,4.9c21.1,0,43.8-5.1,67.4-15.1c19.3-8.2,28.1-21.9,32.1-32
				c3-7.5,3.8-14.2,4-17.6c3.8-0.9,11.2-3,18.9-8c9.9-6.5,22.2-19.1,23.9-42.4c1.4-18.8-9.3-34.1-30.7-44.2
				c-12-5.7-24.1-8.2-29.4-9.1c0.1-3.3-0.4-9-3.2-15.8c-3.9-9.5-13.3-23-36.2-33.7c-13.3-6.2-26.5-9.4-39.2-9.4
				c-15.3,0-26,4.6-30.7,7.1c-2-3-5.9-8-12.5-13.1C804.3,16.4,787.8,8,761.7,8L761.7,8z"/>
		</g>
	</g>
	<path class="st3" d="M515.4,121.6l1,99.3c0,9.6,30.8,17.4,70.1,17.4c39.3,0,69.6-7.8,69.6-17.4l0.5-99.3"/>
	<ellipse class="st4" cx="585.9" cy="121.4" rx="70.6" ry="8.4"/>
	<g>
		<g>
			<line class="st5" x1="412.6" y1="439" x2="723.9" y2="295"/>
			<g>
				<polygon class="st6" points="420.8,443.4 414.8,438 414.6,429.9 401.7,444 				"/>
			</g>
			<g>
				<polygon class="st6" points="721.9,304.1 721.7,296 715.7,290.6 734.7,290 				"/>
			</g>
		</g>
	</g>
	<g>
		<g>
			<line class="st5" x1="756.9" y1="302" x2="756.9" y2="432"/>
			<g>
				<polygon class="st6" points="749.5,307.6 756.9,304.4 764.3,307.6 756.9,290 				"/>
			</g>
			<g>
				<polygon class="st6" points="749.5,426.4 756.9,429.6 764.3,426.4 756.9,444 				"/>
			</g>
		</g>
	</g>
	<g id="LvGdj0_2_">
		
			<image style="overflow:visible;enable-background:new    ;" width="170" height="359" id="LvGdj0_3_" xlink:href="img/1DB93F7BCE0D78D5.jpg"  transform="matrix(3.974163e-17 -0.649 0.649 3.974163e-17 1010.8491 658.1953)">
		</image>
	</g>
	<g>
		<path class="st7" d="M1078.7,576.3c-0.1,0.2-0.2,0.3-0.3,0.4c-0.1,0.1-0.2,0.1-0.4,0.1c-0.2,0-0.4-0.1-0.6-0.3
			c-0.2-0.2-0.6-0.4-0.9-0.6c-0.4-0.2-0.8-0.4-1.3-0.6s-1.1-0.3-1.9-0.3c-0.7,0-1.3,0.1-1.8,0.3c-0.5,0.2-1,0.4-1.3,0.8
			s-0.6,0.7-0.8,1.1c-0.2,0.4-0.3,0.9-0.3,1.4c0,0.6,0.2,1.2,0.5,1.6c0.3,0.4,0.7,0.8,1.2,1.1c0.5,0.3,1.1,0.6,1.8,0.8
			c0.7,0.2,1.3,0.4,2,0.7c0.7,0.2,1.4,0.5,2,0.8c0.7,0.3,1.2,0.7,1.8,1.1c0.5,0.4,0.9,1,1.2,1.6c0.3,0.7,0.5,1.5,0.5,2.4
			c0,1-0.2,1.9-0.5,2.8c-0.3,0.9-0.8,1.6-1.5,2.3c-0.7,0.7-1.5,1.2-2.4,1.5c-1,0.4-2,0.6-3.3,0.6c-1.5,0-2.8-0.3-4.1-0.8
			c-1.2-0.5-2.3-1.3-3.1-2.2l0.9-1.5c0.1-0.1,0.2-0.2,0.3-0.3s0.3-0.1,0.4-0.1c0.1,0,0.3,0.1,0.5,0.2c0.2,0.1,0.4,0.3,0.6,0.4
			c0.2,0.2,0.5,0.4,0.8,0.6c0.3,0.2,0.6,0.4,1,0.6c0.4,0.2,0.8,0.3,1.3,0.4c0.5,0.1,1,0.2,1.6,0.2c0.7,0,1.4-0.1,2-0.3
			c0.6-0.2,1.1-0.5,1.5-0.9c0.4-0.4,0.7-0.8,0.9-1.3c0.2-0.5,0.3-1.1,0.3-1.7c0-0.7-0.2-1.3-0.5-1.7s-0.7-0.8-1.2-1.1
			c-0.5-0.3-1.1-0.6-1.8-0.8c-0.7-0.2-1.3-0.4-2-0.6c-0.7-0.2-1.4-0.5-2-0.8c-0.7-0.3-1.2-0.7-1.8-1.1c-0.5-0.5-0.9-1-1.2-1.7
			s-0.5-1.5-0.5-2.6c0-0.8,0.2-1.6,0.5-2.4c0.3-0.8,0.8-1.4,1.4-2c0.6-0.6,1.3-1.1,2.2-1.4s1.9-0.5,3-0.5c1.3,0,2.4,0.2,3.5,0.6
			c1.1,0.4,2,1,2.8,1.8L1078.7,576.3z"/>
		<path class="st7" d="M1088,595.9c-1.3,0-2.3-0.4-3-1.1c-0.7-0.7-1-1.7-1-3.1v-9.9h-2c-0.2,0-0.3-0.1-0.4-0.2
			c-0.1-0.1-0.2-0.3-0.2-0.5V580l2.7-0.3l0.7-5c0-0.2,0.1-0.3,0.2-0.4c0.1-0.1,0.3-0.2,0.4-0.2h1.4v5.6h4.7v2.1h-4.7v9.7
			c0,0.7,0.2,1.2,0.5,1.5c0.3,0.3,0.8,0.5,1.3,0.5c0.3,0,0.6,0,0.8-0.1c0.2-0.1,0.4-0.2,0.6-0.3c0.2-0.1,0.3-0.2,0.4-0.3
			s0.2-0.1,0.3-0.1c0.1,0,0.3,0.1,0.4,0.3l0.8,1.4c-0.5,0.5-1.1,0.8-1.8,1.1C1089.4,595.7,1088.7,595.9,1088,595.9z"/>
		<path class="st7" d="M1094,581.7c0.9-0.9,1.9-1.5,2.9-1.9c1-0.4,2.2-0.6,3.4-0.6c0.9,0,1.7,0.1,2.4,0.4c0.7,0.3,1.3,0.7,1.8,1.2
			s0.8,1.2,1.1,1.9c0.2,0.8,0.4,1.6,0.4,2.5v10.4h-1.3c-0.3,0-0.5,0-0.6-0.1c-0.1-0.1-0.3-0.3-0.4-0.5l-0.3-1.5
			c-0.4,0.4-0.8,0.7-1.2,1c-0.4,0.3-0.8,0.6-1.3,0.8c-0.4,0.2-0.9,0.4-1.4,0.5c-0.5,0.1-1.1,0.2-1.7,0.2c-0.6,0-1.2-0.1-1.8-0.3
			s-1-0.4-1.4-0.8c-0.4-0.4-0.7-0.8-1-1.3c-0.2-0.5-0.4-1.2-0.4-1.9c0-0.6,0.2-1.3,0.5-1.8c0.4-0.6,0.9-1.1,1.7-1.6
			c0.8-0.5,1.8-0.8,3.1-1.1c1.3-0.3,2.8-0.5,4.7-0.5v-1.3c0-1.3-0.3-2.2-0.8-2.9c-0.5-0.6-1.3-1-2.4-1c-0.7,0-1.3,0.1-1.8,0.3
			s-0.9,0.4-1.2,0.6s-0.6,0.4-0.9,0.6c-0.2,0.2-0.5,0.3-0.7,0.3c-0.2,0-0.4,0-0.5-0.2c-0.1-0.1-0.3-0.2-0.4-0.4L1094,581.7z
			 M1103.2,588.3c-1.3,0-2.4,0.1-3.4,0.3c-0.9,0.2-1.7,0.4-2.3,0.6c-0.6,0.3-1,0.6-1.3,0.9c-0.3,0.4-0.4,0.8-0.4,1.2
			c0,0.4,0.1,0.8,0.2,1.1c0.1,0.3,0.3,0.6,0.6,0.8c0.2,0.2,0.5,0.3,0.8,0.4c0.3,0.1,0.7,0.1,1,0.1c0.5,0,1-0.1,1.4-0.2
			c0.4-0.1,0.8-0.2,1.2-0.4s0.7-0.4,1.1-0.7c0.3-0.3,0.7-0.6,1-0.9V588.3z"/>
		<path class="st7" d="M1125.2,595.6h-2.8v-13.8h-8.4v9.7c0,0.7,0.2,1.2,0.5,1.5c0.3,0.3,0.8,0.5,1.3,0.5c0.3,0,0.6,0,0.8-0.1
			c0.2-0.1,0.4-0.2,0.6-0.3c0.2-0.1,0.3-0.2,0.4-0.3s0.2-0.1,0.3-0.1c0.1,0,0.3,0.1,0.4,0.3l0.8,1.4c-0.5,0.5-1.1,0.8-1.8,1.1
			c-0.7,0.3-1.4,0.4-2.1,0.4c-1.3,0-2.3-0.4-3-1.1c-0.7-0.7-1-1.7-1-3.1v-9.9h-2c-0.2,0-0.3-0.1-0.4-0.2c-0.1-0.1-0.2-0.3-0.2-0.5
			V580l2.7-0.4l0.7-5c0-0.2,0.1-0.3,0.2-0.4c0.1-0.1,0.3-0.2,0.4-0.2h1.4v5.6h11.2V595.6z M1125.9,574.2c0,0.3-0.1,0.5-0.2,0.8
			c-0.1,0.2-0.3,0.5-0.4,0.6s-0.4,0.3-0.6,0.4c-0.2,0.1-0.5,0.2-0.8,0.2s-0.5-0.1-0.8-0.2c-0.2-0.1-0.5-0.2-0.6-0.4
			s-0.3-0.4-0.4-0.6c-0.1-0.2-0.2-0.5-0.2-0.8s0.1-0.5,0.2-0.8c0.1-0.3,0.2-0.5,0.4-0.7c0.2-0.2,0.4-0.3,0.6-0.4
			c0.2-0.1,0.5-0.2,0.8-0.2s0.5,0.1,0.8,0.2c0.2,0.1,0.5,0.3,0.6,0.4c0.2,0.2,0.3,0.4,0.4,0.7S1125.9,573.9,1125.9,574.2z"/>
		<path class="st7" d="M1139.3,582.1c-0.1,0.2-0.3,0.4-0.6,0.4c-0.2,0-0.3-0.1-0.5-0.2c-0.2-0.1-0.5-0.2-0.7-0.4
			c-0.3-0.1-0.6-0.3-1-0.4c-0.4-0.1-0.9-0.2-1.4-0.2c-0.5,0-0.9,0.1-1.3,0.2c-0.4,0.1-0.7,0.3-1,0.5c-0.3,0.2-0.5,0.5-0.6,0.7
			c-0.1,0.3-0.2,0.6-0.2,0.9c0,0.4,0.1,0.8,0.4,1s0.6,0.5,1,0.7c0.4,0.2,0.8,0.4,1.3,0.5c0.5,0.2,1,0.3,1.5,0.5
			c0.5,0.2,1,0.4,1.5,0.6c0.5,0.2,0.9,0.5,1.3,0.8c0.4,0.3,0.7,0.7,1,1.2s0.4,1,0.4,1.7c0,0.7-0.1,1.4-0.4,2.1
			c-0.3,0.6-0.7,1.2-1.2,1.6c-0.5,0.5-1.2,0.8-1.9,1.1c-0.8,0.3-1.6,0.4-2.6,0.4c-1.1,0-2.2-0.2-3.1-0.6c-0.9-0.4-1.7-0.8-2.3-1.4
			l0.7-1.1c0.1-0.1,0.2-0.2,0.3-0.3c0.1-0.1,0.3-0.1,0.4-0.1c0.2,0,0.4,0.1,0.6,0.2c0.2,0.1,0.5,0.3,0.8,0.5s0.7,0.3,1.1,0.5
			c0.4,0.1,1,0.2,1.6,0.2c0.6,0,1-0.1,1.5-0.2s0.8-0.3,1-0.6c0.3-0.2,0.5-0.5,0.6-0.8c0.1-0.3,0.2-0.7,0.2-1c0-0.4-0.1-0.8-0.4-1.1
			s-0.6-0.5-1-0.8s-0.8-0.4-1.4-0.5c-0.5-0.2-1-0.3-1.6-0.5c-0.5-0.2-1-0.4-1.6-0.6c-0.5-0.2-1-0.5-1.4-0.8c-0.4-0.3-0.7-0.7-1-1.2
			c-0.2-0.5-0.4-1.1-0.4-1.8c0-0.6,0.1-1.2,0.4-1.8c0.3-0.6,0.6-1.1,1.1-1.5c0.5-0.4,1.1-0.8,1.8-1c0.7-0.3,1.5-0.4,2.4-0.4
			c1.1,0,2,0.2,2.9,0.5c0.8,0.3,1.6,0.8,2.2,1.4L1139.3,582.1z"/>
		<path class="st7" d="M1158.8,595.6h-2.8v-13.8h-8.4v9.7c0,0.7,0.2,1.2,0.5,1.5c0.3,0.3,0.8,0.5,1.3,0.5c0.3,0,0.6,0,0.8-0.1
			c0.2-0.1,0.4-0.2,0.6-0.3c0.2-0.1,0.3-0.2,0.4-0.3c0.1-0.1,0.2-0.1,0.3-0.1c0.2,0,0.3,0.1,0.4,0.3l0.8,1.4
			c-0.5,0.5-1.1,0.8-1.8,1.1c-0.7,0.3-1.4,0.4-2.1,0.4c-1.3,0-2.3-0.4-3-1.1c-0.7-0.7-1-1.7-1-3.1v-9.9h-2c-0.2,0-0.3-0.1-0.4-0.2
			c-0.1-0.1-0.2-0.3-0.2-0.5V580l2.7-0.4l0.7-5c0-0.2,0.1-0.3,0.2-0.4c0.1-0.1,0.3-0.2,0.4-0.2h1.4v5.6h11.2V595.6z M1159.5,574.2
			c0,0.3-0.1,0.5-0.2,0.8c-0.1,0.2-0.3,0.5-0.4,0.6c-0.2,0.2-0.4,0.3-0.6,0.4c-0.2,0.1-0.5,0.2-0.8,0.2c-0.3,0-0.5-0.1-0.8-0.2
			c-0.2-0.1-0.5-0.2-0.6-0.4c-0.2-0.2-0.3-0.4-0.4-0.6c-0.1-0.2-0.2-0.5-0.2-0.8s0.1-0.5,0.2-0.8s0.3-0.5,0.4-0.7
			c0.2-0.2,0.4-0.3,0.6-0.4c0.2-0.1,0.5-0.2,0.8-0.2c0.3,0,0.5,0.1,0.8,0.2c0.2,0.1,0.5,0.3,0.6,0.4c0.2,0.2,0.3,0.4,0.4,0.7
			C1159.4,573.7,1159.5,573.9,1159.5,574.2z"/>
		<path class="st7" d="M1174.7,582.3c-0.1,0.1-0.2,0.2-0.3,0.3c-0.1,0.1-0.2,0.1-0.4,0.1c-0.2,0-0.3-0.1-0.5-0.2
			c-0.2-0.1-0.4-0.3-0.7-0.4s-0.6-0.3-1-0.4s-0.9-0.2-1.5-0.2c-0.8,0-1.5,0.1-2.1,0.4c-0.6,0.3-1.1,0.7-1.5,1.2
			c-0.4,0.5-0.7,1.2-0.9,1.9c-0.2,0.8-0.3,1.6-0.3,2.5c0,1,0.1,1.9,0.3,2.6c0.2,0.8,0.5,1.4,1,1.9c0.4,0.5,0.9,0.9,1.5,1.2
			c0.6,0.3,1.2,0.4,2,0.4c0.7,0,1.3-0.1,1.7-0.2c0.4-0.2,0.8-0.3,1.1-0.6c0.3-0.2,0.5-0.4,0.7-0.6s0.4-0.2,0.6-0.2
			c0.2,0,0.4,0.1,0.5,0.3l0.8,1c-0.4,0.4-0.8,0.8-1.2,1.1c-0.4,0.3-0.9,0.6-1.4,0.8c-0.5,0.2-1.1,0.4-1.6,0.5
			c-0.6,0.1-1.1,0.1-1.7,0.1c-1,0-2-0.2-2.8-0.6c-0.9-0.4-1.6-0.9-2.3-1.6s-1.1-1.6-1.5-2.6c-0.4-1-0.5-2.2-0.5-3.5
			c0-1.2,0.2-2.3,0.5-3.3s0.8-1.9,1.5-2.6c0.6-0.7,1.4-1.3,2.4-1.7c0.9-0.4,2-0.6,3.3-0.6c1.1,0,2.1,0.2,3,0.6
			c0.9,0.4,1.6,0.9,2.3,1.6L1174.7,582.3z"/>
		<path class="st7" d="M1188.1,582.1c-0.1,0.2-0.3,0.4-0.6,0.4c-0.2,0-0.3-0.1-0.5-0.2c-0.2-0.1-0.5-0.2-0.7-0.4
			c-0.3-0.1-0.6-0.3-1-0.4c-0.4-0.1-0.9-0.2-1.4-0.2c-0.5,0-0.9,0.1-1.3,0.2c-0.4,0.1-0.7,0.3-1,0.5c-0.3,0.2-0.5,0.5-0.6,0.7
			c-0.1,0.3-0.2,0.6-0.2,0.9c0,0.4,0.1,0.8,0.4,1s0.6,0.5,1,0.7c0.4,0.2,0.8,0.4,1.3,0.5c0.5,0.2,1,0.3,1.5,0.5
			c0.5,0.2,1,0.4,1.5,0.6c0.5,0.2,0.9,0.5,1.3,0.8c0.4,0.3,0.7,0.7,1,1.2s0.4,1,0.4,1.7c0,0.7-0.1,1.4-0.4,2.1
			c-0.3,0.6-0.7,1.2-1.2,1.6c-0.5,0.5-1.2,0.8-1.9,1.1c-0.8,0.3-1.6,0.4-2.6,0.4c-1.1,0-2.2-0.2-3.1-0.6c-0.9-0.4-1.7-0.8-2.3-1.4
			l0.7-1.1c0.1-0.1,0.2-0.2,0.3-0.3c0.1-0.1,0.3-0.1,0.4-0.1c0.2,0,0.4,0.1,0.6,0.2c0.2,0.1,0.5,0.3,0.8,0.5s0.7,0.3,1.1,0.5
			c0.4,0.1,1,0.2,1.6,0.2c0.6,0,1-0.1,1.5-0.2s0.8-0.3,1-0.6c0.3-0.2,0.5-0.5,0.6-0.8c0.1-0.3,0.2-0.7,0.2-1c0-0.4-0.1-0.8-0.4-1.1
			s-0.6-0.5-1-0.8s-0.8-0.4-1.4-0.5c-0.5-0.2-1-0.3-1.6-0.5c-0.5-0.2-1-0.4-1.6-0.6c-0.5-0.2-1-0.5-1.4-0.8c-0.4-0.3-0.7-0.7-1-1.2
			c-0.2-0.5-0.4-1.1-0.4-1.8c0-0.6,0.1-1.2,0.4-1.8c0.3-0.6,0.6-1.1,1.1-1.5c0.5-0.4,1.1-0.8,1.8-1c0.7-0.3,1.5-0.4,2.4-0.4
			c1.1,0,2,0.2,2.9,0.5c0.8,0.3,1.6,0.8,2.2,1.4L1188.1,582.1z"/>
		<path class="st7" d="M1093.7,629.9c0.2,0,0.3,0.1,0.4,0.2l1.2,1.3c-0.9,1.1-2.1,1.9-3.4,2.5c-1.3,0.6-3,0.9-4.9,0.9
			c-1.6,0-3.1-0.3-4.5-0.9c-1.3-0.6-2.5-1.4-3.4-2.4c-1-1-1.7-2.3-2.2-3.7c-0.5-1.4-0.8-3-0.8-4.8s0.3-3.3,0.8-4.8
			c0.5-1.4,1.3-2.7,2.3-3.7c1-1,2.2-1.8,3.5-2.4c1.4-0.6,2.9-0.9,4.6-0.9c1.6,0,3.1,0.3,4.3,0.8c1.2,0.5,2.3,1.2,3.3,2.1l-1,1.4
			c-0.1,0.1-0.1,0.2-0.2,0.3s-0.2,0.1-0.4,0.1c-0.2,0-0.4-0.1-0.7-0.3s-0.6-0.4-1.1-0.7c-0.4-0.3-1-0.5-1.7-0.7
			c-0.7-0.2-1.5-0.3-2.5-0.3c-1.2,0-2.3,0.2-3.2,0.6c-1,0.4-1.8,1-2.5,1.8c-0.7,0.8-1.3,1.7-1.7,2.8s-0.6,2.4-0.6,3.8
			c0,1.4,0.2,2.7,0.6,3.8c0.4,1.1,1,2.1,1.7,2.8s1.5,1.4,2.5,1.8c1,0.4,2,0.6,3.1,0.6c0.7,0,1.3,0,1.8-0.1c0.5-0.1,1.1-0.2,1.5-0.4
			c0.5-0.2,0.9-0.4,1.3-0.6c0.4-0.3,0.8-0.6,1.2-0.9C1093.4,629.9,1093.5,629.9,1093.7,629.9z"/>
		<path class="st7" d="M1104.8,618.1c1.2,0,2.2,0.2,3.2,0.6c0.9,0.4,1.8,1,2.4,1.7c0.7,0.7,1.2,1.6,1.5,2.6c0.4,1,0.5,2.2,0.5,3.4
			c0,1.3-0.2,2.4-0.5,3.5c-0.4,1-0.9,1.9-1.5,2.6c-0.7,0.7-1.5,1.3-2.4,1.7c-1,0.4-2,0.6-3.2,0.6c-1.2,0-2.3-0.2-3.2-0.6
			c-1-0.4-1.8-0.9-2.4-1.7s-1.2-1.6-1.5-2.6c-0.4-1-0.5-2.2-0.5-3.5c0-1.3,0.2-2.4,0.5-3.4c0.4-1,0.9-1.9,1.5-2.6
			c0.7-0.7,1.5-1.3,2.4-1.7C1102.6,618.3,1103.6,618.1,1104.8,618.1z M1104.8,632.6c1.6,0,2.8-0.5,3.6-1.6c0.8-1.1,1.2-2.6,1.2-4.5
			c0-1.9-0.4-3.4-1.2-4.5c-0.8-1.1-2-1.6-3.6-1.6c-0.8,0-1.5,0.1-2.1,0.4c-0.6,0.3-1.1,0.7-1.5,1.2c-0.4,0.5-0.7,1.2-0.9,1.9
			c-0.2,0.8-0.3,1.6-0.3,2.6c0,1.9,0.4,3.4,1.2,4.5C1102,632.1,1103.2,632.6,1104.8,632.6z"/>
		<path class="st7" d="M1118.8,620.7c0.4-0.4,0.7-0.8,1.1-1.1s0.8-0.6,1.3-0.8c0.4-0.2,0.9-0.4,1.4-0.5c0.5-0.1,1-0.2,1.6-0.2
			c0.9,0,1.7,0.1,2.3,0.4c0.7,0.3,1.2,0.7,1.7,1.2c0.5,0.5,0.8,1.2,1,1.9c0.2,0.8,0.4,1.6,0.4,2.5v10.3h-2.9v-10.3
			c0-1.2-0.3-2.2-0.8-2.9c-0.6-0.7-1.4-1-2.6-1c-0.8,0-1.6,0.2-2.4,0.6s-1.4,1-2,1.6v11.9h-2.9v-16.2h1.7c0.4,0,0.7,0.2,0.8,0.6
			L1118.8,620.7z"/>
		<path class="st7" d="M1138.8,634.9c-1.3,0-2.3-0.4-3-1.1c-0.7-0.7-1-1.7-1-3.1v-9.9h-2c-0.2,0-0.3-0.1-0.4-0.2
			c-0.1-0.1-0.2-0.3-0.2-0.5V619l2.7-0.3l0.7-5c0-0.2,0.1-0.3,0.2-0.4c0.1-0.1,0.3-0.2,0.4-0.2h1.4v5.6h4.7v2.1h-4.7v9.7
			c0,0.7,0.2,1.2,0.5,1.5c0.3,0.3,0.8,0.5,1.3,0.5c0.3,0,0.6,0,0.8-0.1c0.2-0.1,0.4-0.2,0.6-0.3c0.2-0.1,0.3-0.2,0.4-0.3
			c0.1-0.1,0.2-0.1,0.3-0.1c0.2,0,0.3,0.1,0.4,0.3l0.8,1.4c-0.5,0.5-1.1,0.8-1.8,1.1C1140.2,634.7,1139.5,634.9,1138.8,634.9z"/>
		<path class="st7" d="M1148,621.6c0.5-1.1,1.1-2,1.9-2.6c0.7-0.6,1.7-0.9,2.7-0.9c0.3,0,0.7,0,1,0.1s0.6,0.2,0.8,0.4l-0.2,2.1
			c-0.1,0.3-0.2,0.4-0.5,0.4c-0.1,0-0.4,0-0.7-0.1c-0.3-0.1-0.6-0.1-1-0.1c-0.5,0-1,0.1-1.4,0.2c-0.4,0.2-0.8,0.4-1.1,0.7
			c-0.3,0.3-0.6,0.7-0.8,1.1c-0.2,0.4-0.5,0.9-0.7,1.5v10.2h-2.9v-16.2h1.6c0.3,0,0.5,0.1,0.6,0.2c0.1,0.1,0.2,0.3,0.2,0.6
			L1148,621.6z"/>
		<path class="st7" d="M1163.1,618.1c1.2,0,2.2,0.2,3.2,0.6c0.9,0.4,1.8,1,2.4,1.7c0.7,0.7,1.2,1.6,1.5,2.6c0.4,1,0.5,2.2,0.5,3.4
			c0,1.3-0.2,2.4-0.5,3.5c-0.4,1-0.9,1.9-1.5,2.6c-0.7,0.7-1.5,1.3-2.4,1.7c-0.9,0.4-2,0.6-3.2,0.6c-1.2,0-2.3-0.2-3.2-0.6
			c-1-0.4-1.8-0.9-2.4-1.7s-1.2-1.6-1.5-2.6c-0.4-1-0.5-2.2-0.5-3.5c0-1.3,0.2-2.4,0.5-3.4c0.4-1,0.9-1.9,1.5-2.6
			c0.7-0.7,1.5-1.3,2.4-1.7C1160.8,618.3,1161.9,618.1,1163.1,618.1z M1163.1,632.6c1.6,0,2.8-0.5,3.6-1.6c0.8-1.1,1.2-2.6,1.2-4.5
			c0-1.9-0.4-3.4-1.2-4.5c-0.8-1.1-2-1.6-3.6-1.6c-0.8,0-1.5,0.1-2.1,0.4c-0.6,0.3-1.1,0.7-1.5,1.2c-0.4,0.5-0.7,1.2-0.9,1.9
			c-0.2,0.8-0.3,1.6-0.3,2.6c0,1.9,0.4,3.4,1.2,4.5C1160.3,632.1,1161.5,632.6,1163.1,632.6z"/>
		<path class="st7" d="M1177.3,611v23.6h-2.8V611H1177.3z"/>
	</g>
	<g>
		<path d="M616,476.1c-0.2,0.3-0.3,0.5-0.5,0.6c-0.2,0.1-0.4,0.2-0.7,0.2c-0.3,0-0.6-0.1-1-0.4s-0.8-0.6-1.4-0.9
			c-0.6-0.3-1.2-0.6-2-0.9c-0.8-0.3-1.7-0.4-2.8-0.4c-1,0-1.9,0.1-2.7,0.4c-0.8,0.3-1.4,0.6-1.9,1.1c-0.5,0.5-0.9,1-1.2,1.6
			c-0.3,0.6-0.4,1.3-0.4,2c0,0.9,0.2,1.7,0.7,2.3c0.5,0.6,1.1,1.1,1.9,1.6s1.6,0.8,2.6,1.1s2,0.7,3,1s2,0.7,3,1.2
			c1,0.4,1.8,1,2.6,1.7c0.8,0.7,1.4,1.5,1.9,2.5c0.5,1,0.7,2.2,0.7,3.6c0,1.5-0.3,2.9-0.8,4.3c-0.5,1.3-1.3,2.5-2.3,3.5
			c-1,1-2.2,1.8-3.7,2.3c-1.4,0.6-3.1,0.9-4.9,0.9c-1.1,0-2.2-0.1-3.2-0.3c-1-0.2-2-0.5-3-0.9c-0.9-0.4-1.8-0.9-2.6-1.4
			c-0.8-0.6-1.5-1.2-2.2-1.9l1.5-2.4c0.1-0.2,0.3-0.4,0.5-0.5s0.4-0.2,0.7-0.2c0.3,0,0.7,0.2,1.2,0.5c0.4,0.4,1,0.7,1.6,1.2
			s1.4,0.8,2.3,1.2c0.9,0.4,2,0.5,3.3,0.5c1.1,0,2-0.1,2.8-0.4c0.8-0.3,1.5-0.7,2.1-1.2c0.6-0.5,1-1.1,1.3-1.9
			c0.3-0.7,0.5-1.6,0.5-2.4c0-1-0.2-1.8-0.7-2.5c-0.5-0.6-1.1-1.2-1.8-1.6c-0.8-0.4-1.6-0.8-2.6-1.1s-2-0.6-3-0.9
			c-1-0.3-2-0.7-3-1.1s-1.8-1-2.6-1.7c-0.8-0.7-1.4-1.6-1.8-2.6c-0.5-1-0.7-2.3-0.7-3.9c0-1.2,0.2-2.4,0.7-3.6
			c0.5-1.2,1.2-2.2,2.1-3.1c0.9-0.9,2.1-1.6,3.4-2.1c1.3-0.5,2.9-0.8,4.6-0.8c1.9,0,3.7,0.3,5.3,0.9s3,1.5,4.2,2.7L616,476.1z"/>
		<path d="M629.9,505.4c-2,0-3.5-0.6-4.5-1.7c-1.1-1.1-1.6-2.7-1.6-4.7v-14.6h-2.8c-0.3,0-0.5-0.1-0.7-0.3s-0.3-0.4-0.3-0.8v-1.9
			l4-0.6l1.1-7.3c0.1-0.3,0.2-0.5,0.4-0.6c0.2-0.2,0.4-0.2,0.7-0.2h2.4v8.2h6.9v3.4h-6.9v14.3c0,1,0.2,1.7,0.7,2.1
			c0.5,0.5,1.1,0.7,1.8,0.7c0.4,0,0.8-0.1,1.1-0.2c0.3-0.1,0.6-0.2,0.8-0.4s0.4-0.3,0.6-0.4c0.2-0.1,0.3-0.2,0.4-0.2
			c0.2,0,0.3,0,0.4,0.1c0.1,0.1,0.2,0.2,0.3,0.3l1.4,2.3c-0.8,0.7-1.7,1.2-2.7,1.6C632.2,505.2,631.1,505.4,629.9,505.4z"/>
		<path d="M659.9,480.6V505h-2.8c-0.6,0-1.1-0.3-1.2-0.9l-0.3-2.4c-0.5,0.6-1.1,1.1-1.7,1.5s-1.2,0.9-1.8,1.2
			c-0.7,0.3-1.4,0.6-2.1,0.8c-0.7,0.2-1.5,0.3-2.4,0.3c-1.3,0-2.5-0.2-3.5-0.7c-1-0.4-1.9-1.1-2.6-1.9s-1.2-1.8-1.6-2.9
			s-0.5-2.4-0.5-3.8v-15.5h4.7v15.5c0,1.7,0.4,3.1,1.2,4.1c0.8,1,2,1.5,3.7,1.5c1.2,0,2.3-0.3,3.4-0.9c1-0.6,2-1.3,2.9-2.3v-17.9
			H659.9z"/>
		<path d="M686.9,469.6V505h-2.8c-0.7,0-1.1-0.3-1.2-0.9l-0.4-2.8c-1,1.2-2.2,2.2-3.5,3s-2.8,1.1-4.6,1.1c-1.4,0-2.7-0.3-3.8-0.8
			c-1.1-0.5-2.1-1.3-2.9-2.4c-0.8-1-1.4-2.3-1.8-3.9c-0.4-1.6-0.6-3.3-0.6-5.4c0-1.8,0.2-3.5,0.7-5c0.5-1.6,1.2-2.9,2.1-4
			c0.9-1.1,2-2,3.3-2.7c1.3-0.6,2.8-1,4.4-1c1.5,0,2.7,0.2,3.8,0.7c1,0.5,2,1.2,2.8,2v-13.3H686.9z M682.2,486.5
			c-0.8-1-1.6-1.7-2.5-2.1c-0.9-0.4-1.9-0.6-3-0.6c-2.1,0-3.8,0.8-5,2.3c-1.2,1.5-1.8,3.8-1.8,6.8c0,1.6,0.1,2.9,0.4,4
			c0.3,1.1,0.6,2,1.2,2.7c0.5,0.7,1.1,1.2,1.9,1.5c0.7,0.3,1.6,0.5,2.5,0.5c1.4,0,2.5-0.3,3.5-0.9c1-0.6,1.9-1.5,2.8-2.6V486.5z"/>
		<path d="M713.5,501.5c-0.6,0.7-1.2,1.3-2,1.7c-0.8,0.5-1.6,0.9-2.4,1.2s-1.7,0.5-2.6,0.7c-0.9,0.1-1.8,0.2-2.7,0.2
			c-1.7,0-3.2-0.3-4.7-0.9c-1.4-0.6-2.7-1.4-3.7-2.5c-1-1.1-1.9-2.5-2.4-4.1s-0.9-3.5-0.9-5.6c0-1.7,0.3-3.3,0.8-4.7
			c0.5-1.5,1.3-2.7,2.3-3.8c1-1.1,2.2-1.9,3.6-2.6s3-0.9,4.8-0.9c1.5,0,2.9,0.2,4.1,0.7c1.3,0.5,2.3,1.2,3.3,2.1
			c0.9,0.9,1.6,2.1,2.1,3.4c0.5,1.4,0.8,2.9,0.8,4.7c0,0.7-0.1,1.2-0.2,1.5s-0.5,0.4-0.9,0.4h-16c0,1.5,0.3,2.7,0.6,3.8
			c0.4,1.1,0.9,2,1.5,2.7c0.6,0.7,1.4,1.3,2.3,1.6c0.9,0.4,1.9,0.5,3,0.5c1,0,1.9-0.1,2.7-0.4c0.8-0.2,1.4-0.5,2-0.8
			c0.6-0.3,1-0.5,1.4-0.8c0.4-0.2,0.7-0.4,1-0.4c0.4,0,0.7,0.1,0.9,0.4L713.5,501.5z M709.6,490.1c0-0.9-0.1-1.8-0.4-2.6
			c-0.3-0.8-0.7-1.5-1.2-2c-0.5-0.6-1.1-1-1.9-1.3c-0.7-0.3-1.6-0.5-2.5-0.5c-2,0-3.5,0.6-4.6,1.7c-1.1,1.1-1.8,2.7-2.1,4.7H709.6z"
			/>
		<path d="M723.3,484c0.5-0.6,1.1-1.1,1.7-1.5c0.6-0.5,1.2-0.9,1.8-1.2c0.6-0.3,1.3-0.6,2.1-0.8c0.7-0.2,1.5-0.3,2.4-0.3
			c1.3,0,2.5,0.2,3.5,0.7c1,0.4,1.9,1.1,2.6,1.9s1.2,1.8,1.6,2.9s0.5,2.4,0.5,3.8V505h-4.7v-15.5c0-1.7-0.4-3.1-1.2-4.1
			c-0.8-1-2-1.5-3.7-1.5c-1.2,0-2.3,0.3-3.4,0.9c-1,0.6-2,1.3-2.9,2.3V505h-4.7v-24.4h2.8c0.7,0,1.1,0.3,1.2,0.9L723.3,484z"/>
		<path d="M753,505.4c-2,0-3.5-0.6-4.5-1.7c-1.1-1.1-1.6-2.7-1.6-4.7v-14.6h-2.8c-0.3,0-0.5-0.1-0.7-0.3s-0.3-0.4-0.3-0.8v-1.9
			l4-0.6l1.1-7.3c0.1-0.3,0.2-0.5,0.4-0.6c0.2-0.2,0.4-0.2,0.7-0.2h2.4v8.2h6.9v3.4h-6.9v14.3c0,1,0.2,1.7,0.7,2.1
			c0.5,0.5,1.1,0.7,1.8,0.7c0.4,0,0.8-0.1,1.1-0.2c0.3-0.1,0.6-0.2,0.8-0.4c0.2-0.1,0.4-0.3,0.6-0.4c0.2-0.1,0.3-0.2,0.4-0.2
			c0.2,0,0.3,0,0.4,0.1c0.1,0.1,0.2,0.2,0.3,0.3l1.4,2.3c-0.8,0.7-1.7,1.2-2.7,1.6C755.3,505.2,754.2,505.4,753,505.4z"/>
		<path d="M777.2,484.8c-0.1,0.2-0.3,0.4-0.4,0.4c-0.1,0.1-0.3,0.1-0.6,0.1c-0.3,0-0.5-0.1-0.9-0.3c-0.3-0.2-0.7-0.4-1.1-0.6
			c-0.4-0.2-1-0.4-1.5-0.6c-0.6-0.2-1.3-0.3-2.1-0.3c-0.7,0-1.3,0.1-1.8,0.3c-0.6,0.2-1,0.4-1.4,0.7s-0.7,0.6-0.9,1.1
			s-0.3,0.8-0.3,1.3c0,0.6,0.2,1.1,0.5,1.5c0.4,0.4,0.8,0.7,1.4,1s1.2,0.5,2,0.8c0.7,0.2,1.5,0.5,2.3,0.7c0.8,0.3,1.5,0.5,2.3,0.9
			s1.4,0.7,2,1.2c0.6,0.5,1.1,1.1,1.4,1.8c0.4,0.7,0.5,1.5,0.5,2.5c0,1.1-0.2,2.2-0.6,3.2s-1,1.8-1.8,2.5s-1.8,1.3-2.9,1.7
			c-1.2,0.4-2.5,0.6-4,0.6c-1.7,0-3.2-0.3-4.7-0.8c-1.4-0.6-2.6-1.3-3.6-2.1l1.1-1.8c0.1-0.2,0.3-0.4,0.5-0.5
			c0.2-0.1,0.4-0.2,0.8-0.2c0.3,0,0.6,0.1,0.9,0.3c0.3,0.2,0.7,0.5,1.2,0.7c0.4,0.3,1,0.5,1.6,0.7c0.6,0.2,1.4,0.3,2.4,0.3
			c0.8,0,1.5-0.1,2.1-0.3c0.6-0.2,1.1-0.5,1.5-0.8c0.4-0.3,0.7-0.7,0.9-1.2c0.2-0.4,0.3-0.9,0.3-1.4c0-0.6-0.2-1.2-0.5-1.6
			c-0.4-0.4-0.8-0.8-1.4-1.1c-0.6-0.3-1.3-0.6-2-0.8s-1.5-0.5-2.3-0.7c-0.8-0.3-1.6-0.6-2.3-0.9s-1.4-0.8-2-1.3
			c-0.6-0.5-1.1-1.1-1.4-1.9c-0.4-0.7-0.5-1.6-0.5-2.7c0-0.9,0.2-1.8,0.6-2.7c0.4-0.9,1-1.6,1.7-2.3c0.7-0.7,1.7-1.2,2.8-1.6
			c1.1-0.4,2.3-0.6,3.8-0.6c1.6,0,3.1,0.3,4.4,0.8c1.3,0.5,2.4,1.2,3.3,2.1L777.2,484.8z"/>
	</g>
	<g>
		<path d="M1219,474.8H1208V505h-5.1v-30.2h-11v-4.3h27V474.8z"/>
		<path d="M1237.1,501.5c-0.6,0.7-1.2,1.3-2,1.7c-0.8,0.5-1.6,0.9-2.4,1.2s-1.7,0.5-2.6,0.7c-0.9,0.1-1.8,0.2-2.7,0.2
			c-1.7,0-3.2-0.3-4.7-0.9c-1.4-0.6-2.7-1.4-3.7-2.5c-1-1.1-1.9-2.5-2.4-4.1s-0.9-3.5-0.9-5.6c0-1.7,0.3-3.3,0.8-4.7
			c0.5-1.5,1.3-2.7,2.3-3.8s2.2-1.9,3.6-2.6c1.4-0.6,3-0.9,4.8-0.9c1.5,0,2.9,0.2,4.1,0.7c1.3,0.5,2.3,1.2,3.3,2.1
			c0.9,0.9,1.6,2.1,2.1,3.4c0.5,1.4,0.8,2.9,0.8,4.7c0,0.7-0.1,1.2-0.2,1.5s-0.5,0.4-0.9,0.4h-16c0,1.5,0.3,2.7,0.6,3.8
			s0.9,2,1.5,2.7c0.6,0.7,1.4,1.3,2.3,1.6c0.9,0.4,1.9,0.5,3,0.5c1,0,1.9-0.1,2.7-0.4c0.8-0.2,1.4-0.5,2-0.8c0.6-0.3,1-0.5,1.4-0.8
			c0.4-0.2,0.7-0.4,1-0.4c0.4,0,0.7,0.1,0.9,0.4L1237.1,501.5z M1233.3,490.1c0-0.9-0.1-1.8-0.4-2.6s-0.7-1.5-1.2-2s-1.1-1-1.9-1.3
			c-0.7-0.3-1.6-0.5-2.5-0.5c-2,0-3.5,0.6-4.6,1.7c-1.1,1.1-1.8,2.7-2.1,4.7H1233.3z"/>
		<path d="M1241.9,484c1.4-1.3,2.8-2.3,4.4-2.9c1.6-0.6,3.3-1,5.2-1c1.4,0,2.6,0.2,3.7,0.7s2,1.1,2.7,1.9c0.7,0.8,1.3,1.8,1.7,2.9
			c0.4,1.1,0.6,2.4,0.6,3.8V505h-2.1c-0.5,0-0.8-0.1-1.1-0.2c-0.2-0.2-0.4-0.4-0.6-0.9l-0.5-2.1c-0.6,0.6-1.2,1.1-1.8,1.5
			c-0.6,0.4-1.2,0.8-1.9,1.1c-0.7,0.3-1.4,0.5-2.1,0.7c-0.8,0.2-1.6,0.2-2.5,0.2c-1,0-1.9-0.1-2.7-0.4c-0.8-0.3-1.6-0.7-2.2-1.2
			s-1.1-1.2-1.5-2c-0.4-0.8-0.5-1.8-0.5-2.9c0-1,0.3-1.9,0.8-2.8c0.5-0.9,1.4-1.7,2.5-2.4c1.2-0.7,2.7-1.3,4.6-1.7s4.2-0.7,7-0.8
			v-1.8c0-1.8-0.4-3.2-1.2-4.1c-0.8-0.9-1.9-1.4-3.5-1.4c-1,0-1.9,0.1-2.6,0.4c-0.7,0.3-1.3,0.5-1.8,0.9c-0.5,0.3-0.9,0.6-1.3,0.9
			s-0.8,0.4-1.2,0.4c-0.3,0-0.6-0.1-0.8-0.3s-0.4-0.4-0.6-0.6L1241.9,484z M1255.7,494.2c-1.9,0.1-3.5,0.2-4.8,0.4
			c-1.3,0.2-2.4,0.5-3.2,0.9c-0.8,0.4-1.4,0.8-1.8,1.4c-0.4,0.5-0.6,1.1-0.6,1.7c0,0.6,0.1,1.1,0.3,1.6c0.2,0.4,0.5,0.8,0.8,1.1
			c0.3,0.3,0.7,0.5,1.2,0.6s1,0.2,1.5,0.2c0.7,0,1.4-0.1,2-0.2c0.6-0.1,1.2-0.3,1.7-0.6c0.5-0.3,1-0.6,1.5-1s1-0.8,1.4-1.3V494.2z"
			/>
		<path d="M1283.6,485.2c-0.1,0.2-0.3,0.3-0.4,0.4c-0.1,0.1-0.3,0.2-0.6,0.2c-0.3,0-0.5-0.1-0.8-0.3c-0.3-0.2-0.6-0.4-1.1-0.6
			c-0.4-0.2-0.9-0.4-1.5-0.6s-1.3-0.3-2.2-0.3c-1.2,0-2.2,0.2-3,0.6c-0.9,0.4-1.6,1-2.2,1.8c-0.6,0.8-1,1.7-1.3,2.8
			c-0.3,1.1-0.5,2.3-0.5,3.7c0,1.4,0.2,2.7,0.5,3.8c0.3,1.1,0.8,2,1.4,2.8s1.3,1.3,2.2,1.7c0.8,0.4,1.8,0.6,2.8,0.6
			c1,0,1.8-0.1,2.5-0.4s1.2-0.5,1.6-0.8s0.8-0.6,1.1-0.8s0.6-0.4,0.9-0.4c0.4,0,0.7,0.1,0.9,0.4l1.3,1.7c-0.6,0.7-1.2,1.3-1.9,1.8
			c-0.7,0.5-1.4,0.9-2.2,1.2c-0.8,0.3-1.6,0.5-2.5,0.7c-0.9,0.1-1.7,0.2-2.6,0.2c-1.5,0-2.9-0.3-4.3-0.8c-1.3-0.6-2.5-1.4-3.4-2.4
			c-1-1.1-1.7-2.4-2.3-3.9c-0.6-1.6-0.8-3.3-0.8-5.3c0-1.8,0.3-3.5,0.8-5c0.5-1.5,1.2-2.9,2.2-4c1-1.1,2.2-2,3.6-2.6
			c1.4-0.6,3.1-0.9,4.9-0.9c1.7,0,3.3,0.3,4.6,0.8c1.3,0.6,2.5,1.4,3.6,2.4L1283.6,485.2z"/>
		<path d="M1294.2,483.7c1-1,2.2-1.9,3.4-2.5c1.2-0.6,2.7-1,4.3-1c1.3,0,2.5,0.2,3.5,0.7c1,0.4,1.9,1.1,2.6,1.9
			c0.7,0.8,1.2,1.8,1.6,2.9s0.5,2.4,0.5,3.8V505h-4.7v-15.5c0-1.7-0.4-3.1-1.2-4.1c-0.8-1-2-1.5-3.7-1.5c-1.2,0-2.3,0.3-3.4,0.9
			c-1,0.6-2,1.3-2.9,2.3V505h-4.7v-35.4h4.7V483.7z"/>
		<path d="M1336.4,501.5c-0.6,0.7-1.2,1.3-2,1.7c-0.8,0.5-1.6,0.9-2.4,1.2c-0.8,0.3-1.7,0.5-2.6,0.7c-0.9,0.1-1.8,0.2-2.7,0.2
			c-1.7,0-3.2-0.3-4.7-0.9c-1.4-0.6-2.7-1.4-3.7-2.5s-1.9-2.5-2.4-4.1c-0.6-1.6-0.9-3.5-0.9-5.6c0-1.7,0.3-3.3,0.8-4.7
			c0.5-1.5,1.3-2.7,2.3-3.8s2.2-1.9,3.6-2.6c1.4-0.6,3-0.9,4.8-0.9c1.5,0,2.9,0.2,4.1,0.7c1.3,0.5,2.3,1.2,3.3,2.1
			c0.9,0.9,1.6,2.1,2.1,3.4c0.5,1.4,0.8,2.9,0.8,4.7c0,0.7-0.1,1.2-0.2,1.5s-0.5,0.4-0.9,0.4h-16c0,1.5,0.3,2.7,0.6,3.8
			s0.9,2,1.5,2.7c0.6,0.7,1.4,1.3,2.3,1.6c0.9,0.4,1.9,0.5,3,0.5c1,0,1.9-0.1,2.7-0.4c0.8-0.2,1.4-0.5,2-0.8c0.6-0.3,1-0.5,1.4-0.8
			c0.4-0.2,0.7-0.4,1-0.4c0.4,0,0.7,0.1,0.9,0.4L1336.4,501.5z M1332.5,490.1c0-0.9-0.1-1.8-0.4-2.6s-0.7-1.5-1.2-2s-1.1-1-1.9-1.3
			c-0.7-0.3-1.6-0.5-2.5-0.5c-2,0-3.5,0.6-4.6,1.7s-1.8,2.7-2.1,4.7H1332.5z"/>
		<path d="M1346.2,485.3c0.8-1.6,1.7-2.9,2.8-3.8c1.1-0.9,2.4-1.4,4-1.4c0.5,0,1,0.1,1.5,0.2c0.5,0.1,0.9,0.3,1.2,0.5l-0.3,3.5
			c-0.1,0.4-0.4,0.6-0.8,0.6c-0.2,0-0.6,0-1-0.1c-0.4-0.1-0.9-0.1-1.4-0.1c-0.8,0-1.4,0.1-2,0.3s-1.1,0.5-1.5,1s-0.9,0.9-1.2,1.6
			c-0.4,0.6-0.7,1.3-1,2.1V505h-4.7v-24.4h2.7c0.5,0,0.9,0.1,1,0.3c0.2,0.2,0.3,0.5,0.4,1L1346.2,485.3z"/>
	</g>
	<g>
		<g id="wuZWpB_2_">
			
				<image style="overflow:visible;enable-background:new    ;" width="937" height="542" id="wuZWpB_3_" xlink:href="img/1DB93F7BCE0D78DB.jpg"  transform="matrix(0.3048 0 0 0.3048 1249.5935 528.1981)">
			</image>
		</g>
		<g>
			<path class="st7" d="M1366.6,560.2c-0.1,0.2-0.2,0.3-0.3,0.4s-0.2,0.1-0.4,0.1c-0.2,0-0.4-0.1-0.6-0.3c-0.2-0.2-0.6-0.4-0.9-0.6
				c-0.4-0.2-0.8-0.4-1.3-0.6c-0.5-0.2-1.1-0.3-1.9-0.3c-0.7,0-1.3,0.1-1.8,0.3c-0.5,0.2-1,0.4-1.3,0.8c-0.4,0.3-0.6,0.7-0.8,1.1
				c-0.2,0.4-0.3,0.9-0.3,1.4c0,0.6,0.2,1.2,0.5,1.6s0.7,0.8,1.2,1.1s1.1,0.6,1.8,0.8s1.3,0.4,2,0.7c0.7,0.2,1.4,0.5,2,0.8
				c0.7,0.3,1.2,0.7,1.8,1.1c0.5,0.4,0.9,1,1.2,1.6c0.3,0.7,0.5,1.5,0.5,2.4c0,1-0.2,1.9-0.5,2.8s-0.8,1.6-1.5,2.3s-1.5,1.2-2.4,1.5
				c-1,0.4-2,0.6-3.3,0.6c-1.5,0-2.8-0.3-4.1-0.8c-1.2-0.5-2.3-1.3-3.1-2.2l0.9-1.5c0.1-0.1,0.2-0.2,0.3-0.3
				c0.1-0.1,0.3-0.1,0.4-0.1c0.1,0,0.3,0.1,0.5,0.2c0.2,0.1,0.4,0.3,0.6,0.4c0.2,0.2,0.5,0.4,0.8,0.6c0.3,0.2,0.6,0.4,1,0.6
				c0.4,0.2,0.8,0.3,1.3,0.4c0.5,0.1,1,0.2,1.6,0.2c0.7,0,1.4-0.1,2-0.3c0.6-0.2,1.1-0.5,1.5-0.9s0.7-0.8,0.9-1.3
				c0.2-0.5,0.3-1.1,0.3-1.7c0-0.7-0.2-1.3-0.5-1.7c-0.3-0.4-0.7-0.8-1.2-1.1c-0.5-0.3-1.1-0.6-1.8-0.8c-0.7-0.2-1.3-0.4-2-0.6
				c-0.7-0.2-1.4-0.5-2-0.8c-0.7-0.3-1.2-0.7-1.8-1.1s-0.9-1-1.2-1.7c-0.3-0.7-0.5-1.5-0.5-2.6c0-0.8,0.2-1.6,0.5-2.4s0.8-1.4,1.4-2
				c0.6-0.6,1.3-1.1,2.2-1.4c0.9-0.4,1.9-0.5,3-0.5c1.3,0,2.4,0.2,3.5,0.6c1.1,0.4,2,1,2.8,1.8L1366.6,560.2z"/>
			<path class="st7" d="M1374.2,556v23.6h-2.8V556H1374.2z"/>
			<path class="st7" d="M1382.4,558.3c0,0.3-0.1,0.5-0.2,0.8c-0.1,0.2-0.3,0.5-0.4,0.6c-0.2,0.2-0.4,0.3-0.7,0.4
				c-0.3,0.1-0.5,0.2-0.8,0.2c-0.3,0-0.5-0.1-0.8-0.2c-0.2-0.1-0.5-0.3-0.6-0.4c-0.2-0.2-0.3-0.4-0.4-0.6c-0.1-0.2-0.2-0.5-0.2-0.8
				s0.1-0.5,0.2-0.8c0.1-0.2,0.3-0.5,0.4-0.7c0.2-0.2,0.4-0.3,0.6-0.4c0.2-0.1,0.5-0.2,0.8-0.2c0.3,0,0.5,0.1,0.8,0.2
				c0.2,0.1,0.5,0.3,0.7,0.4c0.2,0.2,0.3,0.4,0.4,0.7C1382.4,557.7,1382.4,558,1382.4,558.3z M1381.8,563.3v16.2h-2.8v-16.2H1381.8z
				"/>
			<path class="st7" d="M1399.9,556v23.6h-1.7c-0.4,0-0.7-0.2-0.8-0.6l-0.3-2c-0.7,0.8-1.5,1.5-2.4,2c-0.9,0.5-1.9,0.8-3.1,0.8
				c-0.9,0-1.8-0.2-2.5-0.5c-0.8-0.4-1.4-0.9-1.9-1.6c-0.5-0.7-0.9-1.6-1.2-2.6s-0.4-2.2-0.4-3.6c0-1.2,0.2-2.3,0.5-3.3
				s0.8-1.9,1.4-2.7c0.6-0.8,1.3-1.4,2.2-1.8s1.8-0.6,2.9-0.6c1,0,1.8,0.2,2.6,0.5c0.7,0.3,1.3,0.8,1.9,1.4v-9H1399.9z M1397,567.2
				c-0.5-0.7-1.1-1.2-1.7-1.5c-0.6-0.3-1.3-0.4-2.1-0.4c-1.5,0-2.7,0.5-3.5,1.6s-1.2,2.6-1.2,4.6c0,1.1,0.1,2,0.3,2.7
				s0.4,1.4,0.8,1.9s0.8,0.8,1.3,1.1c0.5,0.2,1.1,0.3,1.7,0.3c0.9,0,1.8-0.2,2.5-0.6s1.3-1,1.9-1.8V567.2z"/>
			<path class="st7" d="M1417.6,577.3c-0.4,0.4-0.8,0.8-1.3,1.1c-0.5,0.3-1,0.6-1.6,0.8c-0.6,0.2-1.1,0.4-1.7,0.5
				c-0.6,0.1-1.2,0.2-1.8,0.2c-1.1,0-2.2-0.2-3.1-0.6c-0.9-0.4-1.8-0.9-2.4-1.7s-1.2-1.6-1.6-2.7s-0.6-2.3-0.6-3.7
				c0-1.1,0.2-2.2,0.5-3.2c0.3-1,0.8-1.8,1.5-2.6s1.4-1.3,2.4-1.7c0.9-0.4,2-0.6,3.2-0.6c1,0,1.9,0.2,2.7,0.5
				c0.8,0.3,1.5,0.8,2.1,1.4s1.1,1.4,1.4,2.3c0.3,0.9,0.5,1.9,0.5,3.1c0,0.4,0,0.7-0.1,0.9s-0.3,0.2-0.5,0.2h-10.8
				c0,1,0.2,1.9,0.4,2.7c0.3,0.8,0.6,1.4,1,1.9c0.4,0.5,1,0.9,1.6,1.1c0.6,0.3,1.3,0.4,2.1,0.4c0.7,0,1.3-0.1,1.8-0.2
				c0.5-0.2,1-0.3,1.3-0.5c0.4-0.2,0.7-0.4,0.9-0.5c0.2-0.2,0.5-0.2,0.6-0.2c0.2,0,0.4,0.1,0.5,0.3L1417.6,577.3z M1415.3,569.7
				c0-0.7-0.1-1.3-0.3-1.8c-0.2-0.5-0.5-1-0.8-1.4s-0.8-0.7-1.3-0.9s-1.1-0.3-1.7-0.3c-1.4,0-2.4,0.4-3.2,1.2
				c-0.8,0.8-1.3,1.9-1.5,3.3H1415.3z"/>
			<path class="st7" d="M1430.7,566c-0.1,0.2-0.3,0.4-0.6,0.4c-0.2,0-0.3-0.1-0.5-0.2c-0.2-0.1-0.5-0.2-0.7-0.4
				c-0.3-0.1-0.6-0.3-1-0.4c-0.4-0.1-0.9-0.2-1.4-0.2c-0.5,0-0.9,0.1-1.3,0.2c-0.4,0.1-0.7,0.3-1,0.5s-0.5,0.5-0.6,0.7
				s-0.2,0.6-0.2,0.9c0,0.4,0.1,0.8,0.4,1c0.2,0.3,0.6,0.5,1,0.7s0.8,0.4,1.3,0.5c0.5,0.2,1,0.3,1.5,0.5s1,0.4,1.5,0.6
				c0.5,0.2,0.9,0.5,1.3,0.8c0.4,0.3,0.7,0.7,1,1.2c0.2,0.5,0.4,1,0.4,1.7c0,0.7-0.1,1.4-0.4,2.1c-0.3,0.6-0.7,1.2-1.2,1.6
				c-0.5,0.5-1.2,0.8-1.9,1.1c-0.8,0.3-1.6,0.4-2.6,0.4c-1.1,0-2.2-0.2-3.1-0.6c-0.9-0.4-1.7-0.8-2.3-1.4l0.7-1.1
				c0.1-0.1,0.2-0.2,0.3-0.3s0.3-0.1,0.4-0.1c0.2,0,0.4,0.1,0.6,0.2c0.2,0.2,0.5,0.3,0.8,0.5c0.3,0.2,0.7,0.3,1.1,0.5
				c0.4,0.1,1,0.2,1.6,0.2c0.6,0,1-0.1,1.5-0.2c0.4-0.1,0.8-0.3,1-0.6c0.3-0.2,0.5-0.5,0.6-0.8c0.1-0.3,0.2-0.7,0.2-1
				c0-0.4-0.1-0.8-0.4-1.1c-0.2-0.3-0.6-0.5-1-0.8c-0.4-0.2-0.8-0.4-1.4-0.5c-0.5-0.2-1-0.3-1.6-0.5c-0.5-0.2-1-0.4-1.6-0.6
				s-1-0.5-1.4-0.8c-0.4-0.3-0.7-0.7-1-1.2c-0.2-0.5-0.4-1.1-0.4-1.8c0-0.6,0.1-1.2,0.4-1.8s0.6-1.1,1.1-1.5c0.5-0.4,1.1-0.8,1.8-1
				s1.5-0.4,2.4-0.4c1.1,0,2,0.2,2.9,0.5s1.6,0.8,2.2,1.4L1430.7,566z"/>
			<path class="st7" d="M1343.9,599.2c-0.1,0.2-0.2,0.3-0.3,0.4c-0.1,0.1-0.2,0.1-0.4,0.1c-0.2,0-0.4-0.1-0.6-0.3
				c-0.2-0.2-0.6-0.4-0.9-0.6c-0.4-0.2-0.8-0.4-1.3-0.6c-0.5-0.2-1.1-0.3-1.9-0.3c-0.7,0-1.3,0.1-1.8,0.3c-0.5,0.2-1,0.4-1.3,0.8
				c-0.4,0.3-0.6,0.7-0.8,1.1s-0.3,0.9-0.3,1.4c0,0.6,0.2,1.2,0.5,1.6s0.7,0.8,1.2,1.1c0.5,0.3,1.1,0.6,1.8,0.8
				c0.7,0.2,1.3,0.4,2,0.7c0.7,0.2,1.4,0.5,2,0.8s1.2,0.7,1.8,1.1c0.5,0.4,0.9,1,1.2,1.6s0.5,1.5,0.5,2.4c0,1-0.2,1.9-0.5,2.8
				c-0.3,0.9-0.8,1.6-1.5,2.3c-0.7,0.7-1.5,1.2-2.4,1.5c-1,0.4-2,0.6-3.3,0.6c-1.5,0-2.8-0.3-4.1-0.8c-1.2-0.5-2.3-1.3-3.1-2.2
				l0.9-1.5c0.1-0.1,0.2-0.2,0.3-0.3s0.3-0.1,0.4-0.1c0.1,0,0.3,0.1,0.5,0.2c0.2,0.1,0.4,0.3,0.6,0.4c0.2,0.2,0.5,0.4,0.8,0.6
				c0.3,0.2,0.6,0.4,1,0.6c0.4,0.2,0.8,0.3,1.3,0.4c0.5,0.1,1,0.2,1.6,0.2c0.7,0,1.4-0.1,2-0.3c0.6-0.2,1.1-0.5,1.5-0.9
				s0.7-0.8,0.9-1.3c0.2-0.5,0.3-1.1,0.3-1.7c0-0.7-0.2-1.3-0.5-1.7c-0.3-0.4-0.7-0.8-1.2-1.1c-0.5-0.3-1.1-0.6-1.8-0.8
				c-0.7-0.2-1.3-0.4-2-0.6c-0.7-0.2-1.4-0.5-2-0.8c-0.7-0.3-1.2-0.7-1.8-1.1c-0.5-0.5-0.9-1-1.2-1.7c-0.3-0.7-0.5-1.5-0.5-2.6
				c0-0.8,0.2-1.6,0.5-2.4s0.8-1.4,1.4-2c0.6-0.6,1.3-1.1,2.2-1.4c0.9-0.4,1.9-0.5,3-0.5c1.3,0,2.4,0.2,3.5,0.6c1.1,0.4,2,1,2.8,1.8
				L1343.9,599.2z"/>
			<path class="st7" d="M1353.2,618.8c-1.3,0-2.3-0.4-3-1.1c-0.7-0.7-1-1.7-1-3.1v-9.9h-2c-0.2,0-0.3,0-0.4-0.2
				c-0.1-0.1-0.2-0.3-0.2-0.5V603l2.7-0.3l0.7-5c0-0.2,0.1-0.3,0.2-0.4c0.1-0.1,0.3-0.2,0.4-0.2h1.4v5.6h4.7v2.1h-4.7v9.7
				c0,0.7,0.2,1.2,0.5,1.5c0.3,0.3,0.8,0.5,1.3,0.5c0.3,0,0.6,0,0.8-0.1s0.4-0.2,0.6-0.3c0.2-0.1,0.3-0.2,0.4-0.3s0.2-0.1,0.3-0.1
				c0.1,0,0.3,0.1,0.4,0.3l0.8,1.4c-0.5,0.5-1.1,0.8-1.8,1.1C1354.6,618.7,1353.9,618.8,1353.2,618.8z"/>
			<path class="st7" d="M1359.2,604.6c0.9-0.9,1.9-1.5,2.9-1.9c1-0.4,2.2-0.6,3.4-0.6c0.9,0,1.7,0.2,2.4,0.4
				c0.7,0.3,1.3,0.7,1.8,1.2s0.8,1.2,1.1,1.9s0.4,1.6,0.4,2.5v10.4h-1.3c-0.3,0-0.5,0-0.6-0.1s-0.3-0.3-0.4-0.5l-0.3-1.5
				c-0.4,0.4-0.8,0.7-1.2,1c-0.4,0.3-0.8,0.6-1.3,0.8c-0.4,0.2-0.9,0.4-1.4,0.5c-0.5,0.1-1.1,0.2-1.7,0.2c-0.6,0-1.2-0.1-1.8-0.3
				s-1-0.4-1.4-0.8c-0.4-0.4-0.7-0.8-1-1.3c-0.2-0.5-0.4-1.2-0.4-1.9c0-0.6,0.2-1.3,0.5-1.8c0.4-0.6,0.9-1.1,1.7-1.6
				c0.8-0.5,1.8-0.8,3.1-1.1c1.3-0.3,2.8-0.5,4.7-0.5v-1.3c0-1.3-0.3-2.2-0.8-2.9c-0.5-0.6-1.3-1-2.4-1c-0.7,0-1.3,0.1-1.8,0.3
				s-0.9,0.4-1.2,0.6s-0.6,0.4-0.9,0.6c-0.2,0.2-0.5,0.3-0.7,0.3c-0.2,0-0.4,0-0.5-0.2c-0.1-0.1-0.3-0.2-0.4-0.4L1359.2,604.6z
				 M1368.4,611.3c-1.3,0-2.4,0.1-3.4,0.3c-0.9,0.2-1.7,0.4-2.3,0.6c-0.6,0.3-1,0.6-1.3,0.9s-0.4,0.8-0.4,1.2c0,0.4,0.1,0.8,0.2,1.1
				s0.3,0.6,0.6,0.8c0.2,0.2,0.5,0.3,0.8,0.4c0.3,0.1,0.7,0.1,1,0.1c0.5,0,1,0,1.4-0.2c0.4-0.1,0.8-0.2,1.2-0.4
				c0.4-0.2,0.7-0.4,1.1-0.7s0.7-0.6,1-0.9V611.3z"/>
			<path class="st7" d="M1390.4,618.5h-2.8v-13.8h-8.4v9.7c0,0.7,0.2,1.2,0.5,1.5c0.3,0.3,0.8,0.5,1.3,0.5c0.3,0,0.6,0,0.8-0.1
				s0.4-0.2,0.6-0.3c0.2-0.1,0.3-0.2,0.4-0.3s0.2-0.1,0.3-0.1c0.1,0,0.3,0.1,0.4,0.3l0.8,1.4c-0.5,0.5-1.1,0.8-1.8,1.1
				c-0.7,0.3-1.4,0.4-2.1,0.4c-1.3,0-2.3-0.4-3-1.1c-0.7-0.7-1-1.7-1-3.1v-9.9h-2c-0.2,0-0.3,0-0.4-0.2c-0.1-0.1-0.2-0.3-0.2-0.5
				V603l2.7-0.4l0.7-5c0-0.2,0.1-0.3,0.2-0.4c0.1-0.1,0.3-0.2,0.4-0.2h1.4v5.6h11.2V618.5z M1391.1,597.1c0,0.3-0.1,0.5-0.2,0.8
				c-0.1,0.2-0.3,0.5-0.4,0.6c-0.2,0.2-0.4,0.3-0.6,0.4c-0.2,0.1-0.5,0.2-0.8,0.2s-0.5-0.1-0.8-0.2c-0.2-0.1-0.5-0.3-0.6-0.4
				c-0.2-0.2-0.3-0.4-0.4-0.6c-0.1-0.2-0.2-0.5-0.2-0.8c0-0.3,0.1-0.5,0.2-0.8c0.1-0.3,0.2-0.5,0.4-0.7s0.4-0.3,0.6-0.4
				c0.2-0.1,0.5-0.2,0.8-0.2s0.5,0.1,0.8,0.2c0.2,0.1,0.5,0.3,0.6,0.4s0.3,0.4,0.4,0.7C1391,596.6,1391.1,596.9,1391.1,597.1z"/>
			<path class="st7" d="M1404.5,605c-0.1,0.2-0.3,0.4-0.6,0.4c-0.2,0-0.3-0.1-0.5-0.2c-0.2-0.1-0.5-0.2-0.7-0.4
				c-0.3-0.1-0.6-0.3-1-0.4c-0.4-0.1-0.9-0.2-1.4-0.2c-0.5,0-0.9,0.1-1.3,0.2s-0.7,0.3-1,0.5s-0.5,0.5-0.6,0.7s-0.2,0.6-0.2,0.9
				c0,0.4,0.1,0.8,0.4,1s0.6,0.5,1,0.7s0.8,0.4,1.3,0.5c0.5,0.2,1,0.3,1.5,0.5c0.5,0.2,1,0.4,1.5,0.6s0.9,0.5,1.3,0.8
				c0.4,0.3,0.7,0.7,1,1.2c0.2,0.5,0.4,1,0.4,1.7c0,0.7-0.1,1.4-0.4,2.1c-0.3,0.6-0.7,1.2-1.2,1.6c-0.5,0.5-1.2,0.8-1.9,1.1
				c-0.8,0.3-1.6,0.4-2.6,0.4c-1.1,0-2.2-0.2-3.1-0.6c-0.9-0.4-1.7-0.8-2.3-1.4l0.7-1.1c0.1-0.1,0.2-0.2,0.3-0.3s0.3-0.1,0.4-0.1
				c0.2,0,0.4,0.1,0.6,0.2c0.2,0.2,0.5,0.3,0.8,0.5s0.7,0.3,1.1,0.5c0.4,0.1,1,0.2,1.6,0.2c0.6,0,1-0.1,1.5-0.2
				c0.4-0.1,0.8-0.3,1-0.6c0.3-0.2,0.5-0.5,0.6-0.8c0.1-0.3,0.2-0.7,0.2-1c0-0.4-0.1-0.8-0.4-1.1c-0.2-0.3-0.6-0.5-1-0.8
				c-0.4-0.2-0.8-0.4-1.4-0.5c-0.5-0.2-1-0.3-1.6-0.5c-0.5-0.2-1-0.4-1.6-0.6c-0.5-0.2-1-0.5-1.4-0.8c-0.4-0.3-0.7-0.7-1-1.2
				c-0.2-0.5-0.4-1.1-0.4-1.8c0-0.6,0.1-1.2,0.4-1.8c0.3-0.6,0.6-1.1,1.1-1.5c0.5-0.4,1.1-0.8,1.8-1c0.7-0.3,1.5-0.4,2.4-0.4
				c1.1,0,2,0.2,2.9,0.5c0.8,0.3,1.6,0.8,2.2,1.4L1404.5,605z"/>
			<path class="st7" d="M1424,618.5h-2.8v-13.8h-8.4v9.7c0,0.7,0.2,1.2,0.5,1.5c0.3,0.3,0.8,0.5,1.3,0.5c0.3,0,0.6,0,0.8-0.1
				s0.4-0.2,0.6-0.3c0.2-0.1,0.3-0.2,0.4-0.3c0.1-0.1,0.2-0.1,0.3-0.1c0.2,0,0.3,0.1,0.4,0.3l0.8,1.4c-0.5,0.5-1.1,0.8-1.8,1.1
				c-0.7,0.3-1.4,0.4-2.1,0.4c-1.3,0-2.3-0.4-3-1.1c-0.7-0.7-1-1.7-1-3.1v-9.9h-2c-0.2,0-0.3,0-0.4-0.2c-0.1-0.1-0.2-0.3-0.2-0.5
				V603l2.7-0.4l0.7-5c0-0.2,0.1-0.3,0.2-0.4c0.1-0.1,0.3-0.2,0.4-0.2h1.4v5.6h11.2V618.5z M1424.7,597.1c0,0.3-0.1,0.5-0.2,0.8
				c-0.1,0.2-0.3,0.5-0.4,0.6c-0.2,0.2-0.4,0.3-0.6,0.4c-0.2,0.1-0.5,0.2-0.8,0.2c-0.3,0-0.5-0.1-0.8-0.2c-0.2-0.1-0.5-0.3-0.6-0.4
				c-0.2-0.2-0.3-0.4-0.4-0.6c-0.1-0.2-0.2-0.5-0.2-0.8c0-0.3,0.1-0.5,0.2-0.8c0.1-0.3,0.3-0.5,0.4-0.7c0.2-0.2,0.4-0.3,0.6-0.4
				c0.2-0.1,0.5-0.2,0.8-0.2c0.3,0,0.5,0.1,0.8,0.2c0.2,0.1,0.5,0.3,0.6,0.4c0.2,0.2,0.3,0.4,0.4,0.7
				C1424.6,596.6,1424.7,596.9,1424.7,597.1z"/>
			<path class="st7" d="M1439.9,605.2c-0.1,0.1-0.2,0.2-0.3,0.3s-0.2,0.1-0.4,0.1c-0.2,0-0.3-0.1-0.5-0.2c-0.2-0.1-0.4-0.3-0.7-0.4
				s-0.6-0.3-1-0.4c-0.4-0.1-0.9-0.2-1.5-0.2c-0.8,0-1.5,0.1-2.1,0.4s-1.1,0.7-1.5,1.2c-0.4,0.5-0.7,1.2-0.9,1.9s-0.3,1.6-0.3,2.5
				c0,1,0.1,1.9,0.3,2.6c0.2,0.8,0.5,1.4,1,1.9c0.4,0.5,0.9,0.9,1.5,1.2c0.6,0.3,1.2,0.4,2,0.4c0.7,0,1.3-0.1,1.7-0.2
				c0.4-0.2,0.8-0.3,1.1-0.6s0.5-0.4,0.7-0.6c0.2-0.2,0.4-0.2,0.6-0.2c0.2,0,0.4,0.1,0.5,0.3l0.8,1c-0.4,0.4-0.8,0.8-1.2,1.1
				c-0.4,0.3-0.9,0.6-1.4,0.8c-0.5,0.2-1.1,0.4-1.6,0.5c-0.6,0.1-1.1,0.1-1.7,0.1c-1,0-2-0.2-2.8-0.6c-0.9-0.4-1.6-0.9-2.3-1.6
				c-0.6-0.7-1.1-1.6-1.5-2.6c-0.4-1-0.5-2.2-0.5-3.5c0-1.2,0.2-2.3,0.5-3.3c0.3-1,0.8-1.9,1.5-2.6c0.6-0.7,1.4-1.3,2.4-1.7
				c0.9-0.4,2-0.6,3.3-0.6c1.1,0,2.1,0.2,3,0.6c0.9,0.4,1.6,0.9,2.3,1.6L1439.9,605.2z"/>
			<path class="st7" d="M1453.4,605c-0.1,0.2-0.3,0.4-0.6,0.4c-0.2,0-0.3-0.1-0.5-0.2c-0.2-0.1-0.5-0.2-0.7-0.4
				c-0.3-0.1-0.6-0.3-1-0.4c-0.4-0.1-0.9-0.2-1.4-0.2c-0.5,0-0.9,0.1-1.3,0.2s-0.7,0.3-1,0.5s-0.5,0.5-0.6,0.7s-0.2,0.6-0.2,0.9
				c0,0.4,0.1,0.8,0.4,1s0.6,0.5,1,0.7s0.8,0.4,1.3,0.5c0.5,0.2,1,0.3,1.5,0.5c0.5,0.2,1,0.4,1.5,0.6s0.9,0.5,1.3,0.8
				c0.4,0.3,0.7,0.7,1,1.2c0.2,0.5,0.4,1,0.4,1.7c0,0.7-0.1,1.4-0.4,2.1c-0.3,0.6-0.7,1.2-1.2,1.6c-0.5,0.5-1.2,0.8-1.9,1.1
				c-0.8,0.3-1.6,0.4-2.6,0.4c-1.1,0-2.2-0.2-3.1-0.6c-0.9-0.4-1.7-0.8-2.3-1.4l0.7-1.1c0.1-0.1,0.2-0.2,0.3-0.3s0.3-0.1,0.4-0.1
				c0.2,0,0.4,0.1,0.6,0.2c0.2,0.2,0.5,0.3,0.8,0.5s0.7,0.3,1.1,0.5c0.4,0.1,1,0.2,1.6,0.2c0.6,0,1-0.1,1.5-0.2
				c0.4-0.1,0.8-0.3,1-0.6c0.3-0.2,0.5-0.5,0.6-0.8c0.1-0.3,0.2-0.7,0.2-1c0-0.4-0.1-0.8-0.4-1.1c-0.2-0.3-0.6-0.5-1-0.8
				c-0.4-0.2-0.8-0.4-1.4-0.5c-0.5-0.2-1-0.3-1.6-0.5c-0.5-0.2-1-0.4-1.6-0.6c-0.5-0.2-1-0.5-1.4-0.8c-0.4-0.3-0.7-0.7-1-1.2
				c-0.2-0.5-0.4-1.1-0.4-1.8c0-0.6,0.1-1.2,0.4-1.8c0.3-0.6,0.6-1.1,1.1-1.5c0.5-0.4,1.1-0.8,1.8-1c0.7-0.3,1.5-0.4,2.4-0.4
				c1.1,0,2,0.2,2.9,0.5c0.8,0.3,1.6,0.8,2.2,1.4L1453.4,605z"/>
			<path class="st7" d="M1358.9,652.8c0.2,0,0.3,0.1,0.4,0.2l1.2,1.3c-0.9,1.1-2.1,1.9-3.4,2.5c-1.3,0.6-3,0.9-4.9,0.9
				c-1.6,0-3.1-0.3-4.5-0.9c-1.3-0.6-2.5-1.4-3.4-2.4c-1-1-1.7-2.3-2.2-3.7c-0.5-1.4-0.8-3-0.8-4.8c0-1.7,0.3-3.3,0.8-4.8
				c0.5-1.4,1.3-2.7,2.3-3.7c1-1,2.2-1.8,3.5-2.4c1.4-0.6,2.9-0.9,4.6-0.9c1.6,0,3.1,0.3,4.3,0.8s2.3,1.2,3.3,2.1l-1,1.4
				c-0.1,0.1-0.1,0.2-0.2,0.3c-0.1,0.1-0.2,0.1-0.4,0.1c-0.2,0-0.4-0.1-0.7-0.3c-0.3-0.2-0.6-0.4-1.1-0.7c-0.4-0.3-1-0.5-1.7-0.7
				c-0.7-0.2-1.5-0.3-2.5-0.3c-1.2,0-2.3,0.2-3.2,0.6c-1,0.4-1.8,1-2.5,1.8c-0.7,0.8-1.3,1.7-1.7,2.8c-0.4,1.1-0.6,2.4-0.6,3.8
				c0,1.4,0.2,2.7,0.6,3.8c0.4,1.1,1,2.1,1.7,2.8s1.5,1.4,2.5,1.8c1,0.4,2,0.6,3.1,0.6c0.7,0,1.3,0,1.8-0.1c0.5-0.1,1.1-0.2,1.5-0.4
				c0.5-0.2,0.9-0.4,1.3-0.6c0.4-0.3,0.8-0.6,1.2-0.9C1358.6,652.9,1358.8,652.8,1358.9,652.8z"/>
			<path class="st7" d="M1370.1,641.1c1.2,0,2.2,0.2,3.2,0.6c0.9,0.4,1.8,1,2.4,1.7c0.7,0.7,1.2,1.6,1.5,2.6c0.4,1,0.5,2.2,0.5,3.4
				c0,1.3-0.2,2.4-0.5,3.5s-0.9,1.9-1.5,2.6c-0.7,0.7-1.5,1.3-2.4,1.7c-1,0.4-2,0.6-3.2,0.6c-1.2,0-2.3-0.2-3.2-0.6
				c-1-0.4-1.8-0.9-2.4-1.7c-0.7-0.7-1.2-1.6-1.5-2.6s-0.5-2.2-0.5-3.5c0-1.3,0.2-2.4,0.5-3.4c0.4-1,0.9-1.9,1.5-2.6
				s1.5-1.3,2.4-1.7C1367.8,641.3,1368.9,641.1,1370.1,641.1z M1370.1,655.5c1.6,0,2.8-0.5,3.6-1.6s1.2-2.6,1.2-4.5
				c0-1.9-0.4-3.4-1.2-4.5c-0.8-1.1-2-1.6-3.6-1.6c-0.8,0-1.5,0.1-2.1,0.4c-0.6,0.3-1.1,0.7-1.5,1.2s-0.7,1.2-0.9,1.9
				c-0.2,0.8-0.3,1.6-0.3,2.6c0,1.9,0.4,3.4,1.2,4.5S1368.4,655.5,1370.1,655.5z"/>
			<path class="st7" d="M1384.1,643.7c0.4-0.4,0.7-0.8,1.1-1.1s0.8-0.6,1.3-0.8c0.4-0.2,0.9-0.4,1.4-0.5s1-0.2,1.6-0.2
				c0.9,0,1.7,0.1,2.3,0.4c0.7,0.3,1.2,0.7,1.7,1.2s0.8,1.2,1,1.9c0.2,0.8,0.4,1.6,0.4,2.5v10.3h-2.9v-10.3c0-1.2-0.3-2.2-0.8-2.9
				c-0.6-0.7-1.4-1-2.6-1c-0.8,0-1.6,0.2-2.4,0.6c-0.7,0.4-1.4,1-2,1.6v11.9h-2.9v-16.2h1.7c0.4,0,0.7,0.2,0.8,0.6L1384.1,643.7z"/>
			<path class="st7" d="M1404,657.8c-1.3,0-2.3-0.4-3-1.1c-0.7-0.7-1-1.7-1-3.1v-9.9h-2c-0.2,0-0.3,0-0.4-0.2
				c-0.1-0.1-0.2-0.3-0.2-0.5V642l2.7-0.3l0.7-5c0-0.2,0.1-0.3,0.2-0.4c0.1-0.1,0.3-0.2,0.4-0.2h1.4v5.6h4.7v2.1h-4.7v9.7
				c0,0.7,0.2,1.2,0.5,1.5c0.3,0.3,0.8,0.5,1.3,0.5c0.3,0,0.6,0,0.8-0.1s0.4-0.2,0.6-0.3c0.2-0.1,0.3-0.2,0.4-0.3
				c0.1-0.1,0.2-0.1,0.3-0.1c0.2,0,0.3,0.1,0.4,0.3l0.8,1.4c-0.5,0.5-1.1,0.8-1.8,1.1C1405.4,657.7,1404.7,657.8,1404,657.8z"/>
			<path class="st7" d="M1413.2,644.6c0.5-1.1,1.1-2,1.9-2.6c0.7-0.6,1.7-0.9,2.7-0.9c0.3,0,0.7,0,1,0.1c0.3,0.1,0.6,0.2,0.8,0.4
				l-0.2,2.1c-0.1,0.3-0.2,0.4-0.5,0.4c-0.1,0-0.4,0-0.7-0.1s-0.6-0.1-1-0.1c-0.5,0-1,0.1-1.4,0.2c-0.4,0.1-0.8,0.4-1.1,0.7
				c-0.3,0.3-0.6,0.7-0.8,1.1c-0.2,0.4-0.5,0.9-0.7,1.5v10.2h-2.9v-16.2h1.6c0.3,0,0.5,0.1,0.6,0.2s0.2,0.3,0.2,0.6L1413.2,644.6z"
				/>
			<path class="st7" d="M1428.3,641.1c1.2,0,2.2,0.2,3.2,0.6s1.8,1,2.4,1.7c0.7,0.7,1.2,1.6,1.5,2.6c0.4,1,0.5,2.2,0.5,3.4
				c0,1.3-0.2,2.4-0.5,3.5s-0.9,1.9-1.5,2.6c-0.7,0.7-1.5,1.3-2.4,1.7s-2,0.6-3.2,0.6c-1.2,0-2.3-0.2-3.2-0.6s-1.8-0.9-2.4-1.7
				c-0.7-0.7-1.2-1.6-1.5-2.6s-0.5-2.2-0.5-3.5c0-1.3,0.2-2.4,0.5-3.4c0.4-1,0.9-1.9,1.5-2.6s1.5-1.3,2.4-1.7
				S1427.1,641.1,1428.3,641.1z M1428.3,655.5c1.6,0,2.8-0.5,3.6-1.6c0.8-1.1,1.2-2.6,1.2-4.5c0-1.9-0.4-3.4-1.2-4.5
				c-0.8-1.1-2-1.6-3.6-1.6c-0.8,0-1.5,0.1-2.1,0.4c-0.6,0.3-1.1,0.7-1.5,1.2c-0.4,0.5-0.7,1.2-0.9,1.9c-0.2,0.8-0.3,1.6-0.3,2.6
				c0,1.9,0.4,3.4,1.2,4.5C1425.5,655,1426.7,655.5,1428.3,655.5z"/>
			<path class="st7" d="M1442.5,634v23.6h-2.8V634H1442.5z"/>
		</g>
	</g>
	<g>
		<g id="LvGdj0_1_">
			
				<image style="overflow:visible;enable-background:new    ;" width="170" height="359" id="LvGdj0" xlink:href="img/1DB93F7BCE0D78DD.jpg"  transform="matrix(3.974163e-17 -0.649 0.649 3.974163e-17 419.874 659.1396)">
			</image>
		</g>
		<g>
			<path class="st7" d="M510.4,577.4c-0.1,0.2-0.2,0.3-0.3,0.4s-0.2,0.1-0.4,0.1c-0.2,0-0.4-0.1-0.6-0.3c-0.2-0.2-0.6-0.4-0.9-0.6
				c-0.4-0.2-0.8-0.4-1.3-0.6c-0.5-0.2-1.1-0.3-1.9-0.3c-0.7,0-1.3,0.1-1.8,0.3c-0.5,0.2-1,0.4-1.3,0.8c-0.4,0.3-0.6,0.7-0.8,1.1
				c-0.2,0.4-0.3,0.9-0.3,1.4c0,0.6,0.2,1.2,0.5,1.6c0.3,0.4,0.7,0.8,1.2,1.1s1.1,0.6,1.8,0.8s1.3,0.4,2,0.7c0.7,0.2,1.4,0.5,2,0.8
				c0.7,0.3,1.2,0.7,1.8,1.1c0.5,0.4,0.9,1,1.2,1.6c0.3,0.7,0.5,1.5,0.5,2.4c0,1-0.2,1.9-0.5,2.8c-0.3,0.9-0.8,1.6-1.5,2.3
				c-0.7,0.7-1.5,1.2-2.4,1.5s-2,0.6-3.3,0.6c-1.5,0-2.8-0.3-4.1-0.8c-1.2-0.5-2.3-1.3-3.1-2.2l0.9-1.5c0.1-0.1,0.2-0.2,0.3-0.3
				c0.1-0.1,0.3-0.1,0.4-0.1c0.1,0,0.3,0.1,0.5,0.2s0.4,0.3,0.6,0.4c0.2,0.2,0.5,0.4,0.8,0.6s0.6,0.4,1,0.6c0.4,0.2,0.8,0.3,1.3,0.4
				c0.5,0.1,1,0.2,1.6,0.2c0.7,0,1.4-0.1,2-0.3s1.1-0.5,1.5-0.9c0.4-0.4,0.7-0.8,0.9-1.3s0.3-1.1,0.3-1.7c0-0.7-0.2-1.3-0.5-1.7
				c-0.3-0.4-0.7-0.8-1.2-1.1c-0.5-0.3-1.1-0.6-1.8-0.8c-0.7-0.2-1.3-0.4-2-0.6s-1.4-0.5-2-0.8c-0.7-0.3-1.2-0.7-1.8-1.1
				c-0.5-0.5-0.9-1-1.2-1.7s-0.5-1.5-0.5-2.6c0-0.8,0.2-1.6,0.5-2.4c0.3-0.8,0.8-1.4,1.4-2c0.6-0.6,1.3-1.1,2.2-1.4
				c0.9-0.4,1.9-0.5,3-0.5c1.3,0,2.4,0.2,3.5,0.6s2,1,2.8,1.8L510.4,577.4z"/>
			<path class="st7" d="M518,573.2v23.6h-2.8v-23.6H518z"/>
			<path class="st7" d="M526.3,575.5c0,0.3-0.1,0.5-0.2,0.8c-0.1,0.2-0.3,0.5-0.4,0.6c-0.2,0.2-0.4,0.3-0.7,0.4
				c-0.3,0.1-0.5,0.2-0.8,0.2c-0.3,0-0.5-0.1-0.8-0.2c-0.2-0.1-0.5-0.3-0.6-0.4c-0.2-0.2-0.3-0.4-0.4-0.6c-0.1-0.2-0.2-0.5-0.2-0.8
				s0.1-0.5,0.2-0.8c0.1-0.3,0.3-0.5,0.4-0.7c0.2-0.2,0.4-0.3,0.6-0.4c0.2-0.1,0.5-0.2,0.8-0.2c0.3,0,0.5,0.1,0.8,0.2
				c0.2,0.1,0.5,0.3,0.7,0.4c0.2,0.2,0.3,0.4,0.4,0.7C526.2,574.9,526.3,575.2,526.3,575.5z M525.6,580.6v16.2h-2.8v-16.2H525.6z"/>
			<path class="st7" d="M543.7,573.2v23.6H542c-0.4,0-0.7-0.2-0.8-0.6l-0.3-2c-0.7,0.8-1.5,1.5-2.4,2c-0.9,0.5-1.9,0.8-3.1,0.8
				c-0.9,0-1.8-0.2-2.5-0.5c-0.8-0.4-1.4-0.9-1.9-1.6s-0.9-1.6-1.2-2.6c-0.3-1-0.4-2.2-0.4-3.6c0-1.2,0.2-2.3,0.5-3.3
				s0.8-1.9,1.4-2.7c0.6-0.8,1.3-1.4,2.2-1.8c0.9-0.4,1.8-0.6,2.9-0.6c1,0,1.8,0.2,2.6,0.5c0.7,0.3,1.3,0.8,1.9,1.4v-9H543.7z
				 M540.9,584.4c-0.5-0.7-1.1-1.2-1.7-1.5c-0.6-0.3-1.3-0.4-2.1-0.4c-1.5,0-2.7,0.5-3.5,1.6c-0.8,1.1-1.2,2.6-1.2,4.6
				c0,1.1,0.1,2,0.3,2.7s0.4,1.4,0.8,1.9c0.4,0.5,0.8,0.8,1.3,1.1s1.1,0.3,1.7,0.3c0.9,0,1.8-0.2,2.5-0.6c0.7-0.4,1.3-1,1.9-1.8
				V584.4z"/>
			<path class="st7" d="M561.4,594.5c-0.4,0.4-0.8,0.8-1.3,1.1c-0.5,0.3-1,0.6-1.6,0.8s-1.1,0.4-1.7,0.5c-0.6,0.1-1.2,0.2-1.8,0.2
				c-1.1,0-2.2-0.2-3.1-0.6c-0.9-0.4-1.8-0.9-2.4-1.7s-1.2-1.6-1.6-2.7c-0.4-1.1-0.6-2.3-0.6-3.7c0-1.1,0.2-2.2,0.5-3.2
				c0.3-1,0.8-1.8,1.5-2.6c0.7-0.7,1.4-1.3,2.4-1.7c0.9-0.4,2-0.6,3.2-0.6c1,0,1.9,0.2,2.7,0.5c0.8,0.3,1.5,0.8,2.1,1.4
				s1.1,1.4,1.4,2.3s0.5,1.9,0.5,3.1c0,0.4,0,0.7-0.1,0.9c-0.1,0.1-0.3,0.2-0.5,0.2h-10.8c0,1,0.2,1.9,0.4,2.7s0.6,1.4,1,1.9
				c0.4,0.5,1,0.9,1.6,1.1c0.6,0.2,1.3,0.4,2.1,0.4c0.7,0,1.3-0.1,1.8-0.2c0.5-0.2,1-0.3,1.3-0.5c0.4-0.2,0.7-0.4,0.9-0.5
				c0.2-0.2,0.5-0.2,0.6-0.2c0.2,0,0.4,0.1,0.5,0.3L561.4,594.5z M559.1,586.9c0-0.7-0.1-1.3-0.3-1.8c-0.2-0.5-0.5-1-0.8-1.4
				s-0.8-0.7-1.3-0.9s-1.1-0.3-1.7-0.3c-1.4,0-2.4,0.4-3.2,1.2c-0.8,0.8-1.3,1.9-1.5,3.3H559.1z"/>
			<path class="st7" d="M574.6,583.2c-0.1,0.2-0.3,0.4-0.6,0.4c-0.2,0-0.3-0.1-0.5-0.2c-0.2-0.1-0.5-0.2-0.7-0.4
				c-0.3-0.1-0.6-0.3-1-0.4c-0.4-0.1-0.9-0.2-1.4-0.2c-0.5,0-0.9,0.1-1.3,0.2c-0.4,0.1-0.7,0.3-1,0.5c-0.3,0.2-0.5,0.5-0.6,0.7
				c-0.1,0.3-0.2,0.6-0.2,0.9c0,0.4,0.1,0.8,0.4,1c0.2,0.3,0.6,0.5,1,0.7c0.4,0.2,0.8,0.4,1.3,0.5c0.5,0.2,1,0.3,1.5,0.5
				s1,0.4,1.5,0.6c0.5,0.2,0.9,0.5,1.3,0.8s0.7,0.7,1,1.2c0.2,0.5,0.4,1,0.4,1.7c0,0.7-0.1,1.4-0.4,2.1s-0.7,1.2-1.2,1.6
				c-0.5,0.5-1.2,0.8-1.9,1.1c-0.8,0.3-1.6,0.4-2.6,0.4c-1.1,0-2.2-0.2-3.1-0.6c-0.9-0.4-1.7-0.8-2.3-1.4l0.7-1.1
				c0.1-0.1,0.2-0.2,0.3-0.3s0.3-0.1,0.4-0.1c0.2,0,0.4,0.1,0.6,0.2c0.2,0.1,0.5,0.3,0.8,0.5c0.3,0.2,0.7,0.3,1.1,0.5
				c0.4,0.2,1,0.2,1.6,0.2c0.6,0,1-0.1,1.5-0.2s0.8-0.3,1-0.6s0.5-0.5,0.6-0.8c0.1-0.3,0.2-0.7,0.2-1c0-0.4-0.1-0.8-0.4-1.1
				c-0.2-0.3-0.6-0.5-1-0.8s-0.8-0.4-1.4-0.5c-0.5-0.2-1-0.3-1.6-0.5c-0.5-0.2-1-0.4-1.6-0.6s-1-0.5-1.4-0.8c-0.4-0.3-0.7-0.7-1-1.2
				s-0.4-1.1-0.4-1.8c0-0.6,0.1-1.2,0.4-1.8s0.6-1.1,1.1-1.5s1.1-0.8,1.8-1s1.5-0.4,2.4-0.4c1.1,0,2,0.2,2.9,0.5s1.6,0.8,2.2,1.4
				L574.6,583.2z"/>
			<path class="st7" d="M489.7,640.5h-2.6c-0.4,0-0.7-0.1-1-0.2s-0.6-0.3-0.8-0.6l-4-4.4c-1.2,0.4-2.5,0.6-4,0.6
				c-1.7,0-3.2-0.3-4.6-0.9s-2.6-1.4-3.6-2.4c-1-1-1.8-2.3-2.3-3.7c-0.5-1.4-0.8-3-0.8-4.7c0-1.7,0.3-3.3,0.8-4.7
				c0.5-1.4,1.3-2.7,2.3-3.7c1-1,2.2-1.8,3.6-2.4c1.4-0.6,2.9-0.9,4.6-0.9s3.2,0.3,4.6,0.9c1.4,0.6,2.6,1.4,3.6,2.4
				c1,1,1.8,2.3,2.3,3.7c0.5,1.4,0.8,3,0.8,4.7c0,1.1-0.1,2.1-0.3,3.1s-0.5,1.9-1,2.7s-0.9,1.6-1.5,2.3c-0.6,0.7-1.3,1.3-2,1.8
				L489.7,640.5z M469.2,624.3c0,1.4,0.2,2.7,0.6,3.8c0.4,1.1,0.9,2.1,1.6,2.8c0.7,0.8,1.6,1.4,2.6,1.8c1,0.4,2.1,0.6,3.3,0.6
				c1.2,0,2.4-0.2,3.4-0.6c1-0.4,1.9-1,2.6-1.8c0.7-0.8,1.2-1.7,1.6-2.8s0.6-2.4,0.6-3.8s-0.2-2.7-0.6-3.8s-0.9-2.1-1.6-2.8
				c-0.7-0.8-1.6-1.4-2.6-1.8c-1-0.4-2.1-0.6-3.4-0.6c-1.2,0-2.3,0.2-3.3,0.6c-1,0.4-1.9,1-2.6,1.8c-0.7,0.8-1.3,1.7-1.6,2.8
				C469.4,621.7,469.2,622.9,469.2,624.3z"/>
			<path class="st7" d="M505.4,619.6v16.2h-1.7c-0.4,0-0.7-0.2-0.8-0.6l-0.2-1.7c-0.7,0.8-1.5,1.4-2.4,1.9c-0.9,0.5-1.9,0.7-3,0.7
				c-0.9,0-1.7-0.1-2.3-0.4c-0.7-0.3-1.2-0.7-1.7-1.2s-0.8-1.2-1-1.9c-0.2-0.8-0.3-1.6-0.3-2.5v-10.3h2.8v10.3
				c0,1.2,0.3,2.2,0.8,2.8s1.4,1,2.6,1c0.8,0,1.6-0.2,2.4-0.6s1.4-1,2-1.7v-11.9H505.4z"/>
			<path class="st7" d="M523.1,633.5c-0.4,0.4-0.8,0.8-1.3,1.1c-0.5,0.3-1,0.6-1.6,0.8c-0.6,0.2-1.1,0.4-1.7,0.5
				c-0.6,0.1-1.2,0.2-1.8,0.2c-1.1,0-2.2-0.2-3.1-0.6c-0.9-0.4-1.8-0.9-2.4-1.7c-0.7-0.7-1.2-1.6-1.6-2.7c-0.4-1.1-0.6-2.3-0.6-3.7
				c0-1.1,0.2-2.2,0.5-3.2c0.3-1,0.8-1.8,1.5-2.6c0.7-0.7,1.4-1.3,2.4-1.7c0.9-0.4,2-0.6,3.2-0.6c1,0,1.9,0.2,2.7,0.5
				c0.8,0.3,1.5,0.8,2.1,1.4c0.6,0.6,1.1,1.4,1.4,2.3c0.3,0.9,0.5,1.9,0.5,3.1c0,0.4,0,0.7-0.1,0.9c-0.1,0.1-0.3,0.2-0.5,0.2h-10.8
				c0,1,0.2,1.9,0.4,2.7c0.3,0.8,0.6,1.4,1,1.9c0.4,0.5,1,0.9,1.6,1.1c0.6,0.2,1.3,0.4,2.1,0.4c0.7,0,1.3-0.1,1.8-0.2
				c0.5-0.2,1-0.3,1.3-0.5c0.4-0.2,0.7-0.4,0.9-0.5s0.5-0.2,0.6-0.2c0.2,0,0.4,0.1,0.5,0.3L523.1,633.5z M520.8,625.9
				c0-0.7-0.1-1.3-0.3-1.8c-0.2-0.5-0.5-1-0.8-1.4s-0.8-0.7-1.3-0.9s-1.1-0.3-1.7-0.3c-1.4,0-2.4,0.4-3.2,1.2
				c-0.8,0.8-1.3,1.9-1.5,3.3H520.8z"/>
			<path class="st7" d="M536.3,622.2c-0.1,0.2-0.3,0.4-0.6,0.4c-0.2,0-0.3-0.1-0.5-0.2s-0.5-0.2-0.7-0.4s-0.6-0.3-1-0.4
				c-0.4-0.1-0.9-0.2-1.4-0.2c-0.5,0-0.9,0.1-1.3,0.2c-0.4,0.1-0.7,0.3-1,0.5c-0.3,0.2-0.5,0.5-0.6,0.7c-0.1,0.3-0.2,0.6-0.2,0.9
				c0,0.4,0.1,0.8,0.4,1s0.6,0.5,1,0.7c0.4,0.2,0.8,0.4,1.3,0.5c0.5,0.2,1,0.3,1.5,0.5c0.5,0.2,1,0.4,1.5,0.6
				c0.5,0.2,0.9,0.5,1.3,0.8s0.7,0.7,1,1.2c0.2,0.5,0.4,1,0.4,1.7c0,0.7-0.1,1.4-0.4,2.1c-0.3,0.6-0.7,1.2-1.2,1.6s-1.2,0.8-1.9,1.1
				c-0.8,0.3-1.6,0.4-2.6,0.4c-1.1,0-2.2-0.2-3.1-0.6c-0.9-0.4-1.7-0.8-2.3-1.4l0.7-1.1c0.1-0.1,0.2-0.2,0.3-0.3s0.3-0.1,0.4-0.1
				c0.2,0,0.4,0.1,0.6,0.2s0.5,0.3,0.8,0.5c0.3,0.2,0.7,0.3,1.1,0.5c0.4,0.2,1,0.2,1.6,0.2c0.6,0,1-0.1,1.5-0.2s0.8-0.3,1-0.6
				c0.3-0.2,0.5-0.5,0.6-0.8c0.1-0.3,0.2-0.7,0.2-1c0-0.4-0.1-0.8-0.4-1.1c-0.2-0.3-0.6-0.5-1-0.8s-0.8-0.4-1.4-0.5s-1-0.3-1.6-0.5
				c-0.5-0.2-1-0.4-1.6-0.6c-0.5-0.2-1-0.5-1.4-0.8c-0.4-0.3-0.7-0.7-1-1.2c-0.2-0.5-0.4-1.1-0.4-1.8c0-0.6,0.1-1.2,0.4-1.8
				s0.6-1.1,1.1-1.5c0.5-0.4,1.1-0.8,1.8-1s1.5-0.4,2.4-0.4c1.1,0,2,0.2,2.9,0.5s1.6,0.8,2.2,1.4L536.3,622.2z"/>
			<path class="st7" d="M555.7,635.8h-2.8V622h-8.4v9.7c0,0.7,0.2,1.2,0.5,1.5s0.8,0.5,1.3,0.5c0.3,0,0.6,0,0.8-0.1s0.4-0.2,0.6-0.3
				s0.3-0.2,0.4-0.3s0.2-0.1,0.3-0.1c0.1,0,0.3,0.1,0.4,0.3l0.8,1.4c-0.5,0.5-1.1,0.8-1.8,1.1s-1.4,0.4-2.1,0.4
				c-1.3,0-2.3-0.4-3-1.1c-0.7-0.7-1-1.7-1-3.1V622h-2c-0.2,0-0.3,0-0.4-0.2s-0.2-0.3-0.2-0.5v-1.1l2.7-0.4l0.7-5
				c0-0.2,0.1-0.3,0.2-0.4c0.1-0.1,0.3-0.2,0.4-0.2h1.4v5.6h11.2V635.8z M556.4,614.4c0,0.3-0.1,0.5-0.2,0.8s-0.3,0.5-0.4,0.6
				c-0.2,0.2-0.4,0.3-0.6,0.4c-0.2,0.1-0.5,0.2-0.8,0.2s-0.5-0.1-0.8-0.2c-0.2-0.1-0.5-0.3-0.6-0.4c-0.2-0.2-0.3-0.4-0.4-0.6
				c-0.1-0.2-0.2-0.5-0.2-0.8c0-0.3,0.1-0.5,0.2-0.8c0.1-0.2,0.2-0.5,0.4-0.7c0.2-0.2,0.4-0.3,0.6-0.4c0.2-0.1,0.5-0.2,0.8-0.2
				s0.5,0.1,0.8,0.2c0.2,0.1,0.5,0.3,0.6,0.4c0.2,0.2,0.3,0.4,0.4,0.7C556.4,613.8,556.4,614.1,556.4,614.4z"/>
			<path class="st7" d="M567.2,619.3c1.2,0,2.2,0.2,3.2,0.6c0.9,0.4,1.8,1,2.4,1.7c0.7,0.7,1.2,1.6,1.5,2.6s0.5,2.2,0.5,3.4
				c0,1.3-0.2,2.4-0.5,3.5c-0.4,1-0.9,1.9-1.5,2.6c-0.7,0.7-1.5,1.3-2.4,1.7c-1,0.4-2,0.6-3.2,0.6c-1.2,0-2.3-0.2-3.2-0.6
				c-1-0.4-1.8-0.9-2.4-1.7c-0.7-0.7-1.2-1.6-1.5-2.6c-0.4-1-0.5-2.2-0.5-3.5c0-1.3,0.2-2.4,0.5-3.4s0.9-1.9,1.5-2.6
				c0.7-0.7,1.5-1.3,2.4-1.7C565,619.5,566,619.3,567.2,619.3z M567.2,633.8c1.6,0,2.8-0.5,3.6-1.6s1.2-2.6,1.2-4.5
				c0-1.9-0.4-3.4-1.2-4.5c-0.8-1.1-2-1.6-3.6-1.6c-0.8,0-1.5,0.1-2.1,0.4s-1.1,0.7-1.5,1.2c-0.4,0.5-0.7,1.2-0.9,1.9
				c-0.2,0.8-0.3,1.6-0.3,2.6c0,1.9,0.4,3.4,1.2,4.5S565.6,633.8,567.2,633.8z"/>
			<path class="st7" d="M581.2,621.9c0.4-0.4,0.7-0.8,1.1-1.1c0.4-0.3,0.8-0.6,1.3-0.8c0.4-0.2,0.9-0.4,1.4-0.5
				c0.5-0.1,1-0.2,1.6-0.2c0.9,0,1.7,0.1,2.3,0.4c0.7,0.3,1.2,0.7,1.7,1.2c0.5,0.5,0.8,1.2,1,1.9c0.2,0.8,0.4,1.6,0.4,2.5v10.3h-2.9
				v-10.3c0-1.2-0.3-2.2-0.8-2.9c-0.6-0.7-1.4-1-2.6-1c-0.8,0-1.6,0.2-2.4,0.6s-1.4,1-2,1.6v11.9h-2.9v-16.2h1.7
				c0.4,0,0.7,0.2,0.8,0.6L581.2,621.9z"/>
			<path class="st7" d="M605.8,622.2c-0.1,0.2-0.3,0.4-0.6,0.4c-0.2,0-0.3-0.1-0.5-0.2s-0.5-0.2-0.7-0.4s-0.6-0.3-1-0.4
				c-0.4-0.1-0.9-0.2-1.4-0.2c-0.5,0-0.9,0.1-1.3,0.2c-0.4,0.1-0.7,0.3-1,0.5c-0.3,0.2-0.5,0.5-0.6,0.7c-0.1,0.3-0.2,0.6-0.2,0.9
				c0,0.4,0.1,0.8,0.4,1c0.2,0.3,0.6,0.5,1,0.7c0.4,0.2,0.8,0.4,1.3,0.5c0.5,0.2,1,0.3,1.5,0.5c0.5,0.2,1,0.4,1.5,0.6
				c0.5,0.2,0.9,0.5,1.3,0.8s0.7,0.7,1,1.2c0.2,0.5,0.4,1,0.4,1.7c0,0.7-0.1,1.4-0.4,2.1c-0.3,0.6-0.7,1.2-1.2,1.6s-1.2,0.8-1.9,1.1
				c-0.8,0.3-1.6,0.4-2.6,0.4c-1.1,0-2.2-0.2-3.1-0.6c-0.9-0.4-1.7-0.8-2.3-1.4l0.7-1.1c0.1-0.1,0.2-0.2,0.3-0.3s0.3-0.1,0.4-0.1
				c0.2,0,0.4,0.1,0.6,0.2s0.5,0.3,0.8,0.5c0.3,0.2,0.7,0.3,1.1,0.5c0.4,0.2,1,0.2,1.6,0.2c0.6,0,1-0.1,1.5-0.2s0.8-0.3,1-0.6
				s0.5-0.5,0.6-0.8c0.1-0.3,0.2-0.7,0.2-1c0-0.4-0.1-0.8-0.4-1.1c-0.2-0.3-0.6-0.5-1-0.8s-0.8-0.4-1.4-0.5c-0.5-0.2-1-0.3-1.6-0.5
				c-0.5-0.2-1-0.4-1.6-0.6c-0.5-0.2-1-0.5-1.4-0.8c-0.4-0.3-0.7-0.7-1-1.2s-0.4-1.1-0.4-1.8c0-0.6,0.1-1.2,0.4-1.8
				c0.3-0.6,0.6-1.1,1.1-1.5c0.5-0.4,1.1-0.8,1.8-1c0.7-0.3,1.5-0.4,2.4-0.4c1.1,0,2,0.2,2.9,0.5c0.8,0.3,1.6,0.8,2.2,1.4
				L605.8,622.2z"/>
		</g>
	</g>
	<g>
		<g id="wuZWpB_1_">
			
				<image style="overflow:visible;enable-background:new    ;" width="937" height="539" id="wuZWpB" xlink:href="img/1DB93F7BCE0D78DF.jpg"  transform="matrix(0.3052 0 0 0.3052 658.4199 529.4857)">
			</image>
		</g>
		<g>
			<path class="st7" d="M775.3,577.8c-0.1,0.2-0.2,0.3-0.3,0.4s-0.2,0.1-0.4,0.1c-0.2,0-0.4-0.1-0.6-0.3c-0.2-0.2-0.6-0.4-0.9-0.6
				c-0.4-0.2-0.8-0.4-1.3-0.6c-0.5-0.2-1.1-0.3-1.9-0.3c-0.7,0-1.3,0.1-1.8,0.3c-0.5,0.2-1,0.4-1.3,0.8c-0.4,0.3-0.6,0.7-0.8,1.1
				c-0.2,0.4-0.3,0.9-0.3,1.4c0,0.6,0.2,1.2,0.5,1.6c0.3,0.4,0.7,0.8,1.2,1.1s1.1,0.6,1.8,0.8s1.3,0.4,2,0.7c0.7,0.2,1.4,0.5,2,0.8
				c0.7,0.3,1.2,0.7,1.8,1.1c0.5,0.4,0.9,1,1.2,1.6c0.3,0.7,0.5,1.5,0.5,2.4c0,1-0.2,1.9-0.5,2.8c-0.3,0.9-0.8,1.6-1.5,2.3
				c-0.7,0.7-1.5,1.2-2.4,1.5s-2,0.6-3.3,0.6c-1.5,0-2.8-0.3-4.1-0.8c-1.2-0.5-2.3-1.3-3.1-2.2l0.9-1.5c0.1-0.1,0.2-0.2,0.3-0.3
				c0.1-0.1,0.3-0.1,0.4-0.1c0.1,0,0.3,0.1,0.5,0.2s0.4,0.3,0.6,0.4c0.2,0.2,0.5,0.4,0.8,0.6s0.6,0.4,1,0.6c0.4,0.2,0.8,0.3,1.3,0.4
				c0.5,0.1,1,0.2,1.6,0.2c0.7,0,1.4-0.1,2-0.3s1.1-0.5,1.5-0.9c0.4-0.4,0.7-0.8,0.9-1.3s0.3-1.1,0.3-1.7c0-0.7-0.2-1.3-0.5-1.7
				c-0.3-0.4-0.7-0.8-1.2-1.1c-0.5-0.3-1.1-0.6-1.8-0.8c-0.7-0.2-1.3-0.4-2-0.6s-1.4-0.5-2-0.8c-0.7-0.3-1.2-0.7-1.8-1.1
				c-0.5-0.5-0.9-1-1.2-1.7s-0.5-1.5-0.5-2.6c0-0.8,0.2-1.6,0.5-2.4c0.3-0.8,0.8-1.4,1.4-2c0.6-0.6,1.3-1.1,2.2-1.4
				c0.9-0.4,1.9-0.5,3-0.5c1.3,0,2.4,0.2,3.5,0.6s2,1,2.8,1.8L775.3,577.8z"/>
			<path class="st7" d="M782.9,573.6v23.6h-2.8v-23.6H782.9z"/>
			<path class="st7" d="M791.1,575.9c0,0.3-0.1,0.5-0.2,0.8c-0.1,0.2-0.3,0.5-0.4,0.6c-0.2,0.2-0.4,0.3-0.7,0.4
				c-0.3,0.1-0.5,0.2-0.8,0.2c-0.3,0-0.5-0.1-0.8-0.2c-0.2-0.1-0.5-0.3-0.6-0.4c-0.2-0.2-0.3-0.4-0.4-0.6c-0.1-0.2-0.2-0.5-0.2-0.8
				s0.1-0.5,0.2-0.8c0.1-0.3,0.3-0.5,0.4-0.7c0.2-0.2,0.4-0.3,0.6-0.4c0.2-0.1,0.5-0.2,0.8-0.2c0.3,0,0.5,0.1,0.8,0.2
				c0.2,0.1,0.5,0.3,0.7,0.4c0.2,0.2,0.3,0.4,0.4,0.7C791.1,575.4,791.1,575.6,791.1,575.9z M790.5,581v16.2h-2.8V581H790.5z"/>
			<path class="st7" d="M808.6,573.6v23.6h-1.7c-0.4,0-0.7-0.2-0.8-0.6l-0.3-2c-0.7,0.8-1.5,1.5-2.4,2c-0.9,0.5-1.9,0.8-3.1,0.8
				c-0.9,0-1.8-0.2-2.5-0.5c-0.8-0.4-1.4-0.9-1.9-1.6s-0.9-1.6-1.2-2.6c-0.3-1-0.4-2.2-0.4-3.6c0-1.2,0.2-2.3,0.5-3.3
				s0.8-1.9,1.4-2.7c0.6-0.8,1.3-1.4,2.2-1.8c0.9-0.4,1.8-0.6,2.9-0.6c1,0,1.8,0.2,2.6,0.5c0.7,0.3,1.3,0.8,1.9,1.4v-9H808.6z
				 M805.8,584.8c-0.5-0.7-1.1-1.2-1.7-1.5c-0.6-0.3-1.3-0.4-2.1-0.4c-1.5,0-2.7,0.5-3.5,1.6c-0.8,1.1-1.2,2.6-1.2,4.6
				c0,1.1,0.1,2,0.3,2.7s0.4,1.4,0.8,1.9c0.4,0.5,0.8,0.8,1.3,1.1s1.1,0.3,1.7,0.3c0.9,0,1.8-0.2,2.5-0.6c0.7-0.4,1.3-1,1.9-1.8
				V584.8z"/>
			<path class="st7" d="M826.3,594.9c-0.4,0.4-0.8,0.8-1.3,1.1c-0.5,0.3-1,0.6-1.6,0.8s-1.1,0.4-1.7,0.5c-0.6,0.1-1.2,0.2-1.8,0.2
				c-1.1,0-2.2-0.2-3.1-0.6c-0.9-0.4-1.8-0.9-2.4-1.7s-1.2-1.6-1.6-2.7c-0.4-1.1-0.6-2.3-0.6-3.7c0-1.1,0.2-2.2,0.5-3.2
				c0.3-1,0.8-1.8,1.5-2.6c0.7-0.7,1.4-1.3,2.4-1.7c0.9-0.4,2-0.6,3.2-0.6c1,0,1.9,0.2,2.7,0.5c0.8,0.3,1.5,0.8,2.1,1.4
				s1.1,1.4,1.4,2.3s0.5,1.9,0.5,3.1c0,0.4,0,0.7-0.1,0.9c-0.1,0.1-0.3,0.2-0.5,0.2H815c0,1,0.2,1.9,0.4,2.7s0.6,1.4,1,1.9
				c0.4,0.5,1,0.9,1.6,1.1c0.6,0.2,1.3,0.4,2.1,0.4c0.7,0,1.3-0.1,1.8-0.2c0.5-0.2,1-0.3,1.3-0.5c0.4-0.2,0.7-0.4,0.9-0.5
				c0.2-0.2,0.5-0.2,0.6-0.2c0.2,0,0.4,0.1,0.5,0.3L826.3,594.9z M824,587.3c0-0.7-0.1-1.3-0.3-1.8c-0.2-0.5-0.5-1-0.8-1.4
				s-0.8-0.7-1.3-0.9s-1.1-0.3-1.7-0.3c-1.4,0-2.4,0.4-3.2,1.2c-0.8,0.8-1.3,1.9-1.5,3.3H824z"/>
			<path class="st7" d="M839.4,583.7c-0.1,0.2-0.3,0.4-0.6,0.4c-0.2,0-0.3-0.1-0.5-0.2c-0.2-0.1-0.5-0.2-0.7-0.4
				c-0.3-0.1-0.6-0.3-1-0.4c-0.4-0.1-0.9-0.2-1.4-0.2c-0.5,0-0.9,0.1-1.3,0.2c-0.4,0.1-0.7,0.3-1,0.5c-0.3,0.2-0.5,0.5-0.6,0.7
				c-0.1,0.3-0.2,0.6-0.2,0.9c0,0.4,0.1,0.8,0.4,1c0.2,0.3,0.6,0.5,1,0.7c0.4,0.2,0.8,0.4,1.3,0.5c0.5,0.2,1,0.3,1.5,0.5
				s1,0.4,1.5,0.6c0.5,0.2,0.9,0.5,1.3,0.8s0.7,0.7,1,1.2c0.2,0.5,0.4,1,0.4,1.7c0,0.7-0.1,1.4-0.4,2.1s-0.7,1.2-1.2,1.6
				c-0.5,0.5-1.2,0.8-1.9,1.1c-0.8,0.3-1.6,0.4-2.6,0.4c-1.1,0-2.2-0.2-3.1-0.6c-0.9-0.4-1.7-0.8-2.3-1.4l0.7-1.1
				c0.1-0.1,0.2-0.2,0.3-0.3s0.3-0.1,0.4-0.1c0.2,0,0.4,0.1,0.6,0.2c0.2,0.1,0.5,0.3,0.8,0.5c0.3,0.2,0.7,0.3,1.1,0.5
				c0.4,0.2,1,0.2,1.6,0.2c0.6,0,1-0.1,1.5-0.2s0.8-0.3,1-0.6s0.5-0.5,0.6-0.8c0.1-0.3,0.2-0.7,0.2-1c0-0.4-0.1-0.8-0.4-1.1
				c-0.2-0.3-0.6-0.5-1-0.8s-0.8-0.4-1.4-0.5c-0.5-0.2-1-0.3-1.6-0.5c-0.5-0.2-1-0.4-1.6-0.6s-1-0.5-1.4-0.8c-0.4-0.3-0.7-0.7-1-1.2
				s-0.4-1.1-0.4-1.8c0-0.6,0.1-1.2,0.4-1.8s0.6-1.1,1.1-1.5s1.1-0.8,1.8-1s1.5-0.4,2.4-0.4c1.1,0,2,0.2,2.9,0.5s1.6,0.8,2.2,1.4
				L839.4,583.7z"/>
			<path class="st7" d="M754.5,640.9H752c-0.4,0-0.7-0.1-1-0.2s-0.6-0.3-0.8-0.6l-4-4.4c-1.2,0.4-2.5,0.6-4,0.6
				c-1.7,0-3.2-0.3-4.6-0.9s-2.6-1.4-3.6-2.4c-1-1-1.8-2.3-2.3-3.7c-0.5-1.4-0.8-3-0.8-4.7c0-1.7,0.3-3.3,0.8-4.7
				c0.5-1.4,1.3-2.7,2.3-3.7c1-1,2.2-1.8,3.6-2.4c1.4-0.6,2.9-0.9,4.6-0.9s3.2,0.3,4.6,0.9c1.4,0.6,2.6,1.4,3.6,2.4
				c1,1,1.8,2.3,2.3,3.7c0.5,1.4,0.8,3,0.8,4.7c0,1.1-0.1,2.1-0.3,3.1s-0.5,1.9-1,2.7s-0.9,1.6-1.5,2.3c-0.6,0.7-1.3,1.3-2,1.8
				L754.5,640.9z M734,624.7c0,1.4,0.2,2.7,0.6,3.8c0.4,1.1,0.9,2.1,1.6,2.8c0.7,0.8,1.6,1.4,2.6,1.8c1,0.4,2.1,0.6,3.3,0.6
				c1.2,0,2.4-0.2,3.4-0.6c1-0.4,1.9-1,2.6-1.8c0.7-0.8,1.2-1.7,1.6-2.8s0.6-2.4,0.6-3.8s-0.2-2.7-0.6-3.8s-0.9-2.1-1.6-2.8
				c-0.7-0.8-1.6-1.4-2.6-1.8c-1-0.4-2.1-0.6-3.4-0.6c-1.2,0-2.3,0.2-3.3,0.6c-1,0.4-1.9,1-2.6,1.8c-0.7,0.8-1.3,1.7-1.6,2.8
				C734.2,622.1,734,623.3,734,624.7z"/>
			<path class="st7" d="M770.3,620v16.2h-1.7c-0.4,0-0.7-0.2-0.8-0.6l-0.2-1.7c-0.7,0.8-1.5,1.4-2.4,1.9c-0.9,0.5-1.9,0.7-3,0.7
				c-0.9,0-1.7-0.1-2.3-0.4c-0.7-0.3-1.2-0.7-1.7-1.2s-0.8-1.2-1-1.9c-0.2-0.8-0.3-1.6-0.3-2.5V620h2.8v10.3c0,1.2,0.3,2.2,0.8,2.8
				s1.4,1,2.6,1c0.8,0,1.6-0.2,2.4-0.6s1.4-1,2-1.7V620H770.3z"/>
			<path class="st7" d="M788,633.9c-0.4,0.4-0.8,0.8-1.3,1.1c-0.5,0.3-1,0.6-1.6,0.8c-0.6,0.2-1.1,0.4-1.7,0.5
				c-0.6,0.1-1.2,0.2-1.8,0.2c-1.1,0-2.2-0.2-3.1-0.6c-0.9-0.4-1.8-0.9-2.4-1.7c-0.7-0.7-1.2-1.6-1.6-2.7c-0.4-1.1-0.6-2.3-0.6-3.7
				c0-1.1,0.2-2.2,0.5-3.2c0.3-1,0.8-1.8,1.5-2.6c0.7-0.7,1.4-1.3,2.4-1.7c0.9-0.4,2-0.6,3.2-0.6c1,0,1.9,0.2,2.7,0.5
				c0.8,0.3,1.5,0.8,2.1,1.4c0.6,0.6,1.1,1.4,1.4,2.3c0.3,0.9,0.5,1.9,0.5,3.1c0,0.4,0,0.7-0.1,0.9c-0.1,0.1-0.3,0.2-0.5,0.2h-10.8
				c0,1,0.2,1.9,0.4,2.7c0.3,0.8,0.6,1.4,1,1.9c0.4,0.5,1,0.9,1.6,1.1c0.6,0.2,1.3,0.4,2.1,0.4c0.7,0,1.3-0.1,1.8-0.2
				c0.5-0.2,1-0.3,1.3-0.5c0.4-0.2,0.7-0.4,0.9-0.5s0.5-0.2,0.6-0.2c0.2,0,0.4,0.1,0.5,0.3L788,633.9z M785.7,626.3
				c0-0.7-0.1-1.3-0.3-1.8c-0.2-0.5-0.5-1-0.8-1.4s-0.8-0.7-1.3-0.9s-1.1-0.3-1.7-0.3c-1.4,0-2.4,0.4-3.2,1.2
				c-0.8,0.8-1.3,1.9-1.5,3.3H785.7z"/>
			<path class="st7" d="M801.2,622.7c-0.1,0.2-0.3,0.4-0.6,0.4c-0.2,0-0.3-0.1-0.5-0.2s-0.5-0.2-0.7-0.4s-0.6-0.3-1-0.4
				c-0.4-0.1-0.9-0.2-1.4-0.2c-0.5,0-0.9,0.1-1.3,0.2c-0.4,0.1-0.7,0.3-1,0.5c-0.3,0.2-0.5,0.5-0.6,0.7c-0.1,0.3-0.2,0.6-0.2,0.9
				c0,0.4,0.1,0.8,0.4,1s0.6,0.5,1,0.7c0.4,0.2,0.8,0.4,1.3,0.5c0.5,0.2,1,0.3,1.5,0.5c0.5,0.2,1,0.4,1.5,0.6
				c0.5,0.2,0.9,0.5,1.3,0.8s0.7,0.7,1,1.2c0.2,0.5,0.4,1,0.4,1.7c0,0.7-0.1,1.4-0.4,2.1c-0.3,0.6-0.7,1.2-1.2,1.6s-1.2,0.8-1.9,1.1
				c-0.8,0.3-1.6,0.4-2.6,0.4c-1.1,0-2.2-0.2-3.1-0.6c-0.9-0.4-1.7-0.8-2.3-1.4l0.7-1.1c0.1-0.1,0.2-0.2,0.3-0.3s0.3-0.1,0.4-0.1
				c0.2,0,0.4,0.1,0.6,0.2s0.5,0.3,0.8,0.5c0.3,0.2,0.7,0.3,1.1,0.5c0.4,0.2,1,0.2,1.6,0.2c0.6,0,1-0.1,1.5-0.2s0.8-0.3,1-0.6
				c0.3-0.2,0.5-0.5,0.6-0.8c0.1-0.3,0.2-0.7,0.2-1c0-0.4-0.1-0.8-0.4-1.1c-0.2-0.3-0.6-0.5-1-0.8s-0.8-0.4-1.4-0.5s-1-0.3-1.6-0.5
				c-0.5-0.2-1-0.4-1.6-0.6c-0.5-0.2-1-0.5-1.4-0.8c-0.4-0.3-0.7-0.7-1-1.2c-0.2-0.5-0.4-1.1-0.4-1.8c0-0.6,0.1-1.2,0.4-1.8
				s0.6-1.1,1.1-1.5c0.5-0.4,1.1-0.8,1.8-1s1.5-0.4,2.4-0.4c1.1,0,2,0.2,2.9,0.5s1.6,0.8,2.2,1.4L801.2,622.7z"/>
			<path class="st7" d="M820.6,636.2h-2.8v-13.8h-8.4v9.7c0,0.7,0.2,1.2,0.5,1.5s0.8,0.5,1.3,0.5c0.3,0,0.6,0,0.8-0.1
				s0.4-0.2,0.6-0.3s0.3-0.2,0.4-0.3s0.2-0.1,0.3-0.1c0.1,0,0.3,0.1,0.4,0.3l0.8,1.4c-0.5,0.5-1.1,0.8-1.8,1.1s-1.4,0.4-2.1,0.4
				c-1.3,0-2.3-0.4-3-1.1c-0.7-0.7-1-1.7-1-3.1v-9.9h-2c-0.2,0-0.3,0-0.4-0.2s-0.2-0.3-0.2-0.5v-1.1l2.7-0.4l0.7-5
				c0-0.2,0.1-0.3,0.2-0.4c0.1-0.1,0.3-0.2,0.4-0.2h1.4v5.6h11.2V636.2z M821.3,614.8c0,0.3-0.1,0.5-0.2,0.8s-0.3,0.5-0.4,0.6
				c-0.2,0.2-0.4,0.3-0.6,0.4c-0.2,0.1-0.5,0.2-0.8,0.2s-0.5-0.1-0.8-0.2c-0.2-0.1-0.5-0.3-0.6-0.4c-0.2-0.2-0.3-0.4-0.4-0.6
				c-0.1-0.2-0.2-0.5-0.2-0.8c0-0.3,0.1-0.5,0.2-0.8c0.1-0.2,0.2-0.5,0.4-0.7c0.2-0.2,0.4-0.3,0.6-0.4c0.2-0.1,0.5-0.2,0.8-0.2
				s0.5,0.1,0.8,0.2c0.2,0.1,0.5,0.3,0.6,0.4c0.2,0.2,0.3,0.4,0.4,0.7C821.3,614.2,821.3,614.5,821.3,614.8z"/>
			<path class="st7" d="M832.1,619.7c1.2,0,2.2,0.2,3.2,0.6c0.9,0.4,1.8,1,2.4,1.7c0.7,0.7,1.2,1.6,1.5,2.6s0.5,2.2,0.5,3.4
				c0,1.3-0.2,2.4-0.5,3.5c-0.4,1-0.9,1.9-1.5,2.6c-0.7,0.7-1.5,1.3-2.4,1.7c-1,0.4-2,0.6-3.2,0.6c-1.2,0-2.3-0.2-3.2-0.6
				c-1-0.4-1.8-0.9-2.4-1.7c-0.7-0.7-1.2-1.6-1.5-2.6c-0.4-1-0.5-2.2-0.5-3.5c0-1.3,0.2-2.4,0.5-3.4s0.9-1.9,1.5-2.6
				c0.7-0.7,1.5-1.3,2.4-1.7C829.8,619.9,830.9,619.7,832.1,619.7z M832.1,634.2c1.6,0,2.8-0.5,3.6-1.6s1.2-2.6,1.2-4.5
				c0-1.9-0.4-3.4-1.2-4.5c-0.8-1.1-2-1.6-3.6-1.6c-0.8,0-1.5,0.1-2.1,0.4s-1.1,0.7-1.5,1.2c-0.4,0.5-0.7,1.2-0.9,1.9
				c-0.2,0.8-0.3,1.6-0.3,2.6c0,1.9,0.4,3.4,1.2,4.5S830.5,634.2,832.1,634.2z"/>
			<path class="st7" d="M846.1,622.3c0.4-0.4,0.7-0.8,1.1-1.1c0.4-0.3,0.8-0.6,1.3-0.8c0.4-0.2,0.9-0.4,1.4-0.5
				c0.5-0.1,1-0.2,1.6-0.2c0.9,0,1.7,0.1,2.3,0.4c0.7,0.3,1.2,0.7,1.7,1.2c0.5,0.5,0.8,1.2,1,1.9c0.2,0.8,0.4,1.6,0.4,2.5v10.3h-2.9
				v-10.3c0-1.2-0.3-2.2-0.8-2.9c-0.6-0.7-1.4-1-2.6-1c-0.8,0-1.6,0.2-2.4,0.6s-1.4,1-2,1.6v11.9h-2.9V620h1.7
				c0.4,0,0.7,0.2,0.8,0.6L846.1,622.3z"/>
			<path class="st7" d="M870.7,622.7c-0.1,0.2-0.3,0.4-0.6,0.4c-0.2,0-0.3-0.1-0.5-0.2s-0.5-0.2-0.7-0.4s-0.6-0.3-1-0.4
				c-0.4-0.1-0.9-0.2-1.4-0.2c-0.5,0-0.9,0.1-1.3,0.2c-0.4,0.1-0.7,0.3-1,0.5c-0.3,0.2-0.5,0.5-0.6,0.7c-0.1,0.3-0.2,0.6-0.2,0.9
				c0,0.4,0.1,0.8,0.4,1c0.2,0.3,0.6,0.5,1,0.7c0.4,0.2,0.8,0.4,1.3,0.5c0.5,0.2,1,0.3,1.5,0.5c0.5,0.2,1,0.4,1.5,0.6
				c0.5,0.2,0.9,0.5,1.3,0.8s0.7,0.7,1,1.2c0.2,0.5,0.4,1,0.4,1.7c0,0.7-0.1,1.4-0.4,2.1c-0.3,0.6-0.7,1.2-1.2,1.6s-1.2,0.8-1.9,1.1
				c-0.8,0.3-1.6,0.4-2.6,0.4c-1.1,0-2.2-0.2-3.1-0.6c-0.9-0.4-1.7-0.8-2.3-1.4l0.7-1.1c0.1-0.1,0.2-0.2,0.3-0.3s0.3-0.1,0.4-0.1
				c0.2,0,0.4,0.1,0.6,0.2s0.5,0.3,0.8,0.5c0.3,0.2,0.7,0.3,1.1,0.5c0.4,0.2,1,0.2,1.6,0.2c0.6,0,1-0.1,1.5-0.2s0.8-0.3,1-0.6
				s0.5-0.5,0.6-0.8c0.1-0.3,0.2-0.7,0.2-1c0-0.4-0.1-0.8-0.4-1.1c-0.2-0.3-0.6-0.5-1-0.8s-0.8-0.4-1.4-0.5c-0.5-0.2-1-0.3-1.6-0.5
				c-0.5-0.2-1-0.4-1.6-0.6c-0.5-0.2-1-0.5-1.4-0.8c-0.4-0.3-0.7-0.7-1-1.2s-0.4-1.1-0.4-1.8c0-0.6,0.1-1.2,0.4-1.8
				c0.3-0.6,0.6-1.1,1.1-1.5c0.5-0.4,1.1-0.8,1.8-1c0.7-0.3,1.5-0.4,2.4-0.4c1.1,0,2,0.2,2.9,0.5c0.8,0.3,1.6,0.8,2.2,1.4
				L870.7,622.7z"/>
		</g>
	</g>
	<g>
		<rect x="178.9" y="684" class="st8" width="8" height="91"/>
		
			<rect x="241.1" y="688.4" transform="matrix(0.8662 -0.4997 0.4997 0.8662 -333.9282 220.5108)" class="st8" width="7.3" height="90.8"/>
		
			<rect x="74.9" y="730.1" transform="matrix(0.4997 -0.8662 0.8662 0.4997 -575.4288 471.2753)" class="st8" width="90.8" height="7.3"/>
		<rect x="14.9" y="480" class="st9" width="329" height="213"/>
		<rect x="11.9" y="693" class="st10" width="334" height="8"/>
		<g>
			<rect x="11.9" y="472" class="st10" width="334" height="8"/>
			<rect x="7.9" y="471" class="st8" width="7" height="10"/>
			<rect x="343.9" y="471" class="st8" width="8" height="10"/>
		</g>
		<rect x="7.9" y="692" class="st8" width="7" height="10"/>
		<rect x="343.9" y="692" class="st8" width="8" height="10"/>
		<g>
			<path class="st7" d="M140.4,514.5c-0.1,0.2-0.3,0.4-0.5,0.5s-0.4,0.2-0.6,0.2c-0.3,0-0.6-0.1-0.9-0.4s-0.8-0.6-1.3-0.9
				s-1.2-0.6-1.9-0.9s-1.7-0.4-2.8-0.4c-1,0-1.9,0.1-2.7,0.4c-0.8,0.3-1.4,0.6-1.9,1.1c-0.5,0.5-0.9,1-1.2,1.7
				c-0.3,0.6-0.4,1.3-0.4,2.1c0,0.9,0.2,1.7,0.7,2.3c0.5,0.6,1.1,1.1,1.8,1.6c0.8,0.4,1.6,0.8,2.6,1.1c1,0.3,1.9,0.7,3,1
				c1,0.3,2,0.7,3,1.2c1,0.4,1.8,1,2.6,1.6c0.8,0.7,1.4,1.5,1.8,2.4c0.5,1,0.7,2.1,0.7,3.5c0,1.5-0.2,2.8-0.8,4.1
				c-0.5,1.3-1.2,2.4-2.2,3.4s-2.1,1.7-3.5,2.2s-3,0.8-4.8,0.8c-2.2,0-4.2-0.4-6-1.2s-3.3-1.9-4.6-3.2l1.3-2.2
				c0.1-0.2,0.3-0.3,0.5-0.4c0.2-0.1,0.4-0.2,0.6-0.2c0.2,0,0.4,0.1,0.7,0.2s0.6,0.4,0.9,0.6s0.7,0.5,1.1,0.8s0.9,0.6,1.4,0.8
				s1.2,0.5,1.8,0.6c0.7,0.2,1.5,0.2,2.3,0.2c1.1,0,2-0.1,2.9-0.4s1.6-0.7,2.1-1.3s1-1.2,1.3-1.9s0.5-1.6,0.5-2.5
				c0-1-0.2-1.8-0.7-2.5c-0.5-0.6-1.1-1.2-1.8-1.6c-0.8-0.4-1.6-0.8-2.6-1.1s-2-0.6-3-0.9c-1-0.3-2-0.7-3-1.1c-1-0.4-1.8-1-2.6-1.6
				c-0.8-0.7-1.4-1.5-1.8-2.5c-0.5-1-0.7-2.3-0.7-3.7c0-1.2,0.2-2.3,0.7-3.4c0.5-1.1,1.1-2.1,2-3c0.9-0.9,2-1.5,3.3-2.1
				c1.3-0.5,2.8-0.8,4.4-0.8c1.9,0,3.6,0.3,5.1,0.9c1.5,0.6,2.9,1.5,4.1,2.6L140.4,514.5z"/>
			<path class="st7" d="M151.6,508.3v34.5h-4.2v-34.5H151.6z"/>
			<path class="st7" d="M163.6,511.6c0,0.4-0.1,0.8-0.2,1.1s-0.4,0.7-0.7,0.9c-0.3,0.3-0.6,0.5-1,0.6c-0.4,0.2-0.8,0.2-1.2,0.2
				c-0.4,0-0.8-0.1-1.1-0.2s-0.7-0.4-0.9-0.6c-0.3-0.3-0.5-0.6-0.6-0.9c-0.2-0.4-0.2-0.7-0.2-1.1s0.1-0.8,0.2-1.2
				c0.2-0.4,0.4-0.7,0.6-1c0.3-0.3,0.6-0.5,0.9-0.6s0.7-0.2,1.1-0.2c0.4,0,0.8,0.1,1.2,0.2c0.4,0.2,0.7,0.4,1,0.6
				c0.3,0.3,0.5,0.6,0.7,1S163.6,511.2,163.6,511.6z M162.7,519.1v23.7h-4.2v-23.7H162.7z"/>
			<path class="st7" d="M189.2,508.3v34.5h-2.5c-0.6,0-1-0.3-1.1-0.9l-0.4-2.9c-1,1.2-2.2,2.2-3.5,3s-2.8,1.1-4.5,1.1
				c-1.4,0-2.6-0.3-3.7-0.8c-1.1-0.5-2.1-1.3-2.8-2.3c-0.8-1-1.4-2.3-1.8-3.8s-0.6-3.3-0.6-5.2c0-1.7,0.2-3.4,0.7-4.9
				c0.5-1.5,1.1-2.8,2-3.9c0.9-1.1,1.9-2,3.2-2.6c1.3-0.6,2.7-0.9,4.3-0.9c1.5,0,2.7,0.2,3.7,0.7s2,1.2,2.8,2.1v-13.1H189.2z
				 M185,524.7c-0.8-1-1.6-1.8-2.5-2.2s-1.9-0.6-3-0.6c-2.2,0-3.9,0.8-5.1,2.4c-1.2,1.6-1.8,3.8-1.8,6.8c0,1.5,0.1,2.9,0.4,4
				c0.3,1.1,0.7,2,1.2,2.7s1.1,1.2,1.9,1.6c0.7,0.3,1.6,0.5,2.6,0.5c1.4,0,2.6-0.3,3.6-0.9s2-1.5,2.8-2.6V524.7z"/>
			<path class="st7" d="M215.1,539.5c-0.5,0.6-1.1,1.2-1.9,1.6c-0.7,0.5-1.5,0.8-2.3,1.1s-1.7,0.5-2.5,0.7s-1.7,0.2-2.6,0.2
				c-1.6,0-3.2-0.3-4.5-0.8c-1.4-0.6-2.6-1.4-3.6-2.4s-1.8-2.4-2.4-4s-0.8-3.4-0.8-5.4c0-1.7,0.3-3.2,0.8-4.6
				c0.5-1.4,1.2-2.7,2.2-3.7c1-1.1,2.1-1.9,3.5-2.5c1.4-0.6,2.9-0.9,4.6-0.9c1.4,0,2.7,0.2,3.9,0.7s2.3,1.2,3.1,2.1
				c0.9,0.9,1.6,2,2.1,3.3c0.5,1.3,0.8,2.8,0.8,4.5c0,0.7-0.1,1.1-0.2,1.3c-0.1,0.2-0.4,0.3-0.8,0.3h-15.9c0,1.5,0.3,2.8,0.6,3.9
				c0.4,1.1,0.9,2,1.5,2.8s1.4,1.3,2.3,1.7s1.9,0.6,3,0.6c1,0,1.9-0.1,2.7-0.4s1.4-0.5,2-0.8s1-0.5,1.4-0.8c0.4-0.2,0.7-0.4,0.9-0.4
				c0.3,0,0.6,0.1,0.8,0.4L215.1,539.5z M211.7,528.3c0-1-0.1-1.9-0.4-2.7c-0.3-0.8-0.7-1.5-1.2-2.1s-1.2-1-1.9-1.4
				s-1.6-0.5-2.6-0.5c-2,0-3.6,0.6-4.7,1.7c-1.2,1.2-1.9,2.8-2.2,4.8H211.7z"/>
			<path class="st7" d="M234.4,523c-0.2,0.3-0.5,0.5-0.9,0.5c-0.2,0-0.5-0.1-0.8-0.3c-0.3-0.2-0.7-0.4-1.1-0.6
				c-0.4-0.2-0.9-0.4-1.5-0.6s-1.3-0.3-2.1-0.3c-0.7,0-1.3,0.1-1.9,0.3s-1,0.4-1.4,0.7s-0.7,0.7-0.9,1.1c-0.2,0.4-0.3,0.9-0.3,1.3
				c0,0.6,0.2,1.1,0.5,1.5c0.4,0.4,0.8,0.8,1.4,1.1c0.6,0.3,1.2,0.6,2,0.8c0.7,0.2,1.5,0.5,2.3,0.7s1.5,0.5,2.3,0.9
				c0.7,0.3,1.4,0.7,2,1.2s1,1,1.4,1.7s0.5,1.5,0.5,2.4c0,1.1-0.2,2.1-0.6,3s-1,1.7-1.7,2.4s-1.7,1.2-2.8,1.6s-2.4,0.6-3.8,0.6
				c-1.7,0-3.2-0.3-4.5-0.8c-1.3-0.5-2.5-1.2-3.4-2.1l1-1.6c0.1-0.2,0.3-0.4,0.4-0.5c0.2-0.1,0.4-0.2,0.7-0.2c0.3,0,0.6,0.1,0.9,0.3
				c0.3,0.2,0.7,0.5,1.1,0.7s1,0.5,1.6,0.7c0.6,0.2,1.4,0.3,2.4,0.3c0.8,0,1.5-0.1,2.1-0.3s1.1-0.5,1.5-0.9s0.7-0.8,0.9-1.2
				s0.3-1,0.3-1.5c0-0.7-0.2-1.2-0.5-1.6s-0.8-0.8-1.4-1.1s-1.2-0.6-2-0.8c-0.7-0.2-1.5-0.5-2.3-0.7c-0.8-0.2-1.5-0.5-2.3-0.9
				c-0.7-0.3-1.4-0.7-2-1.2c-0.6-0.5-1-1.1-1.4-1.8c-0.4-0.7-0.5-1.6-0.5-2.6c0-0.9,0.2-1.8,0.6-2.6c0.4-0.8,0.9-1.6,1.6-2.2
				c0.7-0.6,1.6-1.1,2.6-1.5c1-0.4,2.2-0.6,3.6-0.6c1.6,0,3,0.2,4.2,0.7s2.3,1.2,3.2,2L234.4,523z"/>
			<path class="st7" d="M110,606.9h-3.8c-0.6,0-1.1-0.1-1.5-0.2s-0.8-0.4-1.2-0.8l-5.9-6.4c-1.8,0.6-3.7,0.9-5.8,0.9
				c-2.5,0-4.7-0.4-6.8-1.3s-3.8-2-5.2-3.5s-2.6-3.3-3.4-5.4c-0.8-2.1-1.2-4.4-1.2-6.9c0-2.5,0.4-4.8,1.2-6.9s1.9-3.9,3.4-5.4
				s3.2-2.7,5.2-3.6s4.3-1.3,6.8-1.3s4.7,0.4,6.8,1.3s3.8,2,5.2,3.6c1.5,1.5,2.6,3.3,3.4,5.4s1.2,4.4,1.2,6.9c0,1.6-0.2,3.1-0.5,4.5
				c-0.3,1.4-0.8,2.7-1.4,4s-1.4,2.3-2.2,3.3s-1.9,1.9-3,2.6L110,606.9z M80,583.1c0,2.1,0.3,3.9,0.8,5.5c0.6,1.6,1.4,3,2.4,4.1
				s2.3,2,3.8,2.6s3.1,0.9,4.9,0.9c1.8,0,3.5-0.3,4.9-0.9c1.5-0.6,2.7-1.5,3.8-2.6s1.8-2.5,2.4-4.1c0.6-1.6,0.8-3.5,0.8-5.5
				s-0.3-3.9-0.8-5.6c-0.6-1.6-1.4-3-2.4-4.2s-2.3-2-3.8-2.6c-1.5-0.6-3.1-0.9-4.9-0.9c-1.8,0-3.4,0.3-4.9,0.9s-2.7,1.5-3.8,2.6
				s-1.8,2.5-2.4,4.2S80,581.1,80,583.1z"/>
			<path class="st7" d="M133.1,576.2v23.7h-2.5c-0.6,0-1-0.3-1.1-0.9l-0.3-2.6c-1,1.1-2.2,2.1-3.5,2.8s-2.8,1-4.4,1
				c-1.3,0-2.4-0.2-3.4-0.6c-1-0.4-1.8-1-2.5-1.8c-0.7-0.8-1.2-1.7-1.5-2.8c-0.3-1.1-0.5-2.3-0.5-3.7v-15.1h4.2v15.1
				c0,1.8,0.4,3.2,1.2,4.2s2.1,1.5,3.8,1.5c1.2,0,2.4-0.3,3.5-0.9s2.1-1.4,3-2.4v-17.5H133.1z"/>
			<path class="st7" d="M159,596.6c-0.5,0.6-1.1,1.2-1.9,1.6c-0.7,0.5-1.5,0.8-2.3,1.1s-1.7,0.5-2.5,0.7s-1.7,0.2-2.6,0.2
				c-1.6,0-3.2-0.3-4.5-0.8c-1.4-0.6-2.6-1.4-3.6-2.4s-1.8-2.4-2.4-4s-0.8-3.4-0.8-5.4c0-1.7,0.3-3.2,0.8-4.6
				c0.5-1.4,1.2-2.7,2.2-3.7c1-1.1,2.1-1.9,3.5-2.5c1.4-0.6,2.9-0.9,4.6-0.9c1.4,0,2.7,0.2,3.9,0.7s2.3,1.2,3.1,2.1
				c0.9,0.9,1.6,2,2.1,3.3c0.5,1.3,0.8,2.8,0.8,4.5c0,0.7-0.1,1.1-0.2,1.3c-0.1,0.2-0.4,0.3-0.8,0.3h-15.9c0,1.5,0.3,2.8,0.6,3.9
				c0.4,1.1,0.9,2,1.5,2.8s1.4,1.3,2.3,1.7s1.9,0.6,3,0.6c1,0,1.9-0.1,2.7-0.4s1.4-0.5,2-0.8s1-0.5,1.4-0.8c0.4-0.2,0.7-0.4,0.9-0.4
				c0.3,0,0.6,0.1,0.8,0.4L159,596.6z M155.6,585.5c0-1-0.1-1.9-0.4-2.7c-0.3-0.8-0.7-1.5-1.2-2.1s-1.2-1-1.9-1.4s-1.6-0.5-2.6-0.5
				c-2,0-3.6,0.6-4.7,1.7c-1.2,1.2-1.9,2.8-2.2,4.8H155.6z"/>
			<path class="st7" d="M178.3,580.1c-0.2,0.3-0.5,0.5-0.9,0.5c-0.2,0-0.5-0.1-0.8-0.3c-0.3-0.2-0.7-0.4-1.1-0.6
				c-0.4-0.2-0.9-0.4-1.5-0.6s-1.3-0.3-2.1-0.3c-0.7,0-1.3,0.1-1.9,0.3s-1,0.4-1.4,0.7s-0.7,0.7-0.9,1.1c-0.2,0.4-0.3,0.9-0.3,1.3
				c0,0.6,0.2,1.1,0.5,1.5c0.4,0.4,0.8,0.8,1.4,1.1c0.6,0.3,1.2,0.6,2,0.8c0.7,0.2,1.5,0.5,2.3,0.7s1.5,0.5,2.3,0.9
				c0.7,0.3,1.4,0.7,2,1.2s1,1,1.4,1.7s0.5,1.5,0.5,2.4c0,1.1-0.2,2.1-0.6,3s-1,1.7-1.7,2.4s-1.7,1.2-2.8,1.6s-2.4,0.6-3.8,0.6
				c-1.7,0-3.2-0.3-4.5-0.8c-1.3-0.5-2.5-1.2-3.4-2.1l1-1.6c0.1-0.2,0.3-0.4,0.4-0.5c0.2-0.1,0.4-0.2,0.7-0.2c0.3,0,0.6,0.1,0.9,0.3
				c0.3,0.2,0.7,0.5,1.1,0.7s1,0.5,1.6,0.7c0.6,0.2,1.4,0.3,2.4,0.3c0.8,0,1.5-0.1,2.1-0.3s1.1-0.5,1.5-0.9s0.7-0.8,0.9-1.2
				s0.3-1,0.3-1.5c0-0.7-0.2-1.2-0.5-1.6s-0.8-0.8-1.4-1.1s-1.2-0.6-2-0.8c-0.7-0.2-1.5-0.5-2.3-0.7c-0.8-0.2-1.5-0.5-2.3-0.9
				c-0.7-0.3-1.4-0.7-2-1.2c-0.6-0.5-1-1.1-1.4-1.8c-0.4-0.7-0.5-1.6-0.5-2.6c0-0.9,0.2-1.8,0.6-2.6c0.4-0.8,0.9-1.6,1.6-2.2
				c0.7-0.6,1.6-1.1,2.6-1.5c1-0.4,2.2-0.6,3.6-0.6c1.6,0,3,0.2,4.2,0.7s2.3,1.2,3.2,2L178.3,580.1z"/>
			<path class="st7" d="M206.8,599.9h-4.2v-20.2h-12.2v14.2c0,1,0.2,1.7,0.7,2.2c0.5,0.5,1.1,0.7,1.9,0.7c0.4,0,0.8-0.1,1.1-0.2
				s0.6-0.2,0.8-0.4s0.4-0.3,0.6-0.4s0.3-0.2,0.4-0.2c0.2,0,0.4,0.1,0.6,0.4l1.2,2c-0.7,0.7-1.6,1.2-2.6,1.6s-2.1,0.6-3.1,0.6
				c-1.9,0-3.3-0.5-4.3-1.6s-1.5-2.6-1.5-4.5v-14.5h-2.9c-0.2,0-0.5-0.1-0.6-0.2c-0.2-0.1-0.3-0.4-0.3-0.7v-1.7l3.9-0.5l1-7.3
				c0-0.2,0.2-0.4,0.3-0.6s0.4-0.2,0.6-0.2h2.1v8.2h16.4V599.9z M207.8,568.6c0,0.4-0.1,0.8-0.2,1.1s-0.4,0.7-0.7,0.9
				c-0.3,0.3-0.6,0.5-0.9,0.6c-0.4,0.2-0.7,0.2-1.1,0.2c-0.4,0-0.8-0.1-1.1-0.2s-0.7-0.4-0.9-0.6c-0.3-0.3-0.5-0.6-0.6-0.9
				c-0.2-0.4-0.2-0.7-0.2-1.1s0.1-0.8,0.2-1.2c0.2-0.4,0.4-0.7,0.6-1c0.3-0.3,0.6-0.5,0.9-0.6s0.7-0.2,1.1-0.2
				c0.4,0,0.8,0.1,1.1,0.2c0.4,0.2,0.7,0.4,0.9,0.6c0.3,0.3,0.5,0.6,0.7,1S207.8,568.2,207.8,568.6z"/>
			<path class="st7" d="M223.6,575.8c1.7,0,3.3,0.3,4.7,0.9s2.6,1.4,3.6,2.5s1.7,2.3,2.3,3.9c0.5,1.5,0.8,3.2,0.8,5.1
				c0,1.9-0.3,3.6-0.8,5.1c-0.5,1.5-1.3,2.8-2.3,3.8s-2.2,1.9-3.6,2.4s-3,0.9-4.7,0.9c-1.8,0-3.3-0.3-4.7-0.9
				c-1.4-0.6-2.6-1.4-3.6-2.4s-1.7-2.3-2.3-3.8c-0.5-1.5-0.8-3.2-0.8-5.1c0-1.9,0.3-3.5,0.8-5.1c0.5-1.5,1.3-2.8,2.3-3.9
				s2.2-1.9,3.6-2.5C220.3,576.1,221.9,575.8,223.6,575.8z M223.6,597c2.3,0,4.1-0.8,5.2-2.4s1.7-3.8,1.7-6.6c0-2.8-0.6-5-1.7-6.6
				c-1.2-1.6-2.9-2.4-5.2-2.4c-1.2,0-2.2,0.2-3.1,0.6s-1.6,1-2.2,1.8c-0.6,0.8-1,1.7-1.3,2.8c-0.3,1.1-0.4,2.4-0.4,3.8
				c0,2.8,0.6,5,1.7,6.6C219.5,596.2,221.3,597,223.6,597z"/>
			<path class="st7" d="M244.2,579.6c0.5-0.6,1.1-1.1,1.6-1.6c0.6-0.5,1.2-0.9,1.8-1.2s1.3-0.6,2.1-0.8s1.5-0.3,2.4-0.3
				c1.3,0,2.4,0.2,3.4,0.6s1.8,1,2.5,1.8c0.7,0.8,1.2,1.7,1.5,2.8c0.3,1.1,0.5,2.3,0.5,3.7v15.1h-4.2v-15.1c0-1.8-0.4-3.2-1.2-4.2
				c-0.8-1-2.1-1.5-3.7-1.5c-1.2,0-2.4,0.3-3.5,0.9c-1.1,0.6-2.1,1.4-3,2.4v17.5h-4.2v-23.7h2.5c0.6,0,1,0.3,1.1,0.9L244.2,579.6z"
				/>
			<path class="st7" d="M280.2,580.1c-0.2,0.3-0.5,0.5-0.9,0.5c-0.2,0-0.5-0.1-0.8-0.3c-0.3-0.2-0.7-0.4-1.1-0.6
				c-0.4-0.2-0.9-0.4-1.5-0.6s-1.3-0.3-2.1-0.3c-0.7,0-1.3,0.1-1.9,0.3s-1,0.4-1.4,0.7s-0.7,0.7-0.9,1.1c-0.2,0.4-0.3,0.9-0.3,1.3
				c0,0.6,0.2,1.1,0.5,1.5c0.4,0.4,0.8,0.8,1.4,1.1c0.6,0.3,1.2,0.6,2,0.8c0.7,0.2,1.5,0.5,2.3,0.7s1.5,0.5,2.3,0.9
				c0.7,0.3,1.4,0.7,2,1.2s1,1,1.4,1.7s0.5,1.5,0.5,2.4c0,1.1-0.2,2.1-0.6,3s-1,1.7-1.7,2.4s-1.7,1.2-2.8,1.6s-2.4,0.6-3.8,0.6
				c-1.7,0-3.2-0.3-4.5-0.8c-1.3-0.5-2.5-1.2-3.4-2.1l1-1.6c0.1-0.2,0.3-0.4,0.4-0.5c0.2-0.1,0.4-0.2,0.7-0.2c0.3,0,0.6,0.1,0.9,0.3
				c0.3,0.2,0.7,0.5,1.1,0.7s1,0.5,1.6,0.7c0.6,0.2,1.4,0.3,2.4,0.3c0.8,0,1.5-0.1,2.1-0.3s1.1-0.5,1.5-0.9s0.7-0.8,0.9-1.2
				s0.3-1,0.3-1.5c0-0.7-0.2-1.2-0.5-1.6s-0.8-0.8-1.4-1.1s-1.2-0.6-2-0.8c-0.7-0.2-1.5-0.5-2.3-0.7c-0.8-0.2-1.5-0.5-2.3-0.9
				c-0.7-0.3-1.4-0.7-2-1.2c-0.6-0.5-1-1.1-1.4-1.8c-0.4-0.7-0.5-1.6-0.5-2.6c0-0.9,0.2-1.8,0.6-2.6c0.4-0.8,0.9-1.6,1.6-2.2
				c0.7-0.6,1.6-1.1,2.6-1.5c1-0.4,2.2-0.6,3.6-0.6c1.6,0,3,0.2,4.2,0.7s2.3,1.2,3.2,2L280.2,580.1z"/>
			<path class="st7" d="M107.3,628.7c-0.1,0.2-0.3,0.4-0.5,0.5s-0.4,0.2-0.6,0.2c-0.3,0-0.6-0.1-0.9-0.4s-0.8-0.6-1.3-0.9
				s-1.2-0.6-1.9-0.9s-1.7-0.4-2.8-0.4c-1,0-1.9,0.1-2.7,0.4c-0.8,0.3-1.4,0.6-1.9,1.1c-0.5,0.5-0.9,1-1.2,1.7
				c-0.3,0.6-0.4,1.3-0.4,2.1c0,0.9,0.2,1.7,0.7,2.3c0.5,0.6,1.1,1.1,1.8,1.6c0.8,0.4,1.6,0.8,2.6,1.1c1,0.3,1.9,0.7,3,1
				c1,0.3,2,0.7,3,1.2c1,0.4,1.8,1,2.6,1.6c0.8,0.7,1.4,1.5,1.8,2.4c0.5,1,0.7,2.1,0.7,3.5c0,1.5-0.2,2.8-0.8,4.1
				c-0.5,1.3-1.2,2.4-2.2,3.4s-2.1,1.7-3.5,2.2s-3,0.8-4.8,0.8c-2.2,0-4.2-0.4-6-1.2s-3.3-1.9-4.6-3.2l1.3-2.2
				c0.1-0.2,0.3-0.3,0.5-0.4c0.2-0.1,0.4-0.2,0.6-0.2c0.2,0,0.4,0.1,0.7,0.2s0.6,0.4,0.9,0.6s0.7,0.5,1.1,0.8s0.9,0.6,1.4,0.8
				s1.2,0.5,1.8,0.6c0.7,0.2,1.5,0.2,2.3,0.2c1.1,0,2-0.1,2.9-0.4s1.6-0.7,2.1-1.3s1-1.2,1.3-1.9s0.5-1.6,0.5-2.5
				c0-1-0.2-1.8-0.7-2.5c-0.5-0.6-1.1-1.2-1.8-1.6c-0.8-0.4-1.6-0.8-2.6-1.1s-2-0.6-3-0.9c-1-0.3-2-0.7-3-1.1c-1-0.4-1.8-1-2.6-1.6
				c-0.8-0.7-1.4-1.5-1.8-2.5c-0.5-1-0.7-2.3-0.7-3.7c0-1.2,0.2-2.3,0.7-3.4c0.5-1.1,1.1-2.1,2-3c0.9-0.9,2-1.5,3.3-2.1
				c1.3-0.5,2.8-0.8,4.4-0.8c1.9,0,3.6,0.3,5.1,0.9c1.5,0.6,2.9,1.5,4.1,2.6L107.3,628.7z"/>
			<path class="st7" d="M120.8,657.4c-1.9,0-3.3-0.5-4.3-1.6s-1.5-2.6-1.5-4.5v-14.5h-2.9c-0.2,0-0.5-0.1-0.6-0.2
				c-0.2-0.1-0.3-0.4-0.3-0.7v-1.7l3.9-0.5l1-7.3c0-0.2,0.2-0.4,0.3-0.6s0.4-0.2,0.6-0.2h2.1v8.2h6.9v3h-6.9v14.2
				c0,1,0.2,1.7,0.7,2.2c0.5,0.5,1.1,0.7,1.9,0.7c0.4,0,0.8-0.1,1.1-0.2s0.6-0.2,0.8-0.4s0.4-0.3,0.6-0.4s0.3-0.2,0.4-0.2
				c0.2,0,0.4,0.1,0.6,0.4l1.2,2c-0.7,0.7-1.6,1.2-2.6,1.6S121.8,657.4,120.8,657.4z"/>
			<path class="st7" d="M129.7,636.7c1.3-1.3,2.7-2.2,4.2-2.8c1.5-0.6,3.2-0.9,5-0.9c1.3,0,2.5,0.2,3.5,0.7s1.9,1,2.6,1.8
				s1.2,1.7,1.6,2.8c0.4,1.1,0.5,2.3,0.5,3.7v15.2h-1.9c-0.4,0-0.7-0.1-0.9-0.2s-0.4-0.4-0.5-0.8l-0.5-2.2c-0.6,0.6-1.2,1.1-1.8,1.5
				s-1.2,0.8-1.9,1.1s-1.4,0.5-2.1,0.7s-1.6,0.2-2.5,0.2c-0.9,0-1.8-0.1-2.6-0.4c-0.8-0.3-1.5-0.6-2.1-1.2c-0.6-0.5-1.1-1.2-1.4-2
				s-0.5-1.7-0.5-2.8c0-0.9,0.3-1.8,0.8-2.7s1.4-1.6,2.5-2.3c1.2-0.7,2.7-1.2,4.5-1.7c1.9-0.4,4.1-0.7,6.8-0.7v-1.9
				c0-1.8-0.4-3.2-1.2-4.2c-0.8-0.9-2-1.4-3.5-1.4c-1,0-1.9,0.1-2.6,0.4c-0.7,0.3-1.3,0.5-1.8,0.9c-0.5,0.3-0.9,0.6-1.3,0.9
				c-0.4,0.3-0.7,0.4-1.1,0.4c-0.3,0-0.5-0.1-0.7-0.2c-0.2-0.1-0.4-0.3-0.5-0.6L129.7,636.7z M143.1,646.4c-1.9,0.1-3.6,0.2-4.9,0.5
				s-2.5,0.6-3.3,0.9c-0.9,0.4-1.5,0.9-1.9,1.4c-0.4,0.5-0.6,1.1-0.6,1.8c0,0.6,0.1,1.2,0.3,1.6c0.2,0.5,0.5,0.8,0.8,1.1
				s0.8,0.5,1.2,0.6c0.5,0.1,1,0.2,1.5,0.2c0.7,0,1.4-0.1,2-0.2s1.2-0.4,1.7-0.6s1.1-0.6,1.5-1s1-0.8,1.4-1.3V646.4z"/>
			<path class="st7" d="M175.3,657.1h-4.2v-20.2h-12.2v14.2c0,1,0.2,1.7,0.7,2.2c0.5,0.5,1.1,0.7,1.9,0.7c0.4,0,0.8-0.1,1.1-0.2
				s0.6-0.2,0.8-0.4s0.4-0.3,0.6-0.4s0.3-0.2,0.4-0.2c0.2,0,0.4,0.1,0.6,0.4l1.2,2c-0.7,0.7-1.6,1.2-2.6,1.6s-2.1,0.6-3.1,0.6
				c-1.9,0-3.3-0.5-4.3-1.6s-1.5-2.6-1.5-4.5v-14.5h-2.9c-0.2,0-0.5-0.1-0.6-0.2c-0.2-0.1-0.3-0.4-0.3-0.7v-1.7l3.9-0.5l1-7.3
				c0-0.2,0.2-0.4,0.3-0.6s0.4-0.2,0.6-0.2h2.1v8.2h16.4V657.1z M176.3,625.7c0,0.4-0.1,0.8-0.2,1.1s-0.4,0.7-0.7,0.9
				c-0.3,0.3-0.6,0.5-0.9,0.6c-0.4,0.2-0.7,0.2-1.1,0.2c-0.4,0-0.8-0.1-1.1-0.2s-0.7-0.4-0.9-0.6c-0.3-0.3-0.5-0.6-0.6-0.9
				c-0.2-0.4-0.2-0.7-0.2-1.1s0.1-0.8,0.2-1.2c0.2-0.4,0.4-0.7,0.6-1c0.3-0.3,0.6-0.5,0.9-0.6s0.7-0.2,1.1-0.2
				c0.4,0,0.8,0.1,1.1,0.2c0.4,0.2,0.7,0.4,0.9,0.6c0.3,0.3,0.5,0.6,0.7,1S176.3,625.3,176.3,625.7z"/>
			<path class="st7" d="M196,637.2c-0.2,0.3-0.5,0.5-0.9,0.5c-0.2,0-0.5-0.1-0.8-0.3c-0.3-0.2-0.7-0.4-1.1-0.6
				c-0.4-0.2-0.9-0.4-1.5-0.6s-1.3-0.3-2.1-0.3c-0.7,0-1.3,0.1-1.9,0.3s-1,0.4-1.4,0.7s-0.7,0.7-0.9,1.1c-0.2,0.4-0.3,0.9-0.3,1.3
				c0,0.6,0.2,1.1,0.5,1.5c0.4,0.4,0.8,0.8,1.4,1.1c0.6,0.3,1.2,0.6,2,0.8c0.7,0.2,1.5,0.5,2.3,0.7s1.5,0.5,2.3,0.9
				c0.7,0.3,1.4,0.7,2,1.2s1,1,1.4,1.7s0.5,1.5,0.5,2.4c0,1.1-0.2,2.1-0.6,3s-1,1.7-1.7,2.4s-1.7,1.2-2.8,1.6s-2.4,0.6-3.8,0.6
				c-1.7,0-3.2-0.3-4.5-0.8c-1.3-0.5-2.5-1.2-3.4-2.1l1-1.6c0.1-0.2,0.3-0.4,0.4-0.5c0.2-0.1,0.4-0.2,0.7-0.2c0.3,0,0.6,0.1,0.9,0.3
				c0.3,0.2,0.7,0.5,1.1,0.7s1,0.5,1.6,0.7c0.6,0.2,1.4,0.3,2.4,0.3c0.8,0,1.5-0.1,2.1-0.3s1.1-0.5,1.5-0.9s0.7-0.8,0.9-1.2
				s0.3-1,0.3-1.5c0-0.7-0.2-1.2-0.5-1.6s-0.8-0.8-1.4-1.1s-1.2-0.6-2-0.8c-0.7-0.2-1.5-0.5-2.3-0.7c-0.8-0.2-1.5-0.5-2.3-0.9
				c-0.7-0.3-1.4-0.7-2-1.2c-0.6-0.5-1-1.1-1.4-1.8c-0.4-0.7-0.5-1.6-0.5-2.6c0-0.9,0.2-1.8,0.6-2.6c0.4-0.8,0.9-1.6,1.6-2.2
				c0.7-0.6,1.6-1.1,2.6-1.5c1-0.4,2.2-0.6,3.6-0.6c1.6,0,3,0.2,4.2,0.7s2.3,1.2,3.2,2L196,637.2z"/>
			<path class="st7" d="M224.5,657.1h-4.2v-20.2h-12.2v14.2c0,1,0.2,1.7,0.7,2.2c0.5,0.5,1.1,0.7,1.9,0.7c0.4,0,0.8-0.1,1.1-0.2
				s0.6-0.2,0.8-0.4s0.4-0.3,0.6-0.4s0.3-0.2,0.4-0.2c0.2,0,0.4,0.1,0.6,0.4l1.2,2c-0.7,0.7-1.6,1.2-2.6,1.6s-2.1,0.6-3.1,0.6
				c-1.9,0-3.3-0.5-4.3-1.6s-1.5-2.6-1.5-4.5v-14.5H201c-0.2,0-0.5-0.1-0.6-0.2c-0.2-0.1-0.3-0.4-0.3-0.7v-1.7l3.9-0.5l1-7.3
				c0-0.2,0.2-0.4,0.3-0.6s0.4-0.2,0.6-0.2h2.1v8.2h16.4V657.1z M225.5,625.7c0,0.4-0.1,0.8-0.2,1.1s-0.4,0.7-0.7,0.9
				c-0.3,0.3-0.6,0.5-0.9,0.6c-0.4,0.2-0.7,0.2-1.1,0.2c-0.4,0-0.8-0.1-1.1-0.2s-0.7-0.4-0.9-0.6c-0.3-0.3-0.5-0.6-0.6-0.9
				c-0.2-0.4-0.2-0.7-0.2-1.1s0.1-0.8,0.2-1.2c0.2-0.4,0.4-0.7,0.6-1c0.3-0.3,0.6-0.5,0.9-0.6s0.7-0.2,1.1-0.2
				c0.4,0,0.8,0.1,1.1,0.2c0.4,0.2,0.7,0.4,0.9,0.6c0.3,0.3,0.5,0.6,0.7,1S225.5,625.3,225.5,625.7z"/>
			<path class="st7" d="M247.8,637.5c-0.1,0.2-0.2,0.3-0.4,0.4s-0.3,0.1-0.5,0.1c-0.2,0-0.5-0.1-0.8-0.3c-0.3-0.2-0.6-0.4-1-0.6
				c-0.4-0.2-0.9-0.4-1.5-0.6s-1.3-0.3-2.2-0.3c-1.2,0-2.2,0.2-3.1,0.6c-0.9,0.4-1.6,1-2.2,1.8c-0.6,0.8-1.1,1.7-1.4,2.8
				c-0.3,1.1-0.5,2.4-0.5,3.7c0,1.4,0.2,2.7,0.5,3.8s0.8,2.1,1.4,2.8c0.6,0.8,1.3,1.3,2.2,1.7s1.8,0.6,2.9,0.6c1,0,1.9-0.1,2.5-0.4
				s1.2-0.5,1.6-0.8s0.8-0.6,1.1-0.8s0.6-0.4,0.9-0.4c0.3,0,0.6,0.1,0.8,0.4l1.2,1.5c-0.5,0.6-1.1,1.2-1.8,1.6s-1.4,0.8-2.1,1.1
				s-1.6,0.5-2.4,0.7s-1.7,0.2-2.5,0.2c-1.5,0-2.9-0.3-4.1-0.8c-1.3-0.5-2.4-1.3-3.3-2.4s-1.7-2.3-2.2-3.8c-0.5-1.5-0.8-3.2-0.8-5.2
				c0-1.8,0.2-3.4,0.7-4.9s1.2-2.8,2.2-3.9c0.9-1.1,2.1-1.9,3.5-2.5s3-0.9,4.8-0.9c1.7,0,3.1,0.3,4.4,0.8s2.4,1.3,3.4,2.3
				L247.8,637.5z"/>
			<path class="st7" d="M267.5,637.2c-0.2,0.3-0.5,0.5-0.9,0.5c-0.2,0-0.5-0.1-0.8-0.3c-0.3-0.2-0.7-0.4-1.1-0.6
				c-0.4-0.2-0.9-0.4-1.5-0.6s-1.3-0.3-2.1-0.3c-0.7,0-1.3,0.1-1.9,0.3s-1,0.4-1.4,0.7s-0.7,0.7-0.9,1.1c-0.2,0.4-0.3,0.9-0.3,1.3
				c0,0.6,0.2,1.1,0.5,1.5c0.4,0.4,0.8,0.8,1.4,1.1c0.6,0.3,1.2,0.6,2,0.8c0.7,0.2,1.5,0.5,2.3,0.7s1.5,0.5,2.3,0.9
				c0.7,0.3,1.4,0.7,2,1.2s1,1,1.4,1.7s0.5,1.5,0.5,2.4c0,1.1-0.2,2.1-0.6,3s-1,1.7-1.7,2.4s-1.7,1.2-2.8,1.6s-2.4,0.6-3.8,0.6
				c-1.7,0-3.2-0.3-4.5-0.8c-1.3-0.5-2.5-1.2-3.4-2.1l1-1.6c0.1-0.2,0.3-0.4,0.4-0.5c0.2-0.1,0.4-0.2,0.7-0.2c0.3,0,0.6,0.1,0.9,0.3
				c0.3,0.2,0.7,0.5,1.1,0.7s1,0.5,1.6,0.7c0.6,0.2,1.4,0.3,2.4,0.3c0.8,0,1.5-0.1,2.1-0.3s1.1-0.5,1.5-0.9s0.7-0.8,0.9-1.2
				s0.3-1,0.3-1.5c0-0.7-0.2-1.2-0.5-1.6s-0.8-0.8-1.4-1.1s-1.2-0.6-2-0.8c-0.7-0.2-1.5-0.5-2.3-0.7c-0.8-0.2-1.5-0.5-2.3-0.9
				c-0.7-0.3-1.4-0.7-2-1.2c-0.6-0.5-1-1.1-1.4-1.8c-0.4-0.7-0.5-1.6-0.5-2.6c0-0.9,0.2-1.8,0.6-2.6c0.4-0.8,0.9-1.6,1.6-2.2
				c0.7-0.6,1.6-1.1,2.6-1.5c1-0.4,2.2-0.6,3.6-0.6c1.6,0,3,0.2,4.2,0.7s2.3,1.2,3.2,2L267.5,637.2z"/>
		</g>
	</g>
	<g>
		<g>
			<line class="st5" x1="1102.9" y1="439" x2="791.6" y2="295"/>
			<g>
				<polygon class="st6" points="1100.9,429.9 1100.7,438 1094.7,443.4 1113.7,444 				"/>
			</g>
			<g>
				<polygon class="st6" points="799.8,290.6 793.8,296 793.6,304.1 780.7,290 				"/>
			</g>
		</g>
	</g>
	<g>
		<g>
			<path d="M764.5,170.2c-5.3,0-10.3-1.8-13.8-3.9l-1.9,6.4c3.2,2.1,9.4,3.8,15.2,3.8c14,0,20.8-7.9,20.8-17.1
				c0-8.7-5.1-13.6-15.2-17.5c-8.2-3.2-11.8-5.9-11.8-11.5c0-4.1,3.1-8.9,11.2-8.9c5.4,0,9.3,1.8,11.3,2.8l2.1-6.3
				c-2.6-1.5-7.1-2.9-13.1-2.9c-11.6,0-19.2,6.9-19.2,16.1c0,8.4,6,13.4,15.7,16.8c8,3.1,11.2,6.3,11.2,11.8
				C776.9,166.1,772.4,170.2,764.5,170.2z"/>
			<path d="M718.9,99v94h94V99H718.9z M806.9,187h-82v-82h82V187z"/>
		</g>
		<g>
			<path d="M864.8,172.7c1.1,0,2.4,0.4,3.6,0.9c6.9,2.4,14.7,4.8,22.8,6.9l2.1-6.4c-5-0.9-11.4-2.3-17.4-3.8v-0.4
				c10-3.4,17-13.2,17-28.5c0-17.6-10.5-30.1-26.6-30.1c-16.1,0-27.7,12.3-27.7,31.3C838.6,161.8,850.7,172.2,864.8,172.7z
				 M866,117.6c12.6,0,18.8,12.3,18.8,24.2c0,13.6-6.9,24.7-19.1,24.7c-12,0-19-11.4-18.9-24C846.7,129.6,853.1,117.6,866,117.6z"/>
			<path d="M818.9,99v94h94V99H818.9z M906.9,187h-82v-82h82V187z"/>
		</g>
		<g>
			<path d="M656.3,157h21.1l6.3,19h8.2l-20.3-60h-9.3l-20.2,60h7.9L656.3,157z M663.7,133.8c1.1-3.6,2.1-6.8,3-10.8h0.2
				c0.9,3,1.8,7,3.1,10.9l5.8,17.1h-17.9L663.7,133.8z"/>
			<path d="M619.9,99v94h94V99H619.9z M707.9,187h-82v-82h82V187z"/>
		</g>
	</g>
</g>
<g id="Layer_4" class="st0">
	<polygon class="st11" points="1170.4,665 912.4,665 942.4,620 1140.4,620 	"/>
	<rect x="942.9" y="495" class="st11" width="198" height="117"/>
	<rect x="618.9" y="502" class="st12" width="120" height="158"/>
	<line class="st13" x1="287.9" y1="687" x2="322.6" y2="639"/>
	<line class="st13" x1="322.6" y1="639" x2="355.7" y2="687"/>
	<line class="st13" x1="322.9" y1="639" x2="322.9" y2="687"/>
	<circle class="st12" cx="676.9" cy="642" r="6"/>
	<rect x="183.9" y="456" class="st12" width="278" height="177"/>
</g>
</svg>
