<svg id="Layer_1" data-name="Layer 1" xmlns="http://www.w3.org/2000/svg" viewBox="0 0 299 208"><defs><style>.cls-1{fill:#ccc;}.cls-2{fill:#e74c3c;}.cls-2,.cls-3,.cls-4{opacity:0.71;}.cls-3{fill:#f1c40f;}.cls-4{fill:#2ecc71;}.cls-5{fill:#e6e6e6;}.cls-6{fill:#f2f2f2;}.cls-7{fill:#c8c8c8;}.cls-8{font-size:10px;fill:#4d4d4d;font-family:LucidaGrande-Bold, Lucida Grande;font-weight:700;}</style></defs><title>Artboard 2</title><path class="cls-1" d="M838,58H37V40a5,5,0,0,1,5-5H833a5,5,0,0,1,5,5Z"/><path class="cls-2" d="M54.8,47.5a4.71,4.71,0,1,1-4.71-4.71A4.71,4.71,0,0,1,54.8,47.5Z"/><circle class="cls-3" cx="65.5" cy="47.5" r="4.71"/><path class="cls-4" d="M85.62,47.5a4.71,4.71,0,1,1-4.71-4.71A4.71,4.71,0,0,1,85.62,47.5Z"/><path class="cls-5" d="M204,44a2.9,2.9,0,0,0-3-2H110a3,3,0,0,0-3,2l-4,12.43c-.34,1-2,1.53-2,1.53H210s-1.66-.44-2-1.53Z"/><path class="cls-6" d="M838,586.93a5.85,5.85,0,0,1-5.6,6.07H42.6a5.85,5.85,0,0,1-5.6-6.07V79H838Z"/><rect class="cls-5" x="37" y="58" width="801" height="21"/><rect class="cls-5" x="96" y="61.37" width="207" height="14" rx="1" ry="1"/><path class="cls-7" d="M68.09,72.58c.33-.32,3.46-3.61,3.46-3.61a.83.83,0,0,0,.26-.6.87.87,0,0,0-.26-.61s-3.13-3.29-3.46-3.6a.9.9,0,0,0-1.24,0,.82.82,0,0,0,0,1.21l2.88,3-2.88,3a.82.82,0,0,0,0,1.21A.92.92,0,0,0,68.09,72.58Z"/><path class="cls-7" d="M54.22,64.16c-.32.31-3.46,3.6-3.46,3.6a.87.87,0,0,0-.26.61.84.84,0,0,0,.26.6s3.14,3.3,3.46,3.61a.92.92,0,0,0,1.24,0,.82.82,0,0,0,0-1.21l-2.88-3,2.88-3a.82.82,0,0,0,0-1.21A.9.9,0,0,0,54.22,64.16Z"/><path class="cls-7" d="M91.45,68H89.84l0-.11a4.47,4.47,0,1,0-4.45,5,4.39,4.39,0,0,0,2.76-1l.24-.18-1.1-1.17-.2.14a2.8,2.8,0,0,1-1.7.56,2.89,2.89,0,1,1,2.83-3.4l0,.14h-1.8l2.51,2.79Z"/><text class="cls-8" transform="translate(105 72)">https://www.</text></svg>