<?xml version="1.0" encoding="utf-8"?>
<!-- Generator: Adobe Illustrator 16.0.0, SVG Export Plug-In . SVG Version: 6.00 Build 0)  -->
<!DOCTYPE svg PUBLIC "-//W3C//DTD SVG 1.1//EN" "http://www.w3.org/Graphics/SVG/1.1/DTD/svg11.dtd">
<svg version="1.1" id="Layer_1" xmlns="http://www.w3.org/2000/svg" xmlns:xlink="http://www.w3.org/1999/xlink" x="0px" y="0px"
	 width="455.7998px" height="413.37646px" viewBox="0 0 455.7998 413.37646" enable-background="new 0 0 455.7998 413.37646"
	 xml:space="preserve">
<g>
</g>
<g>
	<path fill="#3298CB" d="M134.56982,32.34033l32.27002,50.5498c-39.48047,25.30029-66,69.14014-67.18018,119.12988
		l-27.24023-13.33984l-32.77979,14.66016C40.36963,131.58008,78.07959,68.52002,134.56982,32.34033z"/>
	<path fill="none" d="M85.85547,222.48877c-0.54688-5.38086-0.82715-10.84277-0.82715-16.36816
		c0-56.69336,29.47168-106.50293,73.92676-134.94727"/>
	<text transform="matrix(0.09065 -0.99588 0.99588 0.09065 85.26758 196.11035)"><tspan x="0" y="0" fill="#F1F1F2" font-family="'HelveticaNeue-CondensedBold'" font-size="39.22509"> </tspan><tspan x="8.85219" y="-0.27135" fill="#F1F1F2" font-family="'HelveticaNeue-CondensedBold'" font-size="39.22509" rotate="5.11968">P</tspan><tspan x="28.41711" y="1.62989" fill="#F1F1F2" font-family="'HelveticaNeue-CondensedBold'" font-size="39.22509" rotate="10.88481">r</tspan><tspan x="40.67784" y="3.83611" fill="#F1F1F2" font-family="'HelveticaNeue-CondensedBold'" font-size="39.22509" rotate="16.29012">e</tspan><tspan x="57.40895" y="8.70666" fill="#F1F1F2" font-family="'HelveticaNeue-CondensedBold'" font-size="39.22509" rotate="22.41792">s</tspan><tspan x="72.88921" y="15.03056" fill="#F1F1F2" font-family="'HelveticaNeue-CondensedBold'" font-size="39.22509" rotate="28.53284">e</tspan><tspan x="88.23245" y="23.28009" fill="#F1F1F2" font-family="'HelveticaNeue-CondensedBold'" font-size="39.22509" rotate="34.99297">n</tspan><tspan x="103.68922" y="34.29047" fill="#F1F1F2" font-family="'HelveticaNeue-CondensedBold'" font-size="39.22509" rotate="40.32001">t</tspan></text>
</g>
<g>
	<path fill="#37B34A" d="M259.0498,0.47021l-4.07031,59.87012C251.71973,60.11035,248.42969,60,245.11914,60
		c-28.79932,0-55.65967,8.41016-78.2793,22.89014l-32.27002-50.5498C166.50977,11.88037,204.44971,0,245.11914,0
		C249.7998,0,254.44922,0.16016,259.0498,0.47021z"/>
	<path fill="none" d="M158.95508,71.17334c24.875-15.91602,54.44238-25.1416,86.16309-25.14258
		c3.64941,0,7.27051,0.12207,10.8584,0.3623"/>
	<text transform="matrix(0.92936 -0.36917 0.36917 0.92936 175.91016 61.30859)"><tspan x="0" y="0" fill="#F1F1F2" font-family="'HelveticaNeue-CondensedBold'" font-size="39.22509">A</tspan><tspan x="20.99286" y="-0.00582" fill="#F1F1F2" font-family="'HelveticaNeue-CondensedBold'" font-size="39.22509" rotate="7.2989">S</tspan><tspan x="40.37738" y="2.40515" fill="#F1F1F2" font-family="'HelveticaNeue-CondensedBold'" font-size="39.22509" rotate="14.42921">K</tspan></text>
</g>
<g>
	<path fill="#CC2029" d="M450.60938,205.48975c0,18.43066-2.43945,36.31055-7.00977,53.31055l-57.96973-15.50977
		c3.25-12.06055,4.97949-24.73047,4.97949-37.80078c0-76.90967-59.99023-140.06934-135.62988-145.14941l4.07031-59.87012
		C365.88965,7.65039,450.60938,96.86035,450.60938,205.48975z"/>
	<path fill="none" d="M300.51074,55.45801c63.38867,23.87646,103.65234,84.57959,103.55176,149.94873"/>
	<text transform="matrix(0.77852 0.62763 -0.62763 0.77852 335.90234 73.67969)"><tspan x="0" y="0" fill="#F1F1F2" font-family="'HelveticaNeue-CondensedBold'" font-size="39.22509">A</tspan><tspan x="20.99338" y="0.01857" fill="#F1F1F2" font-family="'HelveticaNeue-CondensedBold'" font-size="39.22509" rotate="7.14181">n</tspan><tspan x="39.70163" y="2.3824" fill="#F1F1F2" font-family="'HelveticaNeue-CondensedBold'" font-size="39.22509" rotate="13.48766">s</tspan><tspan x="56.27863" y="5.96765" fill="#F1F1F2" font-family="'HelveticaNeue-CondensedBold'" font-size="39.22509" rotate="21.32125">w</tspan><tspan x="81.05664" y="15.91808" fill="#F1F1F2" font-family="'HelveticaNeue-CondensedBold'" font-size="39.22509" rotate="29.13443">e</tspan><tspan x="96.3371" y="24.53751" fill="#F1F1F2" font-family="'HelveticaNeue-CondensedBold'" font-size="39.22509" rotate="34.47948">r</tspan></text>
</g>


</svg>
