<?xml version="1.0" encoding="utf-8"?>
<!-- Generator: Adobe Illustrator 19.0.0, SVG Export Plug-In . SVG Version: 6.00 Build 0)  -->
<svg version="1.1" id="Layer_1" xmlns="http://www.w3.org/2000/svg" xmlns:xlink="http://www.w3.org/1999/xlink" x="0px" y="0px"
	 viewBox="0 0 67 67" style="enable-background:new 0 0 67 67;" xml:space="preserve">
<g id="XMLID_2_">
	<path id="XMLID_3_" d="M55.9,31.9L54,29.2c0.5-0.4,2.5-1.6,2.5-5.2c0-0.5,0-1.2-0.4-1.9c-0.5-1.2-1.5-1.5-2-1.5
		c-1.1,0-1.5,0.7-1.6,1.2c-0.1,0.4-0.1,0.4-0.5,2l-0.4,2c-0.1,1.1-0.4,1.6-0.5,2.1c-0.4,0.7-1.2,2.9-4.2,2.9c-3.2,0-5.2-2.7-5.2-6.7
		c0-3.6,1.9-5.6,3.5-6.8l2,2.5c-0.9,0.5-2.5,1.6-2.5,4.3c0,1.6,0.7,3.2,2,3.2c1.5,0,1.9-1.6,2-3.1l0.4-1.9c0.5-2.4,1.5-5.5,5.1-5.5
		c4,0,5.5,3.6,5.5,7.2c0,0.9-0.1,2-0.4,3.1C58.9,28.7,57.9,30.6,55.9,31.9 M57.4,16.1H42.3V13h12.5c-5.5-5.5-12.9-8.8-21.2-8.8
		C17.5,4,4.2,17.2,4.2,33.5c0,7.9,3.2,15.1,8.3,20.5c-0.4-0.5-0.7-1.2-0.9-1.9c-0.1-1.1-0.1-1.9-0.4-4.7V33.5h4.3V48
		c0,0.9,0,2,0.4,2.9c0.9,2.1,3.5,2.5,4.7,2.5c0.7,0,2.5,0,3.7-1.1s1.2-2.5,1.2-4.6V33.6h4.3v14.9c0,2.7,0,4.8-2.5,6.8
		c-2.4,2.1-5.5,2.4-7.1,2.4c-1.5,0-2.9-0.1-4.2-0.5c-0.4-0.5-0.9-0.7-1.2-1.1c5.1,4.2,11.5,6.7,18.6,6.7c16.3,0,29.3-13.3,29.3-29.5
		C63,26.9,60.9,21,57.4,16.1"/>
</g>
</svg>
