<svg xmlns="http://www.w3.org/2000/svg" viewBox="0 0 502.92 494.61"><defs><style>.cls-1{fill:none;}.cls-1,.cls-2{stroke:#5976b6;}.cls-1,.cls-2,.cls-28,.cls-29,.cls-3,.cls-4{stroke-miterlimit:10;stroke-width:3px;}.cls-2,.cls-5{fill:#5976b6;}.cls-3{fill:#f5af18;stroke:#f5af18;}.cls-4{fill:#bbcffb;stroke:#bbcffb;}.cls-13,.cls-30,.cls-5{font-size:16px;font-family:Lato-Black, Lato;}.cls-6{letter-spacing:-0.01em;}.cls-7{letter-spacing:-0.02em;}.cls-8{letter-spacing:-0.01em;}.cls-9{letter-spacing:0em;}.cls-10{letter-spacing:-0.01em;}.cls-11{letter-spacing:-0.02em;}.cls-12{letter-spacing:-0.03em;}.cls-13{fill:#fff;}.cls-14{letter-spacing:-0.01em;}.cls-15{letter-spacing:-0.03em;}.cls-16{letter-spacing:-0.01em;}.cls-17{letter-spacing:-0.01em;}.cls-18{letter-spacing:-0.01em;}.cls-19{letter-spacing:-0.01em;}.cls-20{letter-spacing:-0.01em;}.cls-21{letter-spacing:0em;}.cls-22{letter-spacing:-0.02em;}.cls-23{letter-spacing:-0.02em;}.cls-24{letter-spacing:-0.01em;}.cls-25{letter-spacing:0em;}.cls-26{letter-spacing:-0.03em;}.cls-27{letter-spacing:-0.01em;}.cls-28{fill:#ad7352;stroke:#ad7352;}.cls-29{fill:#ffd57b;stroke:#ffd57b;}.cls-30{fill:#8c6239;}.cls-31{letter-spacing:-0.01em;}.cls-32{letter-spacing:-0.01em;}.cls-33{letter-spacing:-0.02em;}.cls-34{letter-spacing:0em;}.cls-35{letter-spacing:-0.02em;}.cls-36{letter-spacing:-0.03em;}.cls-37{letter-spacing:-0.08em;}</style></defs><title>Asset 2</title><g id="Layer_2" data-name="Layer 2"><g id="Layer_1-2" data-name="Layer 1"><path class="cls-1" d="M479.2,320.06a357.34,357.34,0,0,1-8-60.45c-.17-3.59,2.4-5.25,5.82-4.16a41.82,41.82,0,0,0,11.25,2.18,12.68,12.68,0,1,0,0-25.36A42,42,0,0,0,477,234.48c-3.42,1.09-6-.56-5.87-4.15,1.35-37.1,8.1-60.49,8.1-60.49"/><path class="cls-1" d="M192.21,111.4l-.35-.1"/><path class="cls-1" d="M191.86,111.3l-.21.76"/><path class="cls-1" d="M164,1.51h0"/><path class="cls-1" d="M314.21,1.5l-.21,0"/><path class="cls-1" d="M314.2.84l-.2.7"/><path class="cls-1" d="M314.2,151.06c0-.18-.08-.35-.11-.53"/><path class="cls-1" d="M164.2.84l-.19.67"/><path class="cls-1" d="M164.2,151.06c0-.18-.08-.35-.11-.53"/><path class="cls-1" d="M164.09,150.53l-.1,0"/><path class="cls-1" d="M314.21,150.5l-.12,0"/><path class="cls-1" d="M79.14,493.15l-1.59-.39"/><path class="cls-1" d="M180.27,23.59l-.85-.24"/><path class="cls-1" d="M329.64,23.35l-.21,0"/><path class="cls-1" d="M329.64,172.25l-.16,0"/><path class="cls-1" d="M180.32,172.06l-.9.19"/><path class="cls-1" d="M329.63,22.69l-.2.7"/><path class="cls-1" d="M329.63,172.91l-.15-.7"/><path class="cls-1" d="M180.32,172.06l-.24.85"/><path class="cls-1" d="M180.27,23.59c-.06-.3-.12-.6-.19-.9"/><path class="cls-1" d="M425.44,199.36h0"/><path class="cls-1" d="M425.49,348.24h-.07"/><path class="cls-1" d="M425.63,198.69l-.19.67"/><path class="cls-1" d="M425.63,348.91c-.05-.22-.1-.45-.14-.67"/><path class="cls-1" d="M131.64,158.35l-.43.09"/><path class="cls-1" d="M131.64,9.25l-.47-.13"/><path class="cls-1" d="M131.21,158.44c-.08.31-.13.47-.13.47"/><path class="cls-1" d="M131.17,9.12l-.09-.43"/><path class="cls-1" d="M1.52,391.38l-.1,0"/><path class="cls-1" d="M151.64,391.35l-.12,0"/><path class="cls-1" d="M1.63,241.69l-.19.67"/><path class="cls-1" d="M1.63,391.91c0-.18-.08-.35-.11-.53"/><path class="cls-1" d="M1.44,242.36h0"/><path class="cls-1" d="M151.64,242.35l-.21,0"/><path class="cls-1" d="M202.42,246.8a12.68,12.68,0,0,1-12.68,12.68,41.82,41.82,0,0,1-11.25-2.18c-3.43-1.09-6,.57-5.83,4.16a357.35,357.35,0,0,0,7.86,59.92,357.72,357.72,0,0,1-60.33,7.93c-3.59.17-5.24-2.4-4.16-5.82a42,42,0,0,0,2.18-11.25,12.68,12.68,0,1,0-25.36,0,41.89,41.89,0,0,0,2.21,11.33c1.09,3.43-.56,6-4.15,5.88-35.72-1.3-58.74-7.61-60.39-8.07a357.35,357.35,0,0,1-7.86-59.92c-.16-3.59,2.4-5.25,5.83-4.16a41.82,41.82,0,0,0,11.25,2.18,12.68,12.68,0,0,0,0-25.36,42,42,0,0,0-11.34,2.21c-3.42,1.09-6-.56-5.88-4.15,1.23-33.46,6.84-55.77,7.92-59.82.71.2,24,6.76,60.47,8.09,3.59.13,5.24-2.45,4.15-5.88a41.89,41.89,0,0,1-2.21-11.33,12.68,12.68,0,1,1,25.36,0A42,42,0,0,1,116,174.49c-1.08,3.42.57,6,4.16,5.82a356.54,356.54,0,0,0,60.24-7.92c-1.1,4.14-6.69,26.42-7.91,59.79-.13,3.59,2.46,5.24,5.88,4.15a42,42,0,0,1,11.34-2.21A12.68,12.68,0,0,1,202.42,246.8Z"/><path class="cls-1" d="M151.63,241.69l-.2.7"/><path class="cls-2" d="M188.19,112.41c-1.25,34.06-7,56.56-8,60a356.58,356.58,0,0,1-60,7.87c-3.59.17-5.24-2.4-4.16-5.82a42,42,0,0,0,2.18-11.25,12.68,12.68,0,1,0-25.36,0,41.89,41.89,0,0,0,2.21,11.33c1.09,3.43-.56,6-4.15,5.88-35.72-1.3-58.74-7.61-60.39-8.07a357.35,357.35,0,0,1-7.86-59.92c-.16-3.59,2.4-5.25,5.83-4.16a41.82,41.82,0,0,0,11.25,2.18,12.68,12.68,0,0,0,0-25.36A42,42,0,0,0,28.4,87.33c-3.42,1.09-6-.56-5.88-4.15,1.24-33.8,7-56.23,8-59.94a357.72,357.72,0,0,1,60.39-8c3.59-.16,5.24,2.4,4.16,5.83a41.83,41.83,0,0,0-2.18,11.24,12.68,12.68,0,1,0,25.36,0A41.89,41.89,0,0,0,116,21c-1.09-3.42.56-6,4.15-5.88,34,1.24,56.55,7,60,8a357.56,357.56,0,0,1,7.88,60c.16,3.59-2.4,5.24-5.83,4.15A42.14,42.14,0,0,0,171,85.12a12.68,12.68,0,0,0,0,25.36,42.34,42.34,0,0,0,11.34-2.21C185.73,107.18,188.32,108.82,188.19,112.41Z"/><path class="cls-1" d="M151.63,391.91c0-.18-.08-.35-.11-.53"/><path class="cls-1" d="M84.27,461.59l-.85-.24"/><path class="cls-1" d="M233.64,461.35l-.4.09"/><path class="cls-1" d="M188.19,410.41c-1.22,33.22-6.75,55.45-7.9,59.74-3-.83-25.67-6.76-60.14-8-3.59-.13-5.24,2.46-4.15,5.88a41.89,41.89,0,0,1,2.21,11.33,12.68,12.68,0,1,1-25.36,0A41.83,41.83,0,0,1,95,468.11c1.08-3.43-.57-6-4.16-5.83a357.49,357.49,0,0,0-59.55,7.78c1.19-4.49,6.66-26.65,7.87-59.65.13-3.59-2.46-5.23-5.88-4.14A42.34,42.34,0,0,1,22,408.48a12.68,12.68,0,1,1,0-25.36,42.14,42.14,0,0,1,11.25,2.17c3.43,1.09,6-.56,5.83-4.15a358.41,358.41,0,0,0-7.78-59.55c4.49,1.19,26.64,6.66,59.64,7.86,3.59.13,5.24-2.45,4.15-5.88a41.89,41.89,0,0,1-2.21-11.33,12.68,12.68,0,1,1,25.36,0A42,42,0,0,1,116,323.49c-1.08,3.42.57,6,4.16,5.82a356.9,356.9,0,0,0,60.05-7.87,358.32,358.32,0,0,1,7.81,59.7c.16,3.59-2.4,5.24-5.83,4.15A42.14,42.14,0,0,0,171,383.12a12.68,12.68,0,1,0,0,25.36,42.34,42.34,0,0,0,11.34-2.21C185.73,405.18,188.32,406.82,188.19,410.41Z"/><path class="cls-1" d="M233.24,461.44c-.05-.25-.1-.5-.16-.75"/><path class="cls-1" d="M84.27,461.59c-.06-.3-.12-.6-.19-.9"/><path class="cls-1" d="M196.52,382.38l-.1,0"/><path class="cls-1" d="M346.64,382.35l-.12,0"/><path class="cls-1" d="M346.64,233.25l-.15,0h0"/><path class="cls-1" d="M196.48,233.24h-.06"/><path class="cls-1" d="M196.63,232.69l-.15.55"/><path class="cls-1" d="M196.63,382.91c0-.18-.08-.35-.11-.53"/><path class="cls-1" d="M346.63,232.69s-.05.17-.14.52h0"/><path class="cls-1" d="M346.63,382.91c0-.18-.08-.35-.11-.53"/><path class="cls-1" d="M487.19,410.41c-1.25,34.06-7,56.56-8,60a356.58,356.58,0,0,1-60,7.87c-3.59.17-5.24-2.4-4.16-5.82a42,42,0,0,0,2.18-11.25,12.68,12.68,0,1,0-25.36,0,41.89,41.89,0,0,0,2.21,11.33c1.09,3.43-.56,6-4.15,5.88-35.72-1.3-58.74-7.61-60.39-8.07a357.35,357.35,0,0,1-7.86-59.92c-.16-3.59,2.4-5.25,5.83-4.16a41.82,41.82,0,0,0,11.25,2.18,12.68,12.68,0,1,0,0-25.36,42,42,0,0,0-11.34,2.21c-3.42,1.09-6-.56-5.88-4.15,1.24-33.8,7-56.23,8-59.94a357.72,357.72,0,0,1,60.39-8c3.59-.16,5.24,2.4,4.16,5.83a41.83,41.83,0,0,0-2.18,11.24,12.68,12.68,0,1,0,25.36,0A41.89,41.89,0,0,0,415,319c-1.09-3.42.56-6,4.15-5.88,34.05,1.24,56.55,7,60,8a357.56,357.56,0,0,1,7.88,60c.16,3.59-2.4,5.24-5.83,4.15A42.14,42.14,0,0,0,470,383.12a12.68,12.68,0,1,0,0,25.36,42.34,42.34,0,0,0,11.34-2.21C484.73,405.18,487.32,406.82,487.19,410.41Z"/><path class="cls-3" d="M240.13,478.25c-33.22-1.22-55.45-6.75-59.74-7.9.83-3,6.76-25.67,8-60.14.13-3.59-2.46-5.24-5.88-4.15a41.89,41.89,0,0,1-11.33,2.21,12.68,12.68,0,1,1,0-25.36,41.83,41.83,0,0,1,11.24,2.18c3.43,1.08,6-.57,5.83-4.16a357.49,357.49,0,0,0-7.78-59.55c4.49,1.19,26.65,6.66,59.65,7.87,3.59.13,5.23-2.46,4.14-5.88A42.34,42.34,0,0,1,242.06,312a12.68,12.68,0,0,1,25.36,0,42.14,42.14,0,0,1-2.17,11.25c-1.09,3.43.56,6,4.15,5.83A358.41,358.41,0,0,0,329,321.33c-1.19,4.49-6.66,26.64-7.86,59.64-.13,3.59,2.45,5.24,5.88,4.15a41.89,41.89,0,0,1,11.33-2.21,12.68,12.68,0,1,1,0,25.36,42,42,0,0,1-11.25-2.18c-3.42-1.08-6,.57-5.82,4.16a356.9,356.9,0,0,0,7.87,60.05,358.32,358.32,0,0,1-59.7,7.81c-3.59.16-5.24-2.4-4.15-5.83A42.14,42.14,0,0,0,267.42,461a12.68,12.68,0,0,0-25.36,0,42.34,42.34,0,0,0,2.21,11.34C245.36,475.79,243.72,478.38,240.13,478.25Z"/><path class="cls-4" d="M501.42,97.8a12.68,12.68,0,0,1-12.68,12.68,41.82,41.82,0,0,1-11.25-2.18c-3.43-1.09-6,.57-5.83,4.16a357.35,357.35,0,0,0,7.86,59.92,357.72,357.72,0,0,1-60.33,7.93c-3.59.17-5.24-2.4-4.16-5.82a42,42,0,0,0,2.18-11.25,12.68,12.68,0,0,0-25.36,0,41.89,41.89,0,0,0,2.21,11.33c1.09,3.43-.56,6-4.15,5.88-35.72-1.3-58.74-7.61-60.39-8.07a357.35,357.35,0,0,1-7.86-59.92c-.16-3.59,2.4-5.25,5.83-4.16a41.82,41.82,0,0,0,11.25,2.18,12.68,12.68,0,1,0,0-25.36,42,42,0,0,0-11.34,2.21c-3.42,1.09-6-.56-5.88-4.15,1.23-33.46,6.84-55.77,7.92-59.82.71.2,23.95,6.76,60.47,8.09,3.59.13,5.24-2.45,4.15-5.88a41.89,41.89,0,0,1-2.21-11.33,12.68,12.68,0,0,1,25.36,0A42,42,0,0,1,415,25.49c-1.08,3.42.57,6,4.16,5.82a356.54,356.54,0,0,0,60.24-7.92c-1.1,4.14-6.69,26.42-7.91,59.79-.13,3.59,2.46,5.24,5.88,4.15a42,42,0,0,1,11.34-2.21A12.68,12.68,0,0,1,501.42,97.8Z"/><text class="cls-5" transform="translate(222.51 91.09)"><tspan class="cls-6">P</tspan><tspan class="cls-7" x="9.94" y="0">a</tspan><tspan x="17.95" y="0">yme</tspan><tspan class="cls-8" x="48.8" y="0">n</tspan><tspan class="cls-9" x="57.81" y="0">t</tspan><tspan x="15.96" y="19.2">fl</tspan><tspan class="cls-10" x="26.08" y="19.2">o</tspan><tspan class="cls-11" x="35.22" y="19.2">w</tspan></text><text class="cls-5" transform="translate(78.92 250.09)">Securit<tspan class="cls-12" x="50.91" y="0">y</tspan></text><text class="cls-13" transform="translate(71.67 102.09)">Scalabilit<tspan class="cls-12" x="65.4" y="0">y</tspan></text><text class="cls-13" transform="translate(195.22 403.09)"><tspan class="cls-14">O</tspan><tspan x="12.91" y="0">nline</tspan><tspan class="cls-15" x="48.21" y="0"> </tspan><tspan x="51.36" y="0">Analytics</tspan></text><text class="cls-5" transform="translate(83.3 405.09)"><tspan class="cls-8">O</tspan><tspan x="12.92" y="0">ffline </tspan><tspan x="-8.4" y="19.2">Analytics</tspan></text><text class="cls-5" transform="translate(362.07 91.09)"><tspan class="cls-16">P</tspan><tspan class="cls-17" x="10.07" y="0">r</tspan><tspan x="16.03" y="0">ese</tspan><tspan class="cls-18" x="40.41" y="0">n</tspan><tspan x="49.42" y="0">t</tspan><tspan class="cls-19" x="55.56" y="0">a</tspan><tspan x="63.71" y="0">tion</tspan><tspan class="cls-20" x="10.72" y="19.2">D</tspan><tspan class="cls-21" x="22.78" y="19.2">is</tspan><tspan class="cls-17" x="34.18" y="19.2">c</tspan><tspan class="cls-22" x="41.82" y="19.2">ov</tspan><tspan x="59.18" y="19.2">er</tspan><tspan class="cls-23" x="73.9" y="19.2">y</tspan></text><path class="cls-1" d="M351.42,97.8a12.68,12.68,0,0,1-12.68,12.68,41.82,41.82,0,0,1-11.25-2.18c-3.43-1.09-6,.57-5.83,4.16a358.16,358.16,0,0,0,7.82,59.75c-2.13-.6-25-6.79-60.33-8.07-3.59-.13-5.24,2.46-4.15,5.88a41.89,41.89,0,0,1,2.21,11.33,12.68,12.68,0,1,1-25.36,0A41.83,41.83,0,0,1,244,170.11c1.08-3.43-.57-6-4.16-5.83a357.49,357.49,0,0,0-59.55,7.78c1.19-4.49,6.66-26.65,7.87-59.65.13-3.59-2.46-5.23-5.88-4.14A42.34,42.34,0,0,1,171,110.48a12.68,12.68,0,0,1,0-25.36,42.14,42.14,0,0,1,11.25,2.17c3.43,1.09,6-.56,5.83-4.15a358.41,358.41,0,0,0-7.78-59.55c4.49,1.19,26.64,6.66,59.64,7.86,3.59.13,5.24-2.45,4.15-5.88a41.89,41.89,0,0,1-2.21-11.33,12.68,12.68,0,1,1,25.36,0A42,42,0,0,1,265,25.49c-1.08,3.42.57,6,4.16,5.82a356.54,356.54,0,0,0,60.24-7.92c-1.1,4.14-6.69,26.42-7.91,59.79-.13,3.59,2.46,5.24,5.88,4.15a42,42,0,0,1,11.34-2.21A12.68,12.68,0,0,1,351.42,97.8Z"/><text class="cls-5" transform="translate(376.25 384.09)"><tspan class="cls-24">C</tspan><tspan x="10.31" y="0">o</tspan><tspan class="cls-8" x="19.61" y="0">n</tspan><tspan class="cls-25" x="28.62" y="0">t</tspan><tspan x="34.68" y="0">e</tspan><tspan class="cls-8" x="43.3" y="0">n</tspan><tspan x="52.31" y="0">t</tspan><tspan class="cls-26" x="1.82" y="19.2">R</tspan><tspan x="11.78" y="19.2">euse /</tspan><tspan class="cls-27" x="2.11" y="38.4">S</tspan><tspan x="10.88" y="38.4">haring</tspan></text><path class="cls-28" d="M352.42,246.8a12.68,12.68,0,0,1-12.68,12.68,41.82,41.82,0,0,1-11.25-2.18c-3.43-1.09-6,.57-5.83,4.16a357.35,357.35,0,0,0,7.86,59.92,357.72,357.72,0,0,1-60.33,7.93c-3.59.17-5.24-2.4-4.16-5.82a42,42,0,0,0,2.18-11.25,12.68,12.68,0,1,0-25.36,0,41.89,41.89,0,0,0,2.21,11.33c1.09,3.43-.56,6-4.15,5.88-35.72-1.3-58.74-7.61-60.39-8.07a357.35,357.35,0,0,1-7.86-59.92c-.16-3.59,2.4-5.25,5.83-4.16a41.82,41.82,0,0,0,11.25,2.18,12.68,12.68,0,0,0,0-25.36,42,42,0,0,0-11.34,2.21c-3.42,1.09-6-.56-5.88-4.15,1.24-33.8,6.95-56.23,8-59.94a357.72,357.72,0,0,1,60.39-8c3.59-.16,5.24,2.4,4.16,5.83a41.83,41.83,0,0,0-2.18,11.24,12.68,12.68,0,1,0,25.36,0A41.89,41.89,0,0,0,266,170c-1.09-3.42.56-6,4.15-5.88,35.31,1.28,58.2,7.47,60.33,8.07-1,3.62-6.72,26.07-8,60-.13,3.59,2.46,5.24,5.88,4.15a42,42,0,0,1,11.34-2.21A12.68,12.68,0,0,1,352.42,246.8Z"/><path class="cls-29" d="M398.48,235.71c30.63-18.78,63.21-33.66,80.38-64.88,0-.08,0-.16-.05-.24a356.9,356.9,0,0,1-60.05,7.87c-3.59.17-5.24-2.4-4.16-5.82a42,42,0,0,0,2.18-11.25,12.68,12.68,0,1,0-25.36,0,41.89,41.89,0,0,0,2.21,11.33c1.09,3.43-.56,6-4.15,5.88-36.52-1.33-59.76-7.89-60.47-8.09-1.08,4.05-6.69,26.36-7.92,59.82-.13,3.59,2.46,5.24,5.88,4.15a42,42,0,0,1,11.34-2.21,12.68,12.68,0,1,1,0,25.36,41.82,41.82,0,0,1-11.25-2.18c-3.43-1.09-6,.57-5.83,4.16A359,359,0,0,0,329,319C348.74,288.19,364.76,256.54,398.48,235.71Z"/><text class="cls-30" transform="translate(379.25 235.09)"><tspan class="cls-24">C</tspan><tspan x="10.31" y="0">o</tspan><tspan class="cls-8" x="19.61" y="0">n</tspan><tspan class="cls-25" x="28.62" y="0">t</tspan><tspan x="34.68" y="0">e</tspan><tspan class="cls-8" x="43.3" y="0">n</tspan><tspan x="52.31" y="0">t</tspan><tspan class="cls-31" x="-7.25" y="19.2">A</tspan><tspan x="3.96" y="19.2">uthoring</tspan><tspan x="8.76" y="38.4">(50%)</tspan></text><text class="cls-13" transform="translate(203.21 240.09)"><tspan class="cls-32">A</tspan><tspan x="11.16" y="0">cti</tspan><tspan class="cls-33" x="29.65" y="0">v</tspan><tspan class="cls-34" x="37.99" y="0">e </tspan><tspan class="cls-35" x="50.31" y="0">L</tspan><tspan x="58.45" y="0">earning</tspan><tspan class="cls-27" x="0.2" y="19.2">Q</tspan><tspan x="13.15" y="19.2">uestion</tspan><tspan class="cls-36" x="67.14" y="19.2"> </tspan><tspan class="cls-37" x="70.35" y="19.2">T</tspan><tspan x="78.78" y="19.2">ypes</tspan></text></g></g></svg>