<?xml version="1.0" encoding="utf-8"?>
<!-- Generator: Adobe Illustrator 16.0.0, SVG Export Plug-In . SVG Version: 6.00 Build 0)  -->
<!DOCTYPE svg PUBLIC "-//W3C//DTD SVG 1.1//EN" "http://www.w3.org/Graphics/SVG/1.1/DTD/svg11.dtd">
<svg version="1.1" id="Layer_1" xmlns="http://www.w3.org/2000/svg" xmlns:xlink="http://www.w3.org/1999/xlink" x="0px" y="0px"
	 width="94px" height="94px" viewBox="0 0 94 94" enable-background="new 0 0 94 94" xml:space="preserve">
<g>
	<path d="M45.7832,73.72266c1.14648,0,2.38086,0.44141,3.61523,0.88086c6.87891,2.38281,14.72852,4.76367,22.75586,6.88086
		l2.21094-6.43945C69.33984,74.16406,63,72.75195,57,71.25195v-0.35156c10-3.43945,16.92578-13.23047,16.92578-28.48779
		c0-17.55078-10.5-30.07422-26.64062-30.07422c-16.05078,0-27.69531,12.25879-27.69531,31.30957
		C19.58984,62.78516,31.67188,73.19336,45.7832,73.72266z M47.01758,18.6001c12.61133,0,18.78516,12.25879,18.78516,24.16602
		c0,13.58154-6.87891,24.69482-19.13867,24.69482c-11.99414,0-18.96094-11.37695-18.87305-23.98975
		C27.70312,30.59424,34.05273,18.6001,47.01758,18.6001z"/>
	<path d="M0,0v94h94V0H0z M88,88H6V6h82V88z"/>
</g>
</svg>
