<?xml version="1.0" encoding="utf-8"?>
<!-- Generator: Adobe Illustrator 16.0.0, SVG Export Plug-In . SVG Version: 6.00 Build 0)  -->
<!DOCTYPE svg PUBLIC "-//W3C//DTD SVG 1.1//EN" "http://www.w3.org/Graphics/SVG/1.1/DTD/svg11.dtd">
<svg version="1.1" id="Layer_1" xmlns="http://www.w3.org/2000/svg" xmlns:xlink="http://www.w3.org/1999/xlink" x="0px" y="0px"
	 width="94px" height="94px" viewBox="0 0 94 94" enable-background="new 0 0 94 94" xml:space="preserve">
<g>
	<path d="M45.50586,71.20898c-5.29199,0-10.31934-1.76367-13.75879-3.88086l-1.94043,6.43848
		c3.17578,2.11621,9.4375,3.79199,15.16992,3.79199c14.02344,0,20.81445-7.9375,20.81445-17.10938
		c0-8.73145-5.11621-13.58203-15.16992-17.46289c-8.20215-3.1748-11.81836-5.90918-11.81836-11.46533
		c0-4.05713,3.08691-8.90771,11.20117-8.90771c5.37988,0,9.34863,1.76367,11.28906,2.82227l2.11621-6.26221
		c-2.64551-1.49902-7.05566-2.91016-13.14062-2.91016c-11.55371,0-19.22656,6.87939-19.22656,16.13965
		c0,8.37891,5.99707,13.40576,15.69824,16.84521c8.02637,3.08789,11.20117,6.26172,11.20117,11.81836
		C57.94141,67.06445,53.35547,71.20898,45.50586,71.20898z"/>
	<path d="M0,0v94h94V0H0z M88,88H6V6h82V88z"/>
</g>
</svg>
