<?xml version="1.0" encoding="utf-8"?>
<!-- Generator: Adobe Illustrator 16.0.0, SVG Export Plug-In . SVG Version: 6.00 Build 0)  -->
<!DOCTYPE svg PUBLIC "-//W3C//DTD SVG 1.1//EN" "http://www.w3.org/Graphics/SVG/1.1/DTD/svg11.dtd">
<svg version="1.1" id="Layer_1" xmlns="http://www.w3.org/2000/svg" xmlns:xlink="http://www.w3.org/1999/xlink" x="0px" y="0px"
	 width="733.0566px" height="409px" viewBox="0 0 733.0566 409" enable-background="new 0 0 733.0566 409" xml:space="preserve">
<g class="substep">
	<g>
		<rect x="491" y="36" fill="#F4F4F4" width="239" height="369"/>
		<rect x="500" y="124" fill="#DDDDDD" width="221" height="7"/>
		<rect x="500" y="138" fill="#DDDDDD" width="221" height="7"/>
		<rect x="500" y="152" fill="#DDDDDD" width="221" height="7"/>
		<rect x="500" y="167" fill="#DDDDDD" width="221" height="7"/>
		<rect x="502" y="45" fill="#DDDDDD" width="51" height="61"/>
		<rect x="588" y="59" fill="#DDDDDD" width="122" height="7"/>
		<rect x="618" y="80" fill="#DDDDDD" width="92" height="4"/>
		<rect x="618" y="72" fill="#DDDDDD" width="92" height="4"/>
	</g>
	<g>
		<path fill="none" stroke="#5976B6" stroke-width="3" stroke-miterlimit="10" d="M731.2822,407.5H491.9121
			c-0.4395,0-2.4121-1.7568-2.4121-2.6787V34.5h242v370.3213C731.5,405.7432,731.7236,407.5,731.2822,407.5z"/>
		<text transform="matrix(1 0 0 1 564.5381 23.4824)" font-family="'LucidaGrande'" font-size="10.0054">http://example.com/</text>
		<path fill="#5976B6" stroke="#5976B6" stroke-width="3" stroke-miterlimit="10" d="M729.46,1.5H490.5498
			c-0.8896,0-1.0498,1.6201-1.0498,3.46V31.5h242V4.96C731.5,3.1201,730.3496,1.5,729.46,1.5z M723.9102,28.5h-165.79
			c-2.0498,0-3.71-3.4297-3.71-8.5s1.6602-8.5,3.71-8.5h165.79c2.0498,0,3.71,3.4297,3.71,8.5S725.96,28.5,723.9102,28.5z"/>
		<g>
			<circle fill="#FF0000" cx="499.3794" cy="9.4082" r="3.5396"/>
			<circle fill="#FFFF00" cx="510.3423" cy="9.4082" r="3.5396"/>
			<circle fill="#8CC63F" cx="520.9497" cy="9.4082" r="3.5396"/>
		</g>
	</g>
</g>
<g class="substep">
	<path fill="#dbb089" stroke="#975c22" stroke-width="3" stroke-miterlimit="10" d="M223.7358,407.5H9.9082
		c-3.6895,0-8.4082-4.6279-8.4082-9.0996V161.5h227v236.9004C228.5,402.8721,227.4263,407.5,223.7358,407.5z"/>
	<rect x="1.5" y="107.5" fill="#dbb089" stroke="#975c22" stroke-width="3" stroke-miterlimit="10" width="227" height="50"/>
	<rect x="1.5" y="55.5" fill="#dbb089" stroke="#975c22" stroke-width="3" stroke-miterlimit="10" width="227" height="48"/>
	<path fill="#dbb089" stroke="#975c22" stroke-width="3" stroke-miterlimit="10" d="M1.5,51.5V4.3105
		C1.5,0.4111,5.2163,2.5,8.9062,2.5h213.8804c3.6904,0,5.7134-2.0889,5.7134,1.8105V51.5H1.5z"/>
	<path fill="#8CC63F" d="M217.5059,25.9395c0,2.416-1.958,4.376-4.3779,4.376c-2.4185,0-4.3809-1.96-4.3809-4.376
		c0-2.4199,1.9624-4.3848,4.3809-4.3848C215.5479,21.5547,217.5059,23.5195,217.5059,25.9395z"/>
	<path fill="#FCEE21" d="M203.3574,25.9395c0,2.416-1.9609,4.376-4.3838,4.376c-2.4165,0-4.376-1.96-4.376-4.376
		c0-2.4199,1.9595-4.3848,4.376-4.3848C201.3965,21.5547,203.3574,23.5195,203.3574,25.9395z"/>
	<path fill="#975c22" d="M166.0146,126H59.8711C55.6836,126,53,127.7988,53,130.3125v2.2734C53,135.0986,55.6836,137,59.8711,137
		h106.1436c4.188,0,7.9854-1.9014,7.9854-4.4141v-2.2734C174,127.7988,170.2026,126,166.0146,126z"/>
	<path fill="#975c22" d="M166.0146,72H59.8711C55.6836,72,53,75.1494,53,77.6641v2.2715C53,82.4492,55.6836,84,59.8711,84h106.1436
		c4.188,0,7.9854-1.5508,7.9854-4.0645v-2.2715C174,75.1494,170.2026,72,166.0146,72z"/>
	<path fill="#975c22" d="M166.0146,21H59.8711C55.6836,21,53,21.8926,53,24.4043v2.2744C53,29.1924,55.6836,32,59.8711,32h106.1436
		c4.188,0,7.9854-2.8076,7.9854-5.3213v-2.2744C174,21.8926,170.2026,21,166.0146,21z"/>
	<g>
		<g>
			<defs>
				<rect id="SVGID_1_" x="26.8203" y="335.7979" width="182.4961" height="49.2822"/>
			</defs>
			<clipPath id="SVGID_2_">
				<use xlink:href="#SVGID_1_"  overflow="visible"/>
			</clipPath>
			<path clip-path="url(#SVGID_2_)" fill-rule="evenodd" clip-rule="evenodd" fill="#333333" d="M54.2788,361.9893
				c0-0.5322-0.2788-1.0234-0.7344-1.2871l-12.2563-7.0488c-0.2026-0.123-0.438-0.1846-0.6714-0.1963c-0.0195,0-0.1069,0-0.127,0
				c-0.2339,0.0117-0.4658,0.0732-0.6748,0.1963l-12.2529,7.0488c-0.4565,0.2637-0.7417,0.7549-0.7417,1.2871l0.0259,18.9844
				c0,0.2656,0.1396,0.5088,0.374,0.6377c0.2246,0.1367,0.5063,0.1367,0.731,0l7.2817-4.167
				c0.4619-0.2764,0.7407-0.7568,0.7407-1.2861v-8.8672c0-0.5322,0.2783-1.0186,0.7378-1.2803l3.1035-1.7852
				c0.229-0.1367,0.4824-0.2021,0.7407-0.2021c0.251,0,0.5142,0.0654,0.7324,0.2021l3.1001,1.7852
				c0.4595,0.2617,0.7378,0.748,0.7378,1.2803v8.8672c0,0.5293,0.2881,1.0127,0.7451,1.2861l7.2808,4.167
				c0.2246,0.1367,0.5132,0.1367,0.7349,0c0.231-0.1289,0.3701-0.3721,0.3701-0.6377L54.2788,361.9893L54.2788,361.9893z"/>
			<path clip-path="url(#SVGID_2_)" fill-rule="evenodd" clip-rule="evenodd" fill="#333333" d="M118.5605,371.873
				c0,0.1309-0.0732,0.2529-0.1855,0.3203l-4.2095,2.4258c-0.1147,0.0645-0.2534,0.0645-0.3647,0l-4.2119-2.4258
				c-0.1113-0.0674-0.1831-0.1895-0.1831-0.3203v-4.8564c0-0.1357,0.0718-0.2578,0.1831-0.3242l4.2095-2.4307
				c0.1138-0.0625,0.2524-0.0625,0.3672,0l4.2114,2.4307c0.1104,0.0664,0.1836,0.1885,0.1836,0.3242V371.873L118.5605,371.873z
				 M119.6973,335.8936c-0.23-0.1289-0.5059-0.1289-0.7368,0.0068c-0.2261,0.1328-0.3638,0.375-0.3638,0.6396v18.7979
				c0,0.1855-0.0991,0.3545-0.2568,0.4502c-0.1592,0.0898-0.3584,0.0898-0.5195,0l-3.0693-1.7666
				c-0.4585-0.2666-1.0229-0.2666-1.4795,0l-12.2559,7.0684c-0.4561,0.2666-0.7373,0.7578-0.7373,1.2861v14.1475
				c0,0.5293,0.2812,1.0156,0.7373,1.2793l12.2559,7.0781c0.4565,0.2666,1.021,0.2666,1.4795,0l12.2563-7.0781
				c0.4604-0.2637,0.7407-0.75,0.7407-1.2793V341.25c0-0.5312-0.2915-1.0273-0.7588-1.291L119.6973,335.8936L119.6973,335.8936z"/>
		</g>
		<path fill-rule="evenodd" clip-rule="evenodd" fill="#333333" d="M163.5425,366.8896c0.4561-0.2666,0.7378-0.7539,0.7378-1.2832
			v-3.4268c0-0.5264-0.2817-1.0127-0.7378-1.2803l-12.1777-7.0674c-0.4595-0.2666-1.0264-0.2666-1.4844-0.0039l-12.2505,7.0713
			c-0.4551,0.2676-0.7407,0.7539-0.7407,1.2803v14.1465c0,0.5293,0.2905,1.0234,0.7476,1.2861l12.1777,6.9365
			c0.4463,0.2568,1.0005,0.2607,1.4526,0.0088l7.3643-4.0908c0.2314-0.1338,0.3765-0.377,0.3765-0.6436
			s-0.1396-0.5137-0.3701-0.6514l-12.3296-7.0742c-0.228-0.1289-0.3716-0.377-0.3716-0.6367v-4.4346
			c0-0.2676,0.1436-0.5117,0.3716-0.6406l3.8345-2.2148c0.231-0.1289,0.5137-0.1289,0.7417,0l3.8389,2.2148
			c0.2271,0.1289,0.3706,0.373,0.3706,0.6406v3.4863c0,0.2646,0.1431,0.5088,0.3701,0.6426c0.2324,0.1318,0.5093,0.1289,0.7402,0
			L163.5425,366.8896L163.5425,366.8896z"/>
		<path fill-rule="evenodd" clip-rule="evenodd" fill="#3A5C8E" d="M76.5659,353.7549c0.4595-0.2656,1.02-0.2656,1.4819,0
			l12.2505,7.0693c0.4561,0.2656,0.7441,0.7529,0.7441,1.2812v14.1543c0,0.5303-0.2881,1.0176-0.7441,1.2793l-12.2505,7.082
			c-0.4619,0.2617-1.0225,0.2617-1.4819,0l-12.2534-7.082c-0.457-0.2617-0.7407-0.749-0.7407-1.2793v-14.1543
			c0-0.5283,0.2837-1.0156,0.7407-1.2812L76.5659,353.7549L76.5659,353.7549z"/>
		<path fill="#3A5C8E" d="M187.3364,384.8213c-0.4233,0-0.8452-0.1113-1.2119-0.3262l-3.8613-2.2812
			c-0.5757-0.3223-0.2949-0.4365-0.104-0.5c0.7686-0.2686,0.9253-0.3281,1.7446-0.7939c0.0859-0.0488,0.1997-0.0322,0.2886,0.0205
			l2.9648,1.7617c0.1069,0.0576,0.2563,0.0576,0.354,0l11.5571-6.6738c0.1094-0.0586,0.1733-0.1826,0.1733-0.3135v-13.332
			c0-0.1318-0.064-0.2539-0.1768-0.3174l-11.5498-6.6631c-0.1089-0.0645-0.251-0.0645-0.3579,0l-11.5483,6.6631
			c-0.1113,0.0635-0.1792,0.1904-0.1792,0.3174v13.332c0,0.1309,0.0679,0.2549,0.1792,0.3115l3.1675,1.8291
			c1.7168,0.8584,2.769-0.1523,2.769-1.168v-13.1641c0-0.1885,0.1519-0.3379,0.335-0.3379h1.4663
			c0.1812,0,0.335,0.1494,0.335,0.3379v13.1641c0,2.29-1.2466,3.6064-3.4194,3.6064c-0.6699,0-1.1943,0-2.6636-0.7236
			l-3.0312-1.7451c-0.748-0.4346-1.2109-1.2422-1.2109-2.1104v-13.332c0-0.8701,0.4629-1.6768,1.2109-2.1025l11.5571-6.6807
			c0.7319-0.415,1.7036-0.415,2.4233,0l11.5547,6.6807c0.7524,0.4297,1.2168,1.2324,1.2168,2.1025v13.332
			c0,0.8682-0.4644,1.6729-1.2168,2.1104l-11.5547,6.6699C188.1821,384.71,187.7642,384.8213,187.3364,384.8213L187.3364,384.8213z"
			/>
		<path fill="#3A5C8E" d="M190.9067,375.6338c-5.0581,0-6.1191-2.3193-6.1191-4.2666c0-0.1875,0.1514-0.332,0.3394-0.332h1.4917
			c0.1646,0,0.3027,0.1201,0.3296,0.2832c0.2246,1.5215,0.8994,2.2871,3.9585,2.2871c2.4326,0,3.4678-0.5488,3.4678-1.8418
			c0-0.7451-0.291-1.2988-4.0757-1.667c-3.1646-0.3135-5.1191-1.0127-5.1191-3.542c0-2.3291,1.9663-3.7227,5.2583-3.7227
			c3.7046,0,5.5356,1.2852,5.7671,4.043c0.0098,0.0938-0.0234,0.1885-0.0884,0.2578c-0.061,0.0635-0.1523,0.1055-0.2402,0.1055
			h-1.502c-0.1528,0-0.291-0.1104-0.3262-0.2617c-0.354-1.5986-1.2363-2.1113-3.6104-2.1113c-2.6577,0-2.9604,0.9229-2.9604,1.6211
			c0,0.8389,0.3608,1.084,3.9507,1.5586c3.5513,0.4688,5.2358,1.1338,5.2358,3.6299
			C196.6641,374.1924,194.5674,375.6338,190.9067,375.6338L190.9067,375.6338z"/>
		<path fill-rule="evenodd" clip-rule="evenodd" fill="#3A5C8E" d="M150.4409,366.2266c0.0879-0.0527,0.1958-0.0527,0.2852,0
			l2.3564,1.3574c0.085,0.0488,0.1382,0.1436,0.1382,0.2451v2.7139c0,0.1016-0.0532,0.1953-0.1382,0.2461l-2.3564,1.3574
			c-0.0894,0.0508-0.1973,0.0508-0.2852,0l-2.3462-1.3574c-0.0903-0.0508-0.144-0.1445-0.144-0.2461v-2.7139
			c0-0.1016,0.0537-0.1963,0.144-0.2451L150.4409,366.2266L150.4409,366.2266z"/>
		<path fill="#3A5C8E" d="M206.7251,357.0576h0.3901c0.3169,0,0.374-0.2207,0.374-0.3506c0-0.3418-0.2344-0.3418-0.3638-0.3418
			h-0.4004V357.0576L206.7251,357.0576z M206.2534,355.9629h0.8618c0.2949,0,0.8716,0,0.8716,0.6621
			c0,0.458-0.2944,0.5498-0.4761,0.6113c0.3467,0.0215,0.3682,0.25,0.4146,0.5645c0.0234,0.2012,0.0615,0.543,0.1313,0.6611h-0.5322
			c-0.0137-0.1182-0.0923-0.7529-0.0923-0.7891c-0.0347-0.1436-0.0825-0.2119-0.2593-0.2119h-0.4355v1.001h-0.4839V355.9629
			L206.2534,355.9629z M205.2212,357.207c0,1.0361,0.8398,1.877,1.8638,1.877c1.0376,0,1.8706-0.8574,1.8706-1.877
			c0-1.0391-0.8491-1.8613-1.8706-1.8613C206.0703,355.3457,205.2212,356.1602,205.2212,357.207L205.2212,357.207z
			 M209.3164,357.2148c0,1.2217-1.001,2.2256-2.2256,2.2256c-1.2168,0-2.2236-0.9922-2.2236-2.2256
			c0-1.2617,1.0322-2.2295,2.2236-2.2295C208.291,354.9854,209.3164,355.9531,209.3164,357.2148L209.3164,357.2148z"/>
	</g>
</g>
<g>
	<polygon fill="#F6DF18" points="297.8169,38.8906 418.6514,38.8906 418.6514,159.7246 297.8169,159.7246 297.8169,38.8906 	"/>
	<path d="M338.876,134.2769c1.7837,3.1675,3.4058,5.8398,7.3096,5.8398c3.7305,0,6.0825-1.46,6.0825-7.1357V94.3721h11.3545v38.7651
		c0,11.7573-6.8911,17.106-16.9551,17.106c-9.0913,0-14.3569-4.7036-17.0337-10.3721L338.876,134.2769L338.876,134.2769z
		 M378.9883,133.2935c2.4336,3.9727,5.5996,6.8936,11.1992,6.8936c4.7051,0,7.7109-2.3506,7.7109-5.5977
		c0-3.895-3.0869-5.2729-8.2646-7.5386l-2.8408-1.2188c-8.1904-3.4902-13.6353-7.8662-13.6353-17.1104
		c0-8.5127,6.4858-14.9951,16.6294-14.9951c7.2207,0,12.4092,2.5098,16.1504,9.0884l-8.8467,5.6782
		c-1.9434-3.4902-4.0439-4.8652-7.3037-4.8652c-3.3271,0-5.4336,2.1094-5.4336,4.8652c0,3.4058,2.1094,4.7847,6.9805,6.8936
		l2.8398,1.2197c9.6455,4.1362,15.0947,8.3555,15.0947,17.8354c0,10.2202-8.0342,15.8252-18.8184,15.8252
		c-10.5439,0-17.3564-5.0269-20.689-11.6143L378.9883,133.2935L378.9883,133.2935z"/>
</g>
<g class="substep">
	<path fill="#BCD2ED" stroke="#3A5C8E" stroke-width="3" stroke-miterlimit="10" d="M565.916,282.8604
		c0,17.3594-14.0801,31.4492-31.4395,31.4492c-8.2803,0-22.3398-3.1992-34.7998-8.4199c-5.0908-2.1396-8.8906,0.6504-8.6309,6.1699
		c1.4004,29.79,5.4199,62.4404,13.71,95.4404H214.1963c0,0,10.2598-38.29,13.3994-94.1602c0.3105-5.5195-3.4492-8.0801-8.54-5.9502
		c-12.4092,5.1699-26.3496,8.2158-34.5801,8.2158c-17.3594,0-31.4395-14.1426-31.4395-31.5029
		c0-17.3701,14.0801-31.4814,31.4395-31.4814c8.2803,0,22.3408,3.1943,34.8008,8.4248c5.0898,2.1299,8.8896,0.3623,8.6299-5.1582
		c-1.4004-29.7803-5.4199-61.3877-13.71-94.3877h290.5596c0,0-10.2598,37.2402-13.3994,93.1104
		c-0.3105,5.5098,3.4502,7.5195,8.54,5.3896c12.4102-5.1699,26.3496-8.4648,34.5801-8.4648
		C551.8359,251.5352,565.916,265.5,565.916,282.8604z"/>
	<text transform="matrix(1 0 0 1 278.5723 248)"><tspan x="0" y="0" fill="#4D4D4D" font-family="'HelveticaNeue-Medium'" font-size="48">asqium</tspan><tspan x="19.1284" y="57.5996" fill="#4D4D4D" font-family="'HelveticaNeue-Light'" font-size="48">plugin</tspan></text>
</g>
</svg>
