<?xml version="1.0" encoding="utf-8"?>
<!-- Generator: Adobe Illustrator 16.0.0, SVG Export Plug-In . SVG Version: 6.00 Build 0)  -->
<!DOCTYPE svg PUBLIC "-//W3C//DTD SVG 1.1//EN" "http://www.w3.org/Graphics/SVG/1.1/DTD/svg11.dtd">
<svg version="1.1" id="Layer_1" xmlns="http://www.w3.org/2000/svg" xmlns:xlink="http://www.w3.org/1999/xlink" x="0px" y="0px"
	 width="142.35352px" height="82.03809px" viewBox="0 0 142.35352 82.03809" enable-background="new 0 0 142.35352 82.03809"
	 xml:space="preserve">
<g>
	<path d="M11.73242,46.69238l0.25488-0.58398c0.01709-0.03906,0.05078-0.05664,0.09619-0.03906
		c0.23779,0.10742,0.43604,0.18652,0.82666,0.18652c0.33936,0,0.54346-0.14746,0.54346-0.39648
		c0-0.23145-0.11328-0.35059-0.6626-0.59375c-0.70752-0.2998-1.01318-0.67383-1.01318-1.2793
		c0-0.66309,0.49805-1.15527,1.3418-1.15527c0.54883,0,0.78662,0.04004,1.2002,0.2207
		c0.05078,0.01758,0.05078,0.05664,0.03369,0.09668l-0.26611,0.52051c-0.0166,0.04004-0.05078,0.0625-0.10156,0.04004
		c-0.22119-0.09082-0.44727-0.13672-0.71338-0.13672c-0.3623,0-0.521,0.15918-0.521,0.39062
		c0,0.22656,0.08496,0.33398,0.69092,0.57812c0.70752,0.2998,0.979,0.65039,0.979,1.22852
		c0,0.79199-0.56006,1.22852-1.43213,1.22852c-0.46973,0-0.83789-0.04004-1.22266-0.23828
		C11.73242,46.7373,11.72119,46.71484,11.73242,46.69238z"/>
</g>
<g>
	<path d="M17.3584,46.18848c0,0.02832,0.01172,0.04492,0.04004,0.04492h1.48877c0.04492,0,0.06787,0.02246,0.06787,0.07324v0.57812
		c0,0.05078-0.02295,0.07324-0.06787,0.07324H16.5376c-0.05078,0-0.07324-0.02246-0.07324-0.07324v-3.94043
		c0-0.05078,0.02246-0.07324,0.07324-0.07324h0.75879c0.03955,0,0.06201,0.02246,0.06201,0.07324V46.18848z"/>
</g>
<g>
	<path d="M22.19727,46.99805c-1.3584,0-1.76611-0.74219-1.76611-2.08398c0-1.35254,0.40771-2.08301,1.76611-2.08301
		s1.76611,0.73633,1.76611,2.07812C23.96338,46.26172,23.55566,46.99805,22.19727,46.99805z M22.20312,43.55566
		c-0.54346,0-0.83789,0.44141-0.83789,1.35352c0,0.92773,0.28857,1.36426,0.83203,1.36426c0.5376,0,0.83203-0.43652,0.83203-1.35938
		S22.72949,43.55566,22.20312,43.55566z"/>
</g>
<g>
	<path d="M26.90674,46.95801c-0.02832,0-0.04541-0.0166-0.05664-0.05078l-1.15479-3.94629
		c-0.01709-0.05078,0.01123-0.08984,0.05615-0.08984h0.82666c0.04541,0,0.05078,0.0166,0.06787,0.05664l0.79834,3.13574
		l0.79834-3.13574c0.01123-0.04004,0.03369-0.05664,0.07324-0.05664h0.73633c0.05078,0,0.07324,0.02832,0.06201,0.0791
		l-1.16064,3.95703c-0.01123,0.03418-0.03369,0.05078-0.06787,0.05078H26.90674z"/>
	<path d="M31.91016,44.55176h1.2627c0.05078,0,0.0791,0.02344,0.0791,0.06836v0.58887c0,0.03906-0.02832,0.0625-0.0791,0.0625
		h-1.2627v0.91699c0,0.02832,0.01172,0.04492,0.04004,0.04492h1.59033c0.05127,0,0.07373,0.02246,0.07373,0.06836v0.58301
		c0,0.05078-0.02246,0.07324-0.07373,0.07324h-2.45117c-0.05078,0-0.07324-0.02246-0.07324-0.07324v-3.94043
		c0-0.05078,0.02246-0.07324,0.07324-0.07324h2.45117c0.05127,0,0.07373,0.02246,0.07373,0.07324v0.57715
		c0,0.05078-0.02246,0.07422-0.07373,0.07422H31.9502c-0.02832,0-0.04004,0.0166-0.04004,0.04492V44.55176z"/>
	<path d="M37.85303,45.62207v-2.67773c0-0.05078,0.01709-0.07324,0.05664-0.07324h0.72998
		c0.04541,0,0.06836,0.02246,0.06836,0.07324v3.94043c0,0.05078-0.02295,0.07324-0.06836,0.07324h-0.79248
		c-0.05078,0-0.06201-0.00586-0.0791-0.04492l-1.31348-2.70605v2.67773c0,0.05078-0.02246,0.07324-0.06787,0.07324h-0.71338
		c-0.05078,0-0.07324-0.02246-0.07324-0.07324v-3.94043c0-0.05078,0.02246-0.07324,0.07324-0.07324h0.78125
		c0.05127,0,0.0625,0.00488,0.07959,0.04492L37.85303,45.62207z"/>
	<path d="M40.75635,46.69238l0.25488-0.58398c0.01709-0.03906,0.05078-0.05664,0.09619-0.03906
		c0.23779,0.10742,0.43604,0.18652,0.82666,0.18652c0.33936,0,0.54346-0.14746,0.54346-0.39648
		c0-0.23145-0.11328-0.35059-0.6626-0.59375c-0.70752-0.2998-1.01318-0.67383-1.01318-1.2793
		c0-0.66309,0.49805-1.15527,1.3418-1.15527c0.54883,0,0.78662,0.04004,1.2002,0.2207
		c0.05078,0.01758,0.05078,0.05664,0.03369,0.09668l-0.26611,0.52051c-0.0166,0.04004-0.05078,0.0625-0.10156,0.04004
		c-0.2207-0.09082-0.44727-0.13672-0.71338-0.13672c-0.3623,0-0.521,0.15918-0.521,0.39062
		c0,0.22656,0.08496,0.33398,0.69092,0.57812c0.70752,0.2998,0.979,0.65039,0.979,1.22852
		c0,0.79199-0.56006,1.22852-1.43213,1.22852c-0.46973,0-0.83789-0.04004-1.22266-0.23828
		C40.75635,46.7373,40.74512,46.71484,40.75635,46.69238z"/>
	<path d="M47.12939,44.9375l1.4043,1.91895c0.02832,0.04492,0,0.10156-0.04541,0.10156h-0.96826
		c-0.02246,0-0.03955-0.01172-0.05078-0.02832l-1.09277-1.7041v1.65918c0,0.05078-0.02246,0.07324-0.06201,0.07324h-0.75879
		c-0.05078,0-0.07324-0.02246-0.07324-0.07324v-3.94043c0-0.05078,0.02246-0.07324,0.07324-0.07324h0.75879
		c0.03955,0,0.06201,0.02246,0.06201,0.07324v1.79492l1.08154-1.83984c0.01123-0.01758,0.02832-0.02832,0.05078-0.02832h0.87207
		c0.06201,0,0.0791,0.05664,0.05078,0.10156L47.12939,44.9375z"/>
	<path d="M51.19336,46.09766l-0.22656,0.80957c-0.01709,0.03418-0.03955,0.05078-0.07373,0.05078h-0.73584
		c-0.03955,0-0.06787-0.03418-0.05078-0.07324l1.24561-3.98535c0-0.01758,0.0166-0.02832,0.04492-0.02832h1.00195
		c0.01709,0,0.03418,0.01074,0.04541,0.03906l1.23438,3.97461c0.0166,0.03906-0.01172,0.07324-0.05127,0.07324h-0.8208
		c-0.03369,0-0.05664-0.0166-0.07373-0.05078l-0.22607-0.80957H51.19336z M52.30273,45.37891l-0.45264-1.56836l-0.45312,1.56836
		H52.30273z M51.61768,42.65039c-0.03369,0.0166-0.05615,0.00488-0.07324-0.02344l-0.11328-0.2373
		c-0.01709-0.02246-0.00586-0.04492,0.02832-0.06836l1.08105-0.67871c0.02295-0.01758,0.0625-0.01758,0.07959,0.02246
		l0.22607,0.46387c0.01709,0.02832,0.01709,0.0625-0.02246,0.0791L51.61768,42.65039z"/>
	<path d="M59.56836,46.95801c-0.03955,0-0.06201-0.02246-0.06201-0.07324v-3.24414c0-0.02832-0.01709-0.04492-0.04541-0.04492
		h-0.94531c-0.05127,0-0.07373-0.02344-0.07373-0.07422v-0.57715c0-0.05078,0.02246-0.07324,0.07373-0.07324h2.88672
		c0.04541,0,0.06836,0.02246,0.06836,0.07324v0.57715c0,0.05078-0.02295,0.07422-0.06836,0.07422h-0.96191
		c-0.02832,0-0.04004,0.0166-0.04004,0.04492v3.24414c0,0.05078-0.02246,0.07324-0.07324,0.07324H59.56836z"/>
	<path d="M64.26562,44.55176h1.2627c0.05078,0,0.0791,0.02344,0.0791,0.06836v0.58887c0,0.03906-0.02832,0.0625-0.0791,0.0625
		h-1.2627v0.91699c0,0.02832,0.01172,0.04492,0.04004,0.04492H65.896c0.05127,0,0.07373,0.02246,0.07373,0.06836v0.58301
		c0,0.05078-0.02246,0.07324-0.07373,0.07324h-2.45117c-0.05078,0-0.07324-0.02246-0.07324-0.07324v-3.94043
		c0-0.05078,0.02246-0.07324,0.07324-0.07324H65.896c0.05127,0,0.07373,0.02246,0.07373,0.07324v0.57715
		c0,0.05078-0.02246,0.07422-0.07373,0.07422h-1.59033c-0.02832,0-0.04004,0.0166-0.04004,0.04492V44.55176z"/>
	<path d="M69.71631,46.99805c-1.17188,0-1.87354-0.79883-1.87354-2.08398s0.70166-2.08301,1.87354-2.08301
		c0.47559,0,0.78125,0.05664,1.09277,0.23242c0.02832,0.0166,0.03955,0.03906,0.03955,0.05664
		c0,0.0166-0.00586,0.03906-0.01709,0.06152l-0.26611,0.50977c-0.0166,0.02832-0.03369,0.0459-0.05078,0.0459
		s-0.03418-0.00586-0.05078-0.01172c-0.22656-0.10742-0.4248-0.14746-0.67383-0.14746c-0.46973,0-1.01318,0.39062-1.01318,1.33594
		c0,0.95117,0.51514,1.33105,1.01904,1.33105c0.18652,0,0.40723-0.02344,0.67334-0.15332
		c0.03955-0.0166,0.07373-0.01172,0.09082,0.02246l0.27734,0.52637c0.02832,0.0459,0.01709,0.08496-0.02832,0.11328
		C70.46924,46.94629,70.16943,46.99805,69.71631,46.99805z"/>
	<path d="M73.72363,45.27148c-0.02832,0-0.04492,0.0166-0.04492,0.04492v1.56836c0,0.05078-0.02344,0.07324-0.0625,0.07324h-0.75879
		c-0.05078,0-0.07324-0.02246-0.07324-0.07324v-3.94043c0-0.05078,0.02246-0.07324,0.07324-0.07324h0.75879
		c0.03906,0,0.0625,0.02246,0.0625,0.07324v1.5625c0,0.02832,0.0166,0.04492,0.04492,0.04492h1.22852
		c0.02832,0,0.04492-0.0166,0.04492-0.04492v-1.5625c0-0.05078,0.02344-0.07324,0.06836-0.07324h0.75879
		c0.04492,0,0.06738,0.02246,0.06738,0.07324v3.94043c0,0.05078-0.02246,0.07324-0.06738,0.07324h-0.75879
		c-0.04492,0-0.06836-0.02246-0.06836-0.07324v-1.56836c0-0.02832-0.0166-0.04492-0.04492-0.04492H73.72363z"/>
</g>
<g>
	<path d="M80.37012,45.62207v-2.67773c0-0.05078,0.0166-0.07324,0.05664-0.07324h0.73047c0.04492,0,0.06738,0.02246,0.06738,0.07324
		v3.94043c0,0.05078-0.02246,0.07324-0.06738,0.07324h-0.79297c-0.05078,0-0.0625-0.00586-0.0791-0.04492l-1.31348-2.70605v2.67773
		c0,0.05078-0.02246,0.07324-0.06738,0.07324h-0.71387c-0.05078,0-0.07324-0.02246-0.07324-0.07324v-3.94043
		c0-0.05078,0.02246-0.07324,0.07324-0.07324h0.78125c0.05078,0,0.0625,0.00488,0.0791,0.04492L80.37012,45.62207z"/>
</g>
<g>
	<path d="M84.26465,42.87109c0.03906,0,0.0625,0.02246,0.0625,0.07324v3.94043c0,0.05078-0.02344,0.07324-0.0625,0.07324h-0.75879
		c-0.05078,0-0.07324-0.02246-0.07324-0.07324v-3.94043c0-0.05078,0.02246-0.07324,0.07324-0.07324H84.26465z"/>
	<path d="M88.29883,46.99805c-1.17188,0-1.87402-0.79883-1.87402-2.08398s0.70215-2.08301,1.87402-2.08301
		c0.47559,0,0.78125,0.05664,1.0918,0.23242c0.02832,0.0166,0.04004,0.03906,0.04004,0.05664
		c0,0.0166-0.00586,0.03906-0.0166,0.06152l-0.2666,0.50977c-0.0166,0.02832-0.03418,0.0459-0.05078,0.0459
		s-0.03418-0.00586-0.05078-0.01172c-0.22656-0.10742-0.4248-0.14746-0.67383-0.14746c-0.46973,0-1.01367,0.39062-1.01367,1.33594
		c0,0.95117,0.51562,1.33105,1.01953,1.33105c0.18652,0,0.40723-0.02344,0.67383-0.15332
		c0.03906-0.0166,0.07324-0.01172,0.08984,0.02246l0.27734,0.52637c0.02832,0.0459,0.01758,0.08496-0.02832,0.11328
		C89.05176,46.94629,88.75098,46.99805,88.29883,46.99805z"/>
	<path d="M93.0127,44.9375l1.40332,1.91895c0.02832,0.04492,0,0.10156-0.04492,0.10156h-0.96777
		c-0.02344,0-0.04004-0.01172-0.05176-0.02832l-1.0918-1.7041v1.65918c0,0.05078-0.02246,0.07324-0.0625,0.07324h-0.75879
		c-0.05078,0-0.07324-0.02246-0.07324-0.07324v-3.94043c0-0.05078,0.02246-0.07324,0.07324-0.07324h0.75879
		c0.04004,0,0.0625,0.02246,0.0625,0.07324v1.79492l1.08105-1.83984c0.01074-0.01758,0.02832-0.02832,0.05078-0.02832h0.87207
		c0.0625,0,0.0791,0.05664,0.05078,0.10156L93.0127,44.9375z"/>
</g>
<g>
	<path d="M97.07617,46.09766l-0.22656,0.80957c-0.0166,0.03418-0.04004,0.05078-0.07324,0.05078h-0.73633
		c-0.03906,0-0.06738-0.03418-0.05078-0.07324l1.24512-3.98535c0-0.01758,0.01758-0.02832,0.0459-0.02832h1.00195
		c0.0166,0,0.0332,0.01074,0.04492,0.03906l1.23438,3.97461c0.0166,0.03906-0.01172,0.07324-0.05078,0.07324h-0.82129
		c-0.03418,0-0.05664-0.0166-0.07324-0.05078l-0.22656-0.80957H97.07617z M98.18555,45.37891l-0.45312-1.56836l-0.45215,1.56836
		H98.18555z M97.50098,42.65039c-0.03418,0.0166-0.05664,0.00488-0.07422-0.02344l-0.11328-0.2373
		c-0.0166-0.02246-0.00488-0.04492,0.02832-0.06836l1.08203-0.67871c0.02246-0.01758,0.06152-0.01758,0.0791,0.02246
		l0.22656,0.46387c0.0166,0.02832,0.0166,0.0625-0.02344,0.0791L97.50098,42.65039z"/>
</g>
<g>
	<path d="M15.01611,53.56055c0,0.79883-0.44727,1.30273-1.5625,1.30273c-1.10986,0-1.55664-0.50391-1.55664-1.30273v-2.75098
		c0-0.05078,0.02246-0.07324,0.07324-0.07324H12.729c0.03955,0,0.06201,0.02246,0.06201,0.07324v2.72852
		c0,0.40234,0.22119,0.60059,0.6626,0.60059c0.44727,0,0.66797-0.19824,0.66797-0.60059v-2.72852
		c0-0.05078,0.02246-0.07324,0.06787-0.07324h0.76416c0.03955,0,0.0625,0.02246,0.0625,0.07324V53.56055z"/>
	<path d="M19.47656,53.4873v-2.67773c0-0.05078,0.01709-0.07324,0.05664-0.07324h0.72998c0.04541,0,0.06836,0.02246,0.06836,0.07324
		V54.75c0,0.05078-0.02295,0.07324-0.06836,0.07324H19.4707c-0.05078,0-0.06201-0.00586-0.0791-0.04492l-1.31348-2.70605V54.75
		c0,0.05078-0.02246,0.07324-0.06787,0.07324h-0.71338c-0.05078,0-0.07324-0.02246-0.07324-0.07324v-3.94043
		c0-0.05078,0.02246-0.07324,0.07324-0.07324h0.78125c0.05127,0,0.0625,0.00488,0.07959,0.04492L19.47656,53.4873z"/>
	<path d="M23.37646,50.73633c0.03955,0,0.06201,0.02246,0.06201,0.07324V54.75c0,0.05078-0.02246,0.07324-0.06201,0.07324h-0.75879
		c-0.05078,0-0.07324-0.02246-0.07324-0.07324v-3.94043c0-0.05078,0.02246-0.07324,0.07324-0.07324H23.37646z"/>
	<path d="M26.55518,54.82324c-0.02832,0-0.04541-0.0166-0.05664-0.05078l-1.15479-3.94629
		c-0.01709-0.05078,0.01123-0.08984,0.05615-0.08984h0.82666c0.04541,0,0.05078,0.0166,0.06787,0.05664l0.79834,3.13574
		l0.79834-3.13574c0.01123-0.04004,0.03369-0.05664,0.07324-0.05664h0.73633c0.05078,0,0.07324,0.02832,0.06201,0.0791
		l-1.16064,3.95703c-0.01123,0.03418-0.03369,0.05078-0.06787,0.05078H26.55518z"/>
	<path d="M31.55859,52.41699h1.2627c0.05078,0,0.0791,0.02344,0.0791,0.06836v0.58887c0,0.03906-0.02832,0.0625-0.0791,0.0625
		h-1.2627v0.91699c0,0.02832,0.01172,0.04492,0.04004,0.04492h1.59033c0.05127,0,0.07373,0.02246,0.07373,0.06836V54.75
		c0,0.05078-0.02246,0.07324-0.07373,0.07324h-2.45117c-0.05078,0-0.07324-0.02246-0.07324-0.07324v-3.94043
		c0-0.05078,0.02246-0.07324,0.07324-0.07324h2.45117c0.05127,0,0.07373,0.02246,0.07373,0.07324v0.57715
		c0,0.05078-0.02246,0.07422-0.07373,0.07422h-1.59033c-0.02832,0-0.04004,0.0166-0.04004,0.04492V52.41699z"/>
	<path d="M36.14258,53.2041V54.75c0,0.05078-0.02246,0.07324-0.06201,0.07324h-0.75879c-0.05078,0-0.07324-0.02246-0.07324-0.07324
		v-3.94043c0-0.05078,0.02246-0.07324,0.07324-0.07324h1.30762c1.0249,0,1.46094,0.45215,1.46094,1.23926
		c0,0.58887-0.27734,0.99609-0.8208,1.14941l1.03027,1.59082c0.03955,0.0625,0.00537,0.10742-0.04541,0.10742H37.354
		c-0.02832,0-0.04492-0.01172-0.05078-0.02832l-0.92285-1.59082H36.14258z M36.14258,52.56445h0.3457
		c0.41309,0,0.66797-0.18066,0.66797-0.57129c0-0.36816-0.21533-0.53223-0.64551-0.53223h-0.32275
		c-0.02832,0-0.04541,0.0166-0.04541,0.04492V52.56445z"/>
	<path d="M42.88428,50.73633c0.04541,0,0.06787,0.02246,0.06787,0.07324v0.57715c0,0.02832-0.00537,0.05078-0.02246,0.07422
		l-1.80029,2.6377h1.75488c0.04541,0,0.06787,0.02246,0.06787,0.0625V54.75c0,0.05078-0.02246,0.07324-0.06787,0.07324h-2.70557
		c-0.05127,0-0.07373-0.02246-0.07373-0.07324v-0.57227c0-0.0166,0.01123-0.04492,0.02832-0.07324l1.78857-2.64355h-1.74316
		c-0.05127,0-0.07373-0.02344-0.07373-0.06836v-0.58301c0-0.05078,0.02246-0.07324,0.07373-0.07324H42.88428z"/>
	<path d="M45.77051,50.73633c0.03955,0,0.06201,0.02246,0.06201,0.07324V54.75c0,0.05078-0.02246,0.07324-0.06201,0.07324h-0.75879
		c-0.05078,0-0.07324-0.02246-0.07324-0.07324v-3.94043c0-0.05078,0.02246-0.07324,0.07324-0.07324H45.77051z"/>
</g>
<g>
	<path d="M48.86475,54.82324c-0.03955,0-0.06201-0.02246-0.06201-0.07324v-3.24414c0-0.02832-0.01709-0.04492-0.04541-0.04492
		h-0.94531c-0.05127,0-0.07373-0.02344-0.07373-0.07422v-0.57715c0-0.05078,0.02246-0.07324,0.07373-0.07324h2.88672
		c0.04541,0,0.06836,0.02246,0.06836,0.07324v0.57715c0,0.05078-0.02295,0.07422-0.06836,0.07422h-0.9624
		c-0.02783,0-0.03955,0.0166-0.03955,0.04492V54.75c0,0.05078-0.02246,0.07324-0.07324,0.07324H48.86475z"/>
</g>
<g>
	<path d="M53.10352,53.96289l-0.22656,0.80957c-0.01709,0.03418-0.03955,0.05078-0.07373,0.05078h-0.73584
		c-0.03955,0-0.06787-0.03418-0.05078-0.07324l1.24561-3.98535c0-0.01758,0.0166-0.02832,0.04492-0.02832h1.00195
		c0.01709,0,0.03418,0.01074,0.04541,0.03906L55.58887,54.75c0.0166,0.03906-0.01172,0.07324-0.05127,0.07324h-0.8208
		c-0.03369,0-0.05664-0.0166-0.07373-0.05078l-0.22607-0.80957H53.10352z M54.21289,53.24414l-0.45264-1.56836l-0.45312,1.56836
		H54.21289z"/>
	<path d="M61.56934,54.82324c-0.02832,0-0.04541-0.0166-0.05664-0.05078l-1.15527-3.94629
		c-0.0166-0.05078,0.01172-0.08984,0.05664-0.08984h0.82666c0.04541,0,0.05078,0.0166,0.06787,0.05664l0.79834,3.13574
		l0.79834-3.13574c0.01123-0.04004,0.03369-0.05664,0.07324-0.05664h0.73633c0.05078,0,0.07324,0.02832,0.06201,0.0791
		l-1.16064,3.95703c-0.01123,0.03418-0.03369,0.05078-0.06787,0.05078H61.56934z"/>
</g>
<g>
	<path d="M70.09717,50.73633c1.12646,0,1.63623,0.32812,1.63623,1.10352c0,0.3623-0.23779,0.73633-0.83252,0.91699
		c0.63965,0.17578,0.8999,0.54883,0.8999,1.07031c0,0.72461-0.48096,0.99609-1.66406,0.99609h-1.2002
		c-0.05078,0-0.07324-0.02246-0.07324-0.07324v-3.94043c0-0.05078,0.02246-0.07324,0.07324-0.07324H70.09717z M69.80273,51.46094
		c-0.02832,0-0.04541,0.0166-0.04541,0.04492v0.95117h0.33398c0.47021,0,0.70801-0.1416,0.70801-0.52637
		c0-0.3623-0.22119-0.46973-0.60596-0.46973H69.80273z M69.75732,53.09668v0.95703c0,0.02832,0.01172,0.04492,0.04004,0.04492
		h0.48096c0.31152,0,0.58887-0.11914,0.58887-0.46973c0-0.37988-0.24902-0.53223-0.79834-0.53223H69.75732z"/>
</g>
<g>
	<path d="M74.90332,53.2041V54.75c0,0.05078-0.02344,0.07324-0.0625,0.07324h-0.75879c-0.05078,0-0.07324-0.02246-0.07324-0.07324
		v-3.94043c0-0.05078,0.02246-0.07324,0.07324-0.07324h1.30762c1.02441,0,1.46094,0.45215,1.46094,1.23926
		c0,0.58887-0.27734,0.99609-0.82129,1.14941l1.03027,1.59082c0.04004,0.0625,0.00586,0.10742-0.04492,0.10742h-0.90039
		c-0.02832,0-0.04492-0.01172-0.05078-0.02832l-0.92285-1.59082H74.90332z M74.90332,52.56445h0.34473
		c0.41309,0,0.66797-0.18066,0.66797-0.57129c0-0.36816-0.21484-0.53223-0.64551-0.53223h-0.32227
		c-0.02832,0-0.04492,0.0166-0.04492,0.04492V52.56445z"/>
</g>
<g>
	<path d="M79.86719,53.96289l-0.22656,0.80957c-0.0166,0.03418-0.04004,0.05078-0.07324,0.05078h-0.73633
		c-0.03906,0-0.06738-0.03418-0.05078-0.07324l1.24512-3.98535c0-0.01758,0.01758-0.02832,0.0459-0.02832h1.00195
		c0.0166,0,0.0332,0.01074,0.04492,0.03906L82.35254,54.75c0.0166,0.03906-0.01172,0.07324-0.05078,0.07324h-0.82129
		c-0.03418,0-0.05664-0.0166-0.07324-0.05078l-0.22656-0.80957H79.86719z M80.97656,53.24414l-0.45312-1.56836l-0.45215,1.56836
		H80.97656z"/>
</g>
<g>
	<path d="M84.72363,54.82324c-0.04004,0-0.0625-0.02246-0.0625-0.07324v-3.24414c0-0.02832-0.01758-0.04492-0.0459-0.04492h-0.94531
		c-0.05078,0-0.07324-0.02344-0.07324-0.07422v-0.57715c0-0.05078,0.02246-0.07324,0.07324-0.07324h2.8877
		c0.04492,0,0.06738,0.02246,0.06738,0.07324v0.57715c0,0.05078-0.02246,0.07422-0.06738,0.07422h-0.96289
		c-0.02832,0-0.03906,0.0166-0.03906,0.04492V54.75c0,0.05078-0.02344,0.07324-0.07422,0.07324H84.72363z"/>
	<path d="M89.3584,50.73633c0.03906,0,0.0625,0.02246,0.0625,0.07324V54.75c0,0.05078-0.02344,0.07324-0.0625,0.07324h-0.75879
		c-0.05078,0-0.07324-0.02246-0.07324-0.07324v-3.94043c0-0.05078,0.02246-0.07324,0.07324-0.07324H89.3584z"/>
	<path d="M91.46777,54.55762l0.25488-0.58398c0.0166-0.03906,0.05078-0.05664,0.0957-0.03906
		c0.23828,0.10742,0.43555,0.18652,0.82617,0.18652c0.33984,0,0.54395-0.14746,0.54395-0.39648
		c0-0.23145-0.11328-0.35059-0.66211-0.59375c-0.70801-0.2998-1.01367-0.67383-1.01367-1.2793
		c0-0.66309,0.49805-1.15527,1.3418-1.15527c0.54883,0,0.78711,0.04004,1.2002,0.2207
		c0.05078,0.01758,0.05078,0.05664,0.03418,0.09668l-0.2666,0.52051c-0.0166,0.04004-0.05078,0.0625-0.10156,0.04004
		C93.5,51.4834,93.27344,51.4375,93.00684,51.4375c-0.3623,0-0.52051,0.15918-0.52051,0.39062
		c0,0.22656,0.08496,0.33398,0.69043,0.57812c0.70801,0.2998,0.97949,0.65039,0.97949,1.22852
		c0,0.79199-0.56055,1.22852-1.43164,1.22852c-0.4707,0-0.83789-0.04004-1.22363-0.23828
		C91.46777,54.60254,91.45605,54.58008,91.46777,54.55762z"/>
	<path d="M97.08789,54.05371c0,0.02832,0.01074,0.04492,0.03906,0.04492h1.48926c0.04492,0,0.06738,0.02246,0.06738,0.07324V54.75
		c0,0.05078-0.02246,0.07324-0.06738,0.07324H96.2666c-0.05078,0-0.07324-0.02246-0.07324-0.07324v-3.94043
		c0-0.05078,0.02246-0.07324,0.07324-0.07324h0.75879c0.04004,0,0.0625,0.02246,0.0625,0.07324V54.05371z"/>
</g>
<g>
	<path d="M101.33789,53.96289l-0.22656,0.80957c-0.0166,0.03418-0.04004,0.05078-0.07324,0.05078h-0.73633
		c-0.03906,0-0.06738-0.03418-0.05078-0.07324l1.24512-3.98535c0-0.01758,0.01758-0.02832,0.0459-0.02832h1.00195
		c0.0166,0,0.0332,0.01074,0.04492,0.03906l1.23438,3.97461c0.0166,0.03906-0.01172,0.07324-0.05078,0.07324h-0.82129
		c-0.03418,0-0.05664-0.0166-0.07324-0.05078l-0.22656-0.80957H101.33789z M102.44727,53.24414l-0.45312-1.56836l-0.45215,1.56836
		H102.44727z"/>
</g>
<g>
	<path d="M106.39746,54.82324c-0.02832,0-0.04492-0.0166-0.05664-0.05078l-1.1543-3.94629
		c-0.01758-0.05078,0.01074-0.08984,0.05664-0.08984h0.82617c0.04492,0,0.05078,0.0166,0.06836,0.05664l0.79785,3.13574
		l0.79785-3.13574c0.01172-0.04004,0.03418-0.05664,0.07422-0.05664h0.73535c0.05078,0,0.07422,0.02832,0.0625,0.0791
		l-1.16016,3.95703c-0.01172,0.03418-0.03418,0.05078-0.06836,0.05078H106.39746z"/>
</g>
<g>
	<path d="M111.40137,52.41699h1.26172c0.05176,0,0.08008,0.02344,0.08008,0.06836v0.58887c0,0.03906-0.02832,0.0625-0.08008,0.0625
		h-1.26172v0.91699c0,0.02832,0.01074,0.04492,0.03906,0.04492h1.59082c0.05078,0,0.07422,0.02246,0.07422,0.06836V54.75
		c0,0.05078-0.02344,0.07324-0.07422,0.07324h-2.45117c-0.05078,0-0.07324-0.02246-0.07324-0.07324v-3.94043
		c0-0.05078,0.02246-0.07324,0.07324-0.07324h2.45117c0.05078,0,0.07422,0.02246,0.07422,0.07324v0.57715
		c0,0.05078-0.02344,0.07422-0.07422,0.07422h-1.59082c-0.02832,0-0.03906,0.0166-0.03906,0.04492V52.41699z"/>
</g>
<g>
	<path d="M12.46289,60.40723h1.26807c0.03955,0,0.06201,0.0166,0.06201,0.05664v0.3623c0,0.03906-0.02246,0.05664-0.06201,0.05664
		h-1.26807v1.74902c0,0.04004-0.01709,0.05664-0.05078,0.05664h-0.45898c-0.03955,0-0.05615-0.0166-0.05615-0.05664V58.6582
		c0-0.04004,0.0166-0.05664,0.05615-0.05664h2.14014c0.03955,0,0.06201,0.0166,0.06201,0.05664v0.35645
		c0,0.03906-0.02246,0.0625-0.06201,0.0625H12.5083c-0.02832,0-0.04541,0.0166-0.04541,0.04492V60.40723z"/>
</g>
<g>
	<path d="M16.11768,61.7207l-0.26611,0.92285c-0.01123,0.02832-0.03369,0.04492-0.06201,0.04492h-0.44727
		c-0.03955,0-0.05664-0.02832-0.03955-0.06836l1.23389-3.99023c0-0.01758,0.01123-0.02832,0.03955-0.02832h0.64551
		c0.01709,0,0.03369,0.01074,0.03955,0.0332l1.22266,3.98047c0.01709,0.05078,0,0.07324-0.04541,0.07324h-0.49219
		c-0.02832,0-0.05127-0.0166-0.05664-0.04492l-0.26611-0.92285H16.11768z M17.48779,61.24512l-0.61719-2.07227l-0.61719,2.07227
		H17.48779z"/>
	<path d="M21.4834,60.58789l1.59668,2.01562c0.02832,0.04004,0,0.08496-0.04541,0.08496h-0.57764
		c-0.0166,0-0.03369-0.00586-0.04492-0.02246l-1.45508-1.93652v1.90234c0,0.04004-0.01709,0.05664-0.05078,0.05664h-0.45898
		c-0.03955,0-0.05615-0.0166-0.05615-0.05664V58.6582c0-0.04004,0.0166-0.05664,0.05615-0.05664h0.45898
		c0.03369,0,0.05078,0.0166,0.05078,0.05664v1.83984l1.39258-1.87402c0.01123-0.01758,0.02832-0.02246,0.05078-0.02246h0.52686
		c0.04492,0,0.06787,0.05078,0.03955,0.08984L21.4834,60.58789z"/>
	<path d="M27.77148,61.4209c0,0.79199-0.2832,1.30762-1.39844,1.30762s-1.39795-0.51562-1.39795-1.30762v-2.7627
		c0-0.04004,0.0166-0.05664,0.05615-0.05664h0.45898c0.03369,0,0.05078,0.0166,0.05078,0.05664v2.88672
		c0,0.52051,0.2832,0.70801,0.83203,0.70801c0.54346,0,0.83203-0.19238,0.83203-0.70801V58.6582
		c0-0.04004,0.01709-0.05664,0.05664-0.05664h0.45312c0.03955,0,0.05664,0.0166,0.05664,0.05664V61.4209z"/>
</g>
<g>
	<path d="M30.55615,62.16797c0,0.02832,0.01123,0.04492,0.03955,0.04492h1.56836c0.03955,0,0.05664,0.02246,0.05664,0.0625v0.35645
		c0,0.04004-0.01709,0.05664-0.05664,0.05664h-2.11719c-0.04004,0-0.05664-0.0166-0.05664-0.05664V58.6582
		c0-0.04004,0.0166-0.05664,0.05664-0.05664h0.4585c0.03369,0,0.05078,0.0166,0.05078,0.05664V62.16797z"/>
</g>
<g>
	<path d="M34.45508,62.68848c-0.03418,0-0.05127-0.0166-0.05127-0.05664v-3.50977c0-0.02832-0.0166-0.04492-0.04492-0.04492
		h-0.97949c-0.03955,0-0.05664-0.02344-0.05664-0.0625V58.6582c0-0.04004,0.01709-0.05664,0.05664-0.05664h2.61523
		c0.03955,0,0.05664,0.0166,0.05664,0.05664v0.35645c0,0.03906-0.01709,0.0625-0.05664,0.0625h-0.98486
		c-0.02832,0-0.03955,0.0166-0.03955,0.04492v3.50977c0,0.04004-0.01709,0.05664-0.05664,0.05664H34.45508z"/>
</g>
<g>
	<path d="M38.12109,61.7207l-0.26611,0.92285c-0.01123,0.02832-0.03369,0.04492-0.06201,0.04492H37.3457
		c-0.04004,0-0.05664-0.02832-0.04004-0.06836l1.23438-3.99023c0-0.01758,0.01123-0.02832,0.03955-0.02832h0.64551
		c0.01709,0,0.03369,0.01074,0.03955,0.0332l1.22266,3.98047c0.01709,0.05078,0,0.07324-0.04541,0.07324h-0.49219
		c-0.02832,0-0.05127-0.0166-0.05664-0.04492l-0.26611-0.92285H38.12109z M39.49121,61.24512l-0.61719-2.07227l-0.61719,2.07227
		H39.49121z"/>
	<path d="M45.71436,58.60156c0.03369,0,0.05078,0.0166,0.05078,0.05664v3.97363c0,0.04004-0.01709,0.05664-0.05078,0.05664h-0.4585
		c-0.04004,0-0.05664-0.0166-0.05664-0.05664V58.6582c0-0.04004,0.0166-0.05664,0.05664-0.05664H45.71436z"/>
	<path d="M50.21191,61.74902V58.6582c0-0.04004,0.01709-0.05664,0.05078-0.05664h0.44727c0.04004,0,0.05664,0.0166,0.05664,0.05664
		v3.97363c0,0.04004-0.0166,0.05664-0.05664,0.05664H50.229c-0.05078,0-0.0625-0.00586-0.0791-0.04492l-1.61914-3.10254v3.09082
		c0,0.04004-0.01709,0.05664-0.05664,0.05664h-0.44189c-0.03955,0-0.05615-0.0166-0.05615-0.05664V58.6582
		c0-0.04004,0.0166-0.05664,0.05615-0.05664h0.47559c0.05127,0,0.0625,0.00488,0.07959,0.04492L50.21191,61.74902z"/>
	<path d="M53.53955,60.40723h1.26807c0.03955,0,0.06201,0.0166,0.06201,0.05664v0.3623c0,0.03906-0.02246,0.05664-0.06201,0.05664
		h-1.26807v1.74902c0,0.04004-0.01709,0.05664-0.05078,0.05664h-0.4585c-0.04004,0-0.05664-0.0166-0.05664-0.05664V58.6582
		c0-0.04004,0.0166-0.05664,0.05664-0.05664h2.13965c0.03955,0,0.06201,0.0166,0.06201,0.05664v0.35645
		c0,0.03906-0.02246,0.0625-0.06201,0.0625h-1.58496c-0.02832,0-0.04541,0.0166-0.04541,0.04492V60.40723z"/>
	<path d="M58.53125,62.72852c-1.23975,0-1.61914-0.83301-1.61914-2.08398c0-1.26758,0.36768-2.08301,1.61914-2.08301
		c1.23389,0,1.61328,0.81543,1.61328,2.08301C60.14453,61.89551,59.76514,62.72852,58.53125,62.72852z M58.53125,59.03711
		c-0.67383,0-1.0249,0.52637-1.0249,1.60742c0,1.08203,0.35107,1.6084,1.0249,1.6084c0.66211,0,1.01855-0.52637,1.01855-1.6084
		C59.5498,59.56348,59.19336,59.03711,58.53125,59.03711z"/>
	<path d="M62.75342,60.96777v1.66406c0,0.04004-0.01709,0.05664-0.05078,0.05664h-0.4585c-0.04004,0-0.05664-0.0166-0.05664-0.05664
		V58.6582c0-0.04004,0.0166-0.05664,0.05664-0.05664h1.08105c0.88867,0,1.36426,0.37305,1.36426,1.18262
		c0,0.66211-0.34521,1.01367-0.89453,1.13281l0.98535,1.68066c0.02783,0.05078,0.00537,0.09082-0.04004,0.09082H64.2085
		c-0.02832,0-0.04541-0.01172-0.05127-0.02832l-0.94531-1.69238H62.75342z M62.75342,60.52637h0.50928
		c0.54346,0,0.82666-0.2041,0.82666-0.73047c0-0.52148-0.27148-0.71875-0.81494-0.71875h-0.47559
		c-0.02832,0-0.04541,0.0166-0.04541,0.04492V60.52637z"/>
</g>
<g>
	<path d="M68.35156,62.68848c-0.02832,0-0.04541-0.01172-0.05078-0.03418l-0.9458-3.09668v3.07422
		c0,0.04004-0.0166,0.05664-0.05664,0.05664h-0.41846c-0.04004,0-0.05664-0.0166-0.05664-0.05664V58.6582
		c0-0.04004,0.0166-0.05664,0.05664-0.05664h0.61133c0.02832,0,0.05078,0.01074,0.05664,0.0332l1.05859,3.37402l1.06396-3.37402
		c0.01123-0.02246,0.03418-0.0332,0.0625-0.0332h0.56055c0.03369,0,0.05078,0.0166,0.05078,0.05664v3.97363
		c0,0.04004-0.01709,0.05664-0.05078,0.05664h-0.4248c-0.03955,0-0.05664-0.0166-0.05664-0.05664v-3.07422l-0.93994,3.09668
		c-0.00537,0.02246-0.02246,0.03418-0.05078,0.03418H68.35156z"/>
</g>
<g>
	<path d="M73.06152,61.7207l-0.26562,0.92285c-0.01172,0.02832-0.03418,0.04492-0.0625,0.04492h-0.44727
		c-0.03906,0-0.05664-0.02832-0.03906-0.06836l1.2334-3.99023c0-0.01758,0.01172-0.02832,0.04004-0.02832h0.64551
		c0.0166,0,0.03418,0.01074,0.03906,0.0332l1.22363,3.98047c0.0166,0.05078,0,0.07324-0.0459,0.07324h-0.49219
		c-0.02832,0-0.05078-0.0166-0.05664-0.04492l-0.2666-0.92285H73.06152z M74.43164,61.24512l-0.61719-2.07227l-0.61621,2.07227
		H74.43164z"/>
</g>
<g>
	<path d="M77.80957,62.68848c-0.0332,0-0.05078-0.0166-0.05078-0.05664v-3.50977c0-0.02832-0.0166-0.04492-0.04492-0.04492h-0.97949
		c-0.04004,0-0.05664-0.02344-0.05664-0.0625V58.6582c0-0.04004,0.0166-0.05664,0.05664-0.05664h2.61523
		c0.04004,0,0.05664,0.0166,0.05664,0.05664v0.35645c0,0.03906-0.0166,0.0625-0.05664,0.0625h-0.98535
		c-0.02832,0-0.03906,0.0166-0.03906,0.04492v3.50977c0,0.04004-0.01758,0.05664-0.05664,0.05664H77.80957z"/>
	<path d="M81.81641,58.60156c0.03418,0,0.05078,0.0166,0.05078,0.05664v3.97363c0,0.04004-0.0166,0.05664-0.05078,0.05664H81.3584
		c-0.04004,0-0.05664-0.0166-0.05664-0.05664V58.6582c0-0.04004,0.0166-0.05664,0.05664-0.05664H81.81641z"/>
	<path d="M85.1709,60.58789l1.5957,2.01562c0.02832,0.04004,0,0.08496-0.04492,0.08496h-0.57715
		c-0.01758,0-0.03418-0.00586-0.0459-0.02246l-1.45508-1.93652v1.90234c0,0.04004-0.0166,0.05664-0.05078,0.05664h-0.45801
		c-0.04004,0-0.05664-0.0166-0.05664-0.05664V58.6582c0-0.04004,0.0166-0.05664,0.05664-0.05664h0.45801
		c0.03418,0,0.05078,0.0166,0.05078,0.05664v1.83984l1.39258-1.87402c0.01172-0.01758,0.02832-0.02246,0.05176-0.02246h0.52637
		c0.04492,0,0.06738,0.05078,0.03906,0.08984L85.1709,60.58789z"/>
</g>
<g>
	<path d="M90.09473,60.95605v1.66992c0,0.04004-0.01758,0.0625-0.05664,0.0625h-0.45312c-0.03906,0-0.05664-0.02246-0.05664-0.0625
		v-1.66992l-1.17188-2.26465c-0.02832-0.05078-0.00586-0.08984,0.0459-0.08984h0.51465c0.02832,0,0.04492,0.01074,0.05664,0.0332
		l0.87207,1.79492l0.87695-1.79492c0.00586-0.02246,0.02246-0.0332,0.05078-0.0332h0.48145c0.0459,0,0.06836,0.03906,0.05078,0.0791
		L90.09473,60.95605z"/>
</g>
<g>
	<path d="M12.40625,69.58594l-0.26611,0.92285c-0.01123,0.02832-0.03369,0.04492-0.06201,0.04492h-0.44727
		c-0.04004,0-0.05664-0.02832-0.04004-0.06836l1.23438-3.99023c0-0.01758,0.01123-0.02832,0.03955-0.02832h0.64551
		c0.01709,0,0.03369,0.01074,0.03955,0.0332l1.22266,3.98047c0.01709,0.05078,0,0.07324-0.04541,0.07324h-0.49219
		c-0.02832,0-0.05127-0.0166-0.05664-0.04492l-0.26611-0.92285H12.40625z M13.77637,69.11035l-0.61719-2.07227l-0.61719,2.07227
		H13.77637z"/>
	<path d="M20.00537,66.4668c0.03369,0,0.05078,0.0166,0.05078,0.05664v3.97363c0,0.04004-0.01709,0.05664-0.05078,0.05664h-0.4585
		c-0.04004,0-0.05664-0.0166-0.05664-0.05664v-3.97363c0-0.04004,0.0166-0.05664,0.05664-0.05664H20.00537z"/>
	<path d="M24.50244,69.61426v-3.09082c0-0.04004,0.01709-0.05664,0.05078-0.05664h0.44727c0.03955,0,0.05664,0.0166,0.05664,0.05664
		v3.97363c0,0.04004-0.01709,0.05664-0.05664,0.05664h-0.48096c-0.05078,0-0.0625-0.00586-0.0791-0.04492l-1.61914-3.10254v3.09082
		c0,0.04004-0.01709,0.05664-0.05664,0.05664h-0.44141c-0.04004,0-0.05664-0.0166-0.05664-0.05664v-3.97363
		c0-0.04004,0.0166-0.05664,0.05664-0.05664h0.4751c0.05127,0,0.0625,0.00488,0.07959,0.04492L24.50244,69.61426z"/>
	<path d="M27.83643,68.27246h1.26807c0.03955,0,0.06201,0.0166,0.06201,0.05664v0.3623c0,0.03906-0.02246,0.05664-0.06201,0.05664
		h-1.26807v1.74902c0,0.04004-0.01709,0.05664-0.05078,0.05664h-0.4585c-0.04004,0-0.05664-0.0166-0.05664-0.05664v-3.97363
		c0-0.04004,0.0166-0.05664,0.05664-0.05664h2.13965c0.03955,0,0.06201,0.0166,0.06201,0.05664v0.35645
		c0,0.03906-0.02246,0.0625-0.06201,0.0625h-1.58496c-0.02832,0-0.04541,0.0166-0.04541,0.04492V68.27246z"/>
	<path d="M32.82764,70.59375c-1.23975,0-1.61914-0.83301-1.61914-2.08398c0-1.26758,0.36768-2.08301,1.61914-2.08301
		c1.23389,0,1.61328,0.81543,1.61328,2.08301C34.44092,69.76074,34.06152,70.59375,32.82764,70.59375z M32.82764,66.90234
		c-0.67383,0-1.0249,0.52637-1.0249,1.60742c0,1.08203,0.35107,1.6084,1.0249,1.6084c0.66211,0,1.01855-0.52637,1.01855-1.6084
		C33.84619,67.42871,33.48975,66.90234,32.82764,66.90234z"/>
	<path d="M37.0498,68.83301v1.66406c0,0.04004-0.01709,0.05664-0.05078,0.05664h-0.45898c-0.03955,0-0.05615-0.0166-0.05615-0.05664
		v-3.97363c0-0.04004,0.0166-0.05664,0.05615-0.05664h1.08154c0.88867,0,1.36426,0.37305,1.36426,1.18262
		c0,0.66211-0.34521,1.01367-0.89453,1.13281l0.98486,1.68066c0.02832,0.05078,0.00586,0.09082-0.03955,0.09082h-0.53174
		c-0.02832,0-0.04541-0.01172-0.05127-0.02832l-0.94531-1.69238H37.0498z M37.0498,68.3916h0.50928
		c0.54346,0,0.82666-0.2041,0.82666-0.73047c0-0.52148-0.27148-0.71875-0.81494-0.71875h-0.47559
		c-0.02832,0-0.04541,0.0166-0.04541,0.04492V68.3916z"/>
	<path d="M42.63037,70.55371c-0.02832,0-0.04541-0.01172-0.05078-0.03418l-0.9458-3.09668v3.07422
		c0,0.04004-0.0166,0.05664-0.05664,0.05664H41.1582c-0.03955,0-0.05615-0.0166-0.05615-0.05664v-3.97363
		c0-0.04004,0.0166-0.05664,0.05615-0.05664h0.61182c0.02832,0,0.05078,0.01074,0.05664,0.0332l1.05859,3.37402L43.94922,66.5
		c0.01123-0.02246,0.03418-0.0332,0.0625-0.0332h0.56055c0.03369,0,0.05078,0.0166,0.05078,0.05664v3.97363
		c0,0.04004-0.01709,0.05664-0.05078,0.05664h-0.4248c-0.03955,0-0.05664-0.0166-0.05664-0.05664v-3.07422l-0.93945,3.09668
		c-0.00586,0.02246-0.02295,0.03418-0.05127,0.03418H42.63037z"/>
	<path d="M47.34033,69.58594l-0.26611,0.92285c-0.01123,0.02832-0.03369,0.04492-0.06201,0.04492h-0.44727
		c-0.03955,0-0.05664-0.02832-0.03955-0.06836l1.23389-3.99023c0-0.01758,0.01123-0.02832,0.03955-0.02832h0.64551
		c0.01709,0,0.03369,0.01074,0.03955,0.0332l1.22266,3.98047c0.01709,0.05078,0,0.07324-0.04541,0.07324h-0.49219
		c-0.02832,0-0.05127-0.0166-0.05664-0.04492l-0.26611-0.92285H47.34033z M48.71045,69.11035l-0.61719-2.07227l-0.61719,2.07227
		H48.71045z"/>
	<path d="M53.17041,70.59375c-1.15479,0-1.66992-0.84961-1.66992-2.08887c0-1.22363,0.51514-2.07812,1.66992-2.07812
		c0.38477,0,0.66797,0.05078,0.98486,0.22656c0.02832,0.02246,0.02832,0.05664,0.01123,0.0957l-0.16943,0.31152
		c-0.01709,0.04004-0.05127,0.04004-0.07959,0.02344c-0.24316-0.11914-0.396-0.16992-0.71338-0.16992
		c-0.63379,0-1.10352,0.50879-1.10352,1.59082c0,1.09766,0.4585,1.60156,1.10352,1.60156c0.2832,0,0.46436-0.04004,0.71924-0.17578
		c0.03369-0.0166,0.05664-0.01074,0.07373,0.01758l0.17529,0.32227c0.01709,0.03418,0.01123,0.0625-0.01709,0.09082
		C53.82715,70.54199,53.56104,70.59375,53.17041,70.59375z M52.2417,65.64551c-0.03955-0.02832-0.05078-0.05078-0.02246-0.0791
		l0.18115-0.24316c0.02246-0.02832,0.05078-0.03418,0.0791-0.01172l0.56641,0.46973c0.02246,0.02246,0.04541,0.02246,0.06787,0
		l0.56592-0.46973c0.02832-0.02246,0.05664-0.0166,0.07959,0.01172l0.18115,0.24316c0.02832,0.02832,0.0166,0.05078-0.02295,0.0791
		l-0.79834,0.53809c-0.02783,0.0166-0.05078,0.0166-0.0791,0L52.2417,65.64551z"/>
	<path d="M58.34863,69.61426v-3.09082c0-0.04004,0.01709-0.05664,0.05078-0.05664h0.44727c0.04004,0,0.05664,0.0166,0.05664,0.05664
		v3.97363c0,0.04004-0.0166,0.05664-0.05664,0.05664h-0.48096c-0.05078,0-0.0625-0.00586-0.0791-0.04492l-1.61914-3.10254v3.09082
		c0,0.04004-0.01709,0.05664-0.05664,0.05664h-0.44189c-0.03955,0-0.05615-0.0166-0.05615-0.05664v-3.97363
		c0-0.04004,0.0166-0.05664,0.05615-0.05664h0.47559c0.05127,0,0.0625,0.00488,0.07959,0.04492L58.34863,69.61426z"/>
</g>
<g>
	<path d="M62.54932,68.82129v1.66992c0,0.04004-0.01709,0.0625-0.05664,0.0625h-0.45312c-0.03955,0-0.05664-0.02246-0.05664-0.0625
		v-1.66992l-1.17188-2.26465c-0.02832-0.05078-0.00537-0.08984,0.04541-0.08984h0.51514c0.02832,0,0.04541,0.01074,0.05664,0.0332
		l0.87158,1.79492L63.17773,66.5c0.00537-0.02246,0.02246-0.0332,0.05078-0.0332h0.48096c0.04541,0,0.06787,0.03906,0.05127,0.0791
		L62.54932,68.82129z M62.24365,66.15527c-0.02832,0.0166-0.05664-0.00586-0.07373-0.02246l-0.07373-0.14746
		c-0.00537-0.02246,0-0.05664,0.02832-0.07324l1.00195-0.58887c0.03955-0.01758,0.0625-0.00586,0.07373,0.02246l0.15283,0.28906
		c0.01709,0.03906,0.00537,0.06152-0.02832,0.0791L62.24365,66.15527z"/>
</g>
<g>
	<path d="M66.98047,70.59375c-1.15479,0-1.66992-0.84961-1.66992-2.08887c0-1.22363,0.51514-2.07812,1.66992-2.07812
		c0.38477,0,0.66797,0.05078,0.98486,0.22656c0.02832,0.02246,0.02832,0.05664,0.01123,0.0957l-0.16943,0.31152
		c-0.01709,0.04004-0.05127,0.04004-0.07959,0.02344c-0.24316-0.11914-0.396-0.16992-0.71338-0.16992
		c-0.63379,0-1.10352,0.50879-1.10352,1.59082c0,1.09766,0.4585,1.60156,1.10352,1.60156c0.2832,0,0.46436-0.04004,0.71924-0.17578
		c0.03369-0.0166,0.05664-0.01074,0.07373,0.01758l0.17529,0.32227c0.01709,0.03418,0.01123,0.0625-0.01709,0.09082
		C67.63721,70.54199,67.37109,70.59375,66.98047,70.59375z"/>
	<path d="M70.53418,68.74805c-0.02832,0-0.04541,0.0166-0.04541,0.04492v1.7041c0,0.04004-0.01709,0.05664-0.05078,0.05664h-0.4585
		c-0.04004,0-0.05664-0.0166-0.05664-0.05664v-3.97363c0-0.04004,0.0166-0.05664,0.05664-0.05664h0.4585
		c0.03369,0,0.05078,0.0166,0.05078,0.05664v1.70312c0,0.02832,0.01709,0.0459,0.04541,0.0459h1.5625
		c0.02832,0,0.04492-0.01758,0.04492-0.0459v-1.70312c0-0.04004,0.01758-0.05664,0.05664-0.05664h0.45312
		c0.03906,0,0.05664,0.0166,0.05664,0.05664v3.97363c0,0.04004-0.01758,0.05664-0.05664,0.05664h-0.45312
		c-0.03906,0-0.05664-0.0166-0.05664-0.05664v-1.7041c0-0.02832-0.0166-0.04492-0.04492-0.04492H70.53418z"/>
</g>
<g>
	<path d="M78.55762,70.55371c-0.0332,0-0.05078-0.0166-0.05078-0.05664V66.9873c0-0.02832-0.0166-0.04492-0.04492-0.04492h-0.97949
		c-0.04004,0-0.05664-0.02344-0.05664-0.0625v-0.35645c0-0.04004,0.0166-0.05664,0.05664-0.05664h2.61523
		c0.04004,0,0.05664,0.0166,0.05664,0.05664v0.35645c0,0.03906-0.0166,0.0625-0.05664,0.0625H79.1123
		c-0.02832,0-0.03906,0.0166-0.03906,0.04492v3.50977c0,0.04004-0.01758,0.05664-0.05664,0.05664H78.55762z"/>
</g>
<g>
	<path d="M82.61523,68.27246h1.3252c0.04004,0,0.0625,0.0166,0.0625,0.05664v0.3623c0,0.03906-0.02246,0.05664-0.0625,0.05664
		h-1.3252v1.28516c0,0.02832,0.01172,0.04492,0.04004,0.04492h1.64746c0.04004,0,0.0625,0.0166,0.0625,0.05664v0.3623
		c0,0.04004-0.02246,0.05664-0.0625,0.05664h-2.19629c-0.04004,0-0.05664-0.0166-0.05664-0.05664v-3.97363
		c0-0.04004,0.0166-0.05664,0.05664-0.05664h2.19629c0.04004,0,0.0625,0.0166,0.0625,0.05664v0.35645
		c0,0.03906-0.02246,0.0625-0.0625,0.0625h-1.64746c-0.02832,0-0.04004,0.0166-0.04004,0.04492V68.27246z"/>
	<path d="M87.90723,70.59375c-1.15527,0-1.66992-0.84961-1.66992-2.08887c0-1.22363,0.51465-2.07812,1.66992-2.07812
		c0.38477,0,0.66797,0.05078,0.98535,0.22656c0.02832,0.02246,0.02832,0.05664,0.01074,0.0957l-0.16992,0.31152
		c-0.0166,0.04004-0.05078,0.04004-0.0791,0.02344c-0.24316-0.11914-0.39648-0.16992-0.71289-0.16992
		c-0.63477,0-1.10449,0.50879-1.10449,1.59082c0,1.09766,0.45898,1.60156,1.10449,1.60156c0.2832,0,0.46387-0.04004,0.71875-0.17578
		c0.03418-0.0166,0.05664-0.01074,0.07324,0.01758l0.17578,0.32227c0.0166,0.03418,0.01172,0.0625-0.0166,0.09082
		C88.56348,70.54199,88.29785,70.59375,87.90723,70.59375z"/>
	<path d="M91.46094,68.74805c-0.02832,0-0.0459,0.0166-0.0459,0.04492v1.7041c0,0.04004-0.0166,0.05664-0.05078,0.05664h-0.45801
		c-0.04004,0-0.05664-0.0166-0.05664-0.05664v-3.97363c0-0.04004,0.0166-0.05664,0.05664-0.05664h0.45801
		c0.03418,0,0.05078,0.0166,0.05078,0.05664v1.70312c0,0.02832,0.01758,0.0459,0.0459,0.0459h1.5625
		c0.02832,0,0.04492-0.01758,0.04492-0.0459v-1.70312c0-0.04004,0.01758-0.05664,0.05664-0.05664h0.45312
		c0.03906,0,0.05664,0.0166,0.05664,0.05664v3.97363c0,0.04004-0.01758,0.05664-0.05664,0.05664H93.125
		c-0.03906,0-0.05664-0.0166-0.05664-0.05664v-1.7041c0-0.02832-0.0166-0.04492-0.04492-0.04492H91.46094z"/>
	<path d="M98.08398,69.61426v-3.09082c0-0.04004,0.0166-0.05664,0.05078-0.05664h0.44727c0.03906,0,0.05664,0.0166,0.05664,0.05664
		v3.97363c0,0.04004-0.01758,0.05664-0.05664,0.05664h-0.48145c-0.05078,0-0.0625-0.00586-0.0791-0.04492l-1.61914-3.10254v3.09082
		c0,0.04004-0.01758,0.05664-0.05664,0.05664H95.9043c-0.04004,0-0.05664-0.0166-0.05664-0.05664v-3.97363
		c0-0.04004,0.0166-0.05664,0.05664-0.05664h0.47559c0.05078,0,0.06152,0.00488,0.0791,0.04492L98.08398,69.61426z"/>
	<path d="M102.29492,70.59375c-1.24023,0-1.61914-0.83301-1.61914-2.08398c0-1.26758,0.36816-2.08301,1.61914-2.08301
		c1.2334,0,1.61328,0.81543,1.61328,2.08301C103.9082,69.76074,103.52832,70.59375,102.29492,70.59375z M102.29492,66.90234
		c-0.67383,0-1.02441,0.52637-1.02441,1.60742c0,1.08203,0.35059,1.6084,1.02441,1.6084c0.66211,0,1.01855-0.52637,1.01855-1.6084
		C103.31348,67.42871,102.95703,66.90234,102.29492,66.90234z"/>
</g>
<g>
	<path d="M106.52246,70.0332c0,0.02832,0.01172,0.04492,0.04004,0.04492h1.56836c0.03906,0,0.05664,0.02246,0.05664,0.0625v0.35645
		c0,0.04004-0.01758,0.05664-0.05664,0.05664h-2.11719c-0.04004,0-0.05664-0.0166-0.05664-0.05664v-3.97363
		c0-0.04004,0.0166-0.05664,0.05664-0.05664h0.45801c0.03418,0,0.05078,0.0166,0.05078,0.05664V70.0332z"/>
</g>
<g>
	<path d="M111.27637,70.59375c-1.24023,0-1.61914-0.83301-1.61914-2.08398c0-1.26758,0.36816-2.08301,1.61914-2.08301
		c1.23438,0,1.61328,0.81543,1.61328,2.08301C112.88965,69.76074,112.51074,70.59375,111.27637,70.59375z M111.27637,66.90234
		c-0.67383,0-1.02441,0.52637-1.02441,1.60742c0,1.08203,0.35059,1.6084,1.02441,1.6084c0.66211,0,1.01855-0.52637,1.01855-1.6084
		C112.29492,67.42871,111.93848,66.90234,111.27637,66.90234z M110.9873,66.15527c-0.02832,0.0166-0.05664-0.00586-0.07324-0.02246
		l-0.07422-0.14746c-0.00488-0.02246,0-0.05664,0.02832-0.07324l1.00195-0.58887c0.04004-0.01758,0.0625-0.00586,0.07422,0.02246
		l0.15234,0.28906c0.01758,0.03906,0.00586,0.06152-0.02832,0.0791L110.9873,66.15527z"/>
	<path d="M117.02148,68.91797h-0.67969c-0.03906,0-0.05664-0.01758-0.05664-0.05664v-0.35156
		c0-0.03906,0.01758-0.05664,0.05664-0.05664h1.14941c0.04004,0,0.05664,0.01758,0.05664,0.05664v1.7666
		c0,0.04004-0.01172,0.0625-0.03418,0.07324c-0.31641,0.16406-0.64551,0.24414-1.0752,0.24414
		c-1.15527,0-1.67578-0.86133-1.67578-2.08887c0-1.22363,0.52051-2.07812,1.67578-2.07812
		c0.37891,0,0.66797,0.05078,0.98438,0.22656c0.02832,0.02246,0.02832,0.05664,0.01172,0.0957l-0.16406,0.31152
		c-0.02246,0.04004-0.05078,0.0459-0.08496,0.02344c-0.24316-0.11914-0.39648-0.16992-0.71289-0.16992
		c-0.63477,0-1.11035,0.50879-1.11035,1.59082c0,1.09766,0.46484,1.61816,1.09277,1.61816c0.27734,0,0.41309-0.05078,0.56641-0.1123
		V68.91797z"/>
	<path d="M120.10547,66.4668c0.03418,0,0.05078,0.0166,0.05078,0.05664v3.97363c0,0.04004-0.0166,0.05664-0.05078,0.05664h-0.45801
		c-0.04004,0-0.05664-0.0166-0.05664-0.05664v-3.97363c0-0.04004,0.0166-0.05664,0.05664-0.05664H120.10547z"/>
</g>
<g>
	<path d="M122.38379,66.15527c-0.02832,0.0166-0.05664-0.00586-0.07324-0.02246l-0.07422-0.14746
		c-0.00488-0.02246,0-0.05664,0.02832-0.07324l1.00195-0.58887c0.04004-0.01758,0.0625-0.00586,0.07422,0.02246l0.15234,0.28906
		c0.01758,0.03906,0.00586,0.06152-0.02832,0.0791L122.38379,66.15527z M122.88184,66.4668
		c0.03418,0,0.05078,0.0166,0.05078,0.05664v3.97363c0,0.04004-0.0166,0.05664-0.05078,0.05664h-0.45801
		c-0.04004,0-0.05664-0.0166-0.05664-0.05664v-3.97363c0-0.04004,0.0166-0.05664,0.05664-0.05664H122.88184z"/>
</g>
<g>
	<path fill="#0096C9" d="M13.03711,22.97656c0.84619,0,1.53418-0.68604,1.53418-1.5332c0-0.84961-0.68799-1.53076-1.53418-1.53076
		c-0.84717,0-1.5332,0.68115-1.5332,1.53076C11.50391,22.29053,12.18994,22.97656,13.03711,22.97656"/>
	<path fill="#0096C9" d="M13.03711,31.39844c0.84619,0,1.53418-0.68506,1.53418-1.53076c0-0.84619-0.68799-1.53516-1.53418-1.53516
		c-0.84717,0-1.5332,0.68896-1.5332,1.53516C11.50391,30.71338,12.18994,31.39844,13.03711,31.39844"/>
	<path fill="#0096C9" d="M21.46094,22.97656c0.84619,0,1.53174-0.68604,1.53174-1.5332c0-0.84961-0.68555-1.53076-1.53174-1.53076
		c-0.84814,0-1.53418,0.68115-1.53418,1.53076C19.92676,22.29053,20.61279,22.97656,21.46094,22.97656"/>
	<path fill="#0096C9" d="M21.46094,31.39844c0.84619,0,1.53174-0.68506,1.53174-1.53076c0-0.84619-0.68555-1.53516-1.53174-1.53516
		c-0.84814,0-1.53418,0.68896-1.53418,1.53516C19.92676,30.71338,20.61279,31.39844,21.46094,31.39844"/>
	<path fill="#0096C9" d="M29.88037,22.97656c0.8501,0,1.53613-0.68604,1.53613-1.5332c0-0.84961-0.68604-1.53076-1.53613-1.53076
		c-0.84717,0-1.52979,0.68115-1.52979,1.53076C28.35059,22.29053,29.0332,22.97656,29.88037,22.97656"/>
	<path fill="#0096C9" d="M13.03711,14.55273c0.84619,0,1.53418-0.68604,1.53418-1.5332c0-0.84766-0.68799-1.53076-1.53418-1.53076
		c-0.84717,0-1.5332,0.68311-1.5332,1.53076C11.50391,13.8667,12.18994,14.55273,13.03711,14.55273"/>
	<path fill="#0096C9" d="M21.46094,14.55273c0.84619,0,1.53174-0.68604,1.53174-1.5332c0-0.84766-0.68555-1.53076-1.53174-1.53076
		c-0.84814,0-1.53418,0.68311-1.53418,1.53076C19.92676,13.8667,20.61279,14.55273,21.46094,14.55273"/>
	<path fill="#0096C9" d="M29.88037,14.55273c0.8501,0,1.53613-0.68604,1.53613-1.5332c0-0.84766-0.68604-1.53076-1.53613-1.53076
		c-0.84717,0-1.52979,0.68311-1.52979,1.53076C28.35059,13.8667,29.0332,14.55273,29.88037,14.55273"/>
	<path fill="#0096C9" d="M29.88037,31.39844c0.8501,0,1.53613-0.68506,1.53613-1.53076c0-0.84619-0.68604-1.53516-1.53613-1.53516
		c-0.84717,0-1.52979,0.68896-1.52979,1.53516C28.35059,30.71338,29.0332,31.39844,29.88037,31.39844"/>
	<path fill="#0096C9" d="M38.30518,22.97656c0.84717,0,1.5332-0.68604,1.5332-1.5332c0-0.84961-0.68604-1.53076-1.5332-1.53076
		s-1.53076,0.68115-1.53076,1.53076C36.77441,22.29053,37.45801,22.97656,38.30518,22.97656"/>
	<path fill="#0096C9" d="M38.30518,31.39844c0.84717,0,1.5332-0.68506,1.5332-1.53076c0-0.84619-0.68604-1.53516-1.5332-1.53516
		s-1.53076,0.68896-1.53076,1.53516C36.77441,30.71338,37.45801,31.39844,38.30518,31.39844"/>
	<path fill="#0096C9" d="M38.30518,14.55273c0.84717,0,1.5332-0.68604,1.5332-1.53516c0-0.84277-0.68604-1.53076-1.5332-1.53076
		s-1.53076,0.68799-1.53076,1.53076C36.77441,13.8667,37.45801,14.55273,38.30518,14.55273"/>
	<path d="M69.36182,31.32471c0.08105,0,0.11475-0.03516,0.11475-0.11426v-7.02686c0-0.05713,0.02246-0.08984,0.07812-0.08984
		h1.97314c0.0791,0,0.11279-0.04639,0.11279-0.125v-0.71436c0-0.07861-0.03369-0.11279-0.11279-0.11279h-5.23584
		c-0.08008,0-0.11426,0.03418-0.11426,0.11279v0.71436c0,0.07861,0.03418,0.125,0.11426,0.125h1.95996
		c0.05664,0,0.08984,0.03271,0.08984,0.08984v7.02686c0,0.0791,0.03516,0.11426,0.10303,0.11426H69.36182z M61.36182,23.1416
		c-0.0791,0-0.11279,0.03418-0.11279,0.11279v7.95605c0,0.0791,0.03369,0.11426,0.11279,0.11426h0.91797
		c0.06787,0,0.10303-0.03516,0.10303-0.11426v-7.95605c0-0.07861-0.03516-0.11279-0.10303-0.11279H61.36182z M55.80859,23.1416
		c-0.07959,0-0.11279,0.03418-0.11279,0.11279v7.95605c0,0.0791,0.0332,0.11426,0.11279,0.11426h0.91797
		c0.06934,0,0.10205-0.03516,0.10205-0.11426v-7.95605c0-0.07861-0.03271-0.11279-0.10205-0.11279H55.80859z M48.61182,24.18359
		c0-0.05713,0.03418-0.08984,0.09082-0.08984h3.17432c0.07861,0,0.12402-0.04639,0.12402-0.125v-0.71436
		c0-0.07861-0.04541-0.11279-0.12402-0.11279H47.5918c-0.0791,0-0.11279,0.03418-0.11279,0.11279v7.95605
		c0,0.0791,0.03369,0.11426,0.11279,0.11426h0.91797c0.06885,0,0.10205-0.03516,0.10205-0.11426V27.7085h2.53906
		c0.0791,0,0.125-0.03369,0.125-0.11279v-0.7251c0-0.08008-0.0459-0.11426-0.125-0.11426h-2.53906V24.18359z"/>
	<path d="M72.09375,11.75537c0-0.10205-0.04492-0.14795-0.12402-0.14795h-1.53027c-0.09033,0-0.13623,0.0459-0.13623,0.14795
		v5.46191c0,0.80518-0.44189,1.20215-1.33594,1.20215c-0.88477,0-1.32715-0.39697-1.32715-1.20215v-5.46191
		c0-0.10205-0.0459-0.14795-0.125-0.14795h-1.51807c-0.10254,0-0.14795,0.0459-0.14795,0.14795v5.5083
		c0,1.59766,0.896,2.60693,3.11816,2.60693c2.23193,0,3.12646-1.00928,3.12646-2.60693V11.75537z M59.76416,19.79053
		c0.10107,0,0.14697-0.04492,0.14697-0.14697v-6.49414c0-0.05713,0.02295-0.09082,0.0791-0.09082h1.92725
		c0.09082,0,0.13574-0.04492,0.13574-0.14697v-1.15625c0-0.10205-0.04492-0.14795-0.13574-0.14795h-5.78027
		c-0.10205,0-0.14697,0.0459-0.14697,0.14795v1.15625c0,0.10205,0.04492,0.14697,0.14697,0.14697h1.89307
		c0.05615,0,0.08984,0.03369,0.08984,0.09082v6.49414c0,0.10205,0.04639,0.14697,0.125,0.14697H59.76416z M47.21826,19.39453
		c0.771,0.396,1.50684,0.47607,2.44824,0.47607c1.74463,0,2.8667-0.87305,2.8667-2.45996c0-1.15625-0.54395-1.85938-1.96094-2.45898
		c-1.21191-0.48828-1.38184-0.70312-1.38184-1.15723c0-0.46387,0.31689-0.78076,1.04297-0.78076
		c0.53271,0,0.98584,0.08984,1.42676,0.27197c0.10303,0.04492,0.16992,0,0.2041-0.0791l0.5332-1.04297
		c0.03467-0.08008,0.03467-0.15918-0.06836-0.19287c-0.82666-0.36328-1.30273-0.44141-2.40283-0.44141
		c-1.68701,0-2.68604,0.98535-2.68604,2.31104c0,1.2124,0.61328,1.95996,2.03027,2.56201
		c1.09766,0.4873,1.32471,0.72412,1.32471,1.18896c0,0.49902-0.40674,0.79297-1.08789,0.79297
		c-0.78223,0-1.1792-0.15771-1.65381-0.37256c-0.09131-0.03418-0.15918,0-0.19336,0.07861l-0.50977,1.16699
		C47.12744,19.30225,47.15039,19.34863,47.21826,19.39453"/>
</g>
</svg>
