<?xml version="1.0" encoding="utf-8"?>
<!-- Generator: Adobe Illustrator 16.0.0, SVG Export Plug-In . SVG Version: 6.00 Build 0)  -->
<!DOCTYPE svg PUBLIC "-//W3C//DTD SVG 1.1//EN" "http://www.w3.org/Graphics/SVG/1.1/DTD/svg11.dtd">
<svg version="1.1" id="logo" xmlns="http://www.w3.org/2000/svg" xmlns:xlink="http://www.w3.org/1999/xlink" x="0px" y="0px"
	 width="99.215px" height="38.676px" viewBox="-75.599 185.056 99.215 38.676"
	 enable-background="new -75.599 185.056 99.215 38.676" xml:space="preserve">
<g>
	<path fill="#FFFFFF" d="M-46.781,220.019c2.492,0,3.846-1.654,3.846-3.977V204.2h5.301v12.105c-0.053,5.329-4.32,7.422-9.146,7.422
		s-9.095-2.093-9.146-7.422V204.2h5.301v11.842C-50.626,218.364-49.273,220.019-46.781,220.019z"/>
	<polygon fill="#FFFFFF" points="-69.662,223.334 -64.36,223.334 -64.36,207.914 -58.421,207.914 -58.421,204.202 -75.599,204.202 
		-75.599,207.914 -69.662,207.914 	"/>
	<path fill="#FFFFFF" d="M-56.927,194.884c-1.293,0.406-2.627,0.081-2.623-1.648c0.002-2.635,6.192-4.846,7.051-7.148
		c0.213-0.574,0.227-1.047-0.049-1.031c-0.197,0.012-0.043,0.297-0.477,0.731c-2.564,2.565-6.861,2.562-10.158,4.038
		c-2.162,0.971-8.498,3.951-7.039,10.603c0.069,0.315,0.258,1.374,0.451,1.374c0.225,0,0.223-0.629,0.217-1.393
		c-0.049-3.96,4.641-5.064,6.166-7.651c0.184-0.31,0.498-0.743,0.573-0.542c0.036,0.098,0.013,0.241-0.05,0.518
		c-0.477,2.125-2.7,3.49-2.07,5.01c0.816,1.973,3.174,0.502,3.896-0.766c0.194-0.351,0.304-0.572,0.434-0.527
		c0.098,0.033,0.094,0.435,0.033,0.795c-0.387,2.288-0.913,3.572-2.588,4.875c-0.535,0.417-1.379,0.504-1.269,0.824
		c0.028,0.082,0.392,0.074,0.681,0.045c4.459-0.285,8.188-5.543,9.178-8.979c0.104-0.24,0.135-0.469,0.025-0.554
		c-0.136-0.104-0.33,0.135-0.529,0.312C-55.583,194.215-56.283,194.683-56.927,194.884z"/>
	<path fill="#FFFFFF" d="M-11.662,215.409c0.019-2.076,1.274-3.95,3.371-3.95c2.438,0,3.391,1.67,3.391,3.95H-11.662z
		 M-2.248,217.159v-1.247c0-3.685-2.086-6.283-5.859-6.283c-4.214,0-6.178,3.263-6.178,7.158c0,3.924,1.699,6.944,5.967,6.944
		c3.182,0,5.514-1.51,5.912-4.531h-2.65c-0.293,1.935-1.271,2.703-3.234,2.703c-2.572,0-3.426-2.289-3.426-4.744H-2.248
		L-2.248,217.159z"/>
	<rect x="0.807" y="204.201" fill="#FFFFFF" width="2.52" height="19.135"/>
	<path fill="#FFFFFF" d="M11.222,223.334v-11.551h3.071v-1.752h-3.071v-2.148c0-1.538,0.739-1.802,2.174-1.802
		c0.422,0,0.849,0.055,1.271,0.078v-2.092c-0.59-0.133-1.19-0.266-1.803-0.266c-2.385,0-4.162,1.195-4.162,3.742v2.486H6.106v1.752
		h2.596v11.551L11.222,223.334L11.222,223.334z"/>
	<path fill="#FFFFFF" d="M15.743,210.032v1.752h2.279v8.479c0,1.77,0.025,3.469,3.766,3.469c0.582,0,1.129-0.055,1.723-0.156v-1.936
		c-0.409,0.1-0.928,0.158-1.326,0.158c-0.9,0-1.643-0.453-1.643-1.402v-8.61h3.074v-1.752h-3.074v-3.632l-2.52,0.796v2.838
		L15.743,210.032z"/>
	<path fill="#FFFFFF" d="M-32.333,223.334h6.574c8.184,0,9.041-6.927,9.041-9.565s-0.859-9.567-9.042-9.567h-6.573V223.334z
		 M-29.679,206.479h3.92c4.422,0,6.258,3.336,6.258,7.291c0,3.953-1.836,7.287-6.259,7.287h-3.919V206.479z"/>
</g>
</svg>
