<?xml version="1.0" encoding="utf-8"?>
<!-- Generator: Adobe Illustrator 16.0.0, SVG Export Plug-In . SVG Version: 6.00 Build 0)  -->
<!DOCTYPE svg PUBLIC "-//W3C//DTD SVG 1.1//EN" "http://www.w3.org/Graphics/SVG/1.1/DTD/svg11.dtd">
<svg version="1.1" id="Layer_1" xmlns="http://www.w3.org/2000/svg" xmlns:xlink="http://www.w3.org/1999/xlink" x="0px" y="0px"
	 width="99.21533px" height="38.67871px" viewBox="0 0 99.21533 38.67871" enable-background="new 0 0 99.21533 38.67871"
	 xml:space="preserve">
<path fill="#009FDA" d="M28.81836,34.96484c2.49219,0,3.8457-1.6543,3.8457-3.97656V19.14697h5.30078v12.10693
	c-0.05273,5.32812-4.32129,7.42188-9.14648,7.42188s-9.09375-2.09375-9.14648-7.42188V19.14697h5.30078v11.84131
	C24.97266,33.31055,26.32617,34.96484,28.81836,34.96484z"/>
<polygon points="5.93848,38.28125 11.23926,38.28125 11.23926,22.85938 17.17773,22.85938 17.17773,19.14795 0,19.14795 0,22.85938 
	5.93848,22.85938 "/>
<path d="M18.67188,9.83057c-1.29297,0.40576-2.62695,0.08105-2.62305-1.64844c0.00195-2.63574,6.19238-4.8457,7.05078-7.14941
	c0.21289-0.57422,0.22559-1.04688-0.04883-1.03223c-0.19727,0.01172-0.04297,0.29785-0.47656,0.73242
	c-2.56445,2.56543-6.86133,2.56152-10.1582,4.03809c-2.16211,0.9707-8.49805,3.95215-7.03906,10.60254
	c0.06934,0.31543,0.25781,1.37402,0.45117,1.37402c0.22461,0,0.22266-0.62891,0.2168-1.39258
	c-0.04883-3.95996,4.64062-5.06445,6.16602-7.65137c0.18262-0.30957,0.49805-0.74316,0.57324-0.54199
	c0.03613,0.09766,0.0127,0.24121-0.04883,0.5166c-0.47754,2.12598-2.70117,3.49023-2.07129,5.00977
	c0.81641,1.97266,3.17383,0.50195,3.89746-0.76562c0.19434-0.34961,0.30273-0.57227,0.43262-0.52734
	c0.09766,0.03418,0.09375,0.43457,0.0332,0.79492c-0.38672,2.28809-0.91309,3.57324-2.58789,4.875
	c-0.53516,0.41699-1.37793,0.50391-1.26758,0.82422c0.02832,0.08301,0.3916,0.07422,0.68066,0.04492
	c4.45898-0.28516,8.18848-5.54297,9.17676-8.97754c0.10352-0.24121,0.13477-0.46875,0.02539-0.55371
	c-0.13477-0.10352-0.33008,0.13477-0.5293,0.31152C20.01562,9.16162,19.31641,9.62842,18.67188,9.83057z"/>
<path d="M63.93799,30.35547c0.01855-2.07617,1.27539-3.95117,3.37109-3.95117c2.4375,0,3.39062,1.6709,3.39062,3.95117H63.93799z
	 M73.35205,32.10547v-1.24805c0-3.68359-2.08594-6.2832-5.85938-6.2832c-4.21484,0-6.17773,3.26172-6.17773,7.1582
	c0,3.92383,1.69922,6.94531,5.9668,6.94531c3.18164,0,5.51367-1.50977,5.91211-4.53125h-2.65039
	c-0.29297,1.93359-1.27344,2.70312-3.23438,2.70312c-2.57422,0-3.42773-2.28906-3.42773-4.74414H73.35205z"/>
<rect x="76.40674" y="19.14697" width="2.51953" height="19.13428"/>
<path d="M86.8208,38.28125V26.73047h3.07227v-1.75195H86.8208v-2.14844c0-1.53906,0.74023-1.80273,2.17383-1.80273
	c0.42188,0,0.84766,0.05469,1.27148,0.07812v-2.09033c-0.58984-0.13379-1.19141-0.26562-1.80273-0.26562
	c-2.38477,0-4.16211,1.19531-4.16211,3.74268v2.48633h-2.5957v1.75195h2.5957v11.55078H86.8208z"/>
<path d="M91.34033,24.97852v1.75195h2.28027v8.47656c0,1.76953,0.02539,3.4707,3.7666,3.4707
	c0.58203,0,1.12891-0.05469,1.72266-0.1582v-1.93359c-0.41016,0.09766-0.92871,0.1582-1.32715,0.1582
	c-0.90137,0-1.6416-0.45312-1.6416-1.4043v-8.60938h3.07422v-1.75195h-3.07422v-3.63086l-2.52051,0.79492v2.83789L91.34033,24.97852
	z"/>
<path d="M43.26562,38.28125h6.57324c8.18311,0,9.04248-6.92773,9.04248-9.56641s-0.85938-9.56787-9.04248-9.56787h-6.57324V38.28125
	z M45.92041,21.4248h3.91943c4.42236,0,6.2583,3.33691,6.2583,7.29004s-1.83594,7.28711-6.2583,7.28711h-3.91943V21.4248z"/>
</svg>
