<?xml version="1.0" encoding="utf-8"?>
<!-- Generator: Adobe Illustrator 16.0.0, SVG Export Plug-In . SVG Version: 6.00 Build 0)  -->
<!DOCTYPE svg PUBLIC "-//W3C//DTD SVG 1.1//EN" "http://www.w3.org/Graphics/SVG/1.1/DTD/svg11.dtd">
<svg version="1.1" id="Layer_1" xmlns="http://www.w3.org/2000/svg" xmlns:xlink="http://www.w3.org/1999/xlink" x="0px" y="0px"
	 width="273.38916px" height="222.17773px" viewBox="0 0 273.38916 222.17773" enable-background="new 0 0 273.38916 222.17773"
	 xml:space="preserve">
<path fill="#55ACEE" d="M273.38916,26.30078c-10.05859,4.46094-20.86719,7.47656-32.21484,8.83203
	c11.58203-6.94141,20.47461-17.93359,24.66211-31.03125c-10.83594,6.42773-22.83984,11.0957-35.61719,13.61133
	C219.98877,6.81152,205.41064,0,189.27979,0c-30.97852,0-56.09131,25.11328-56.09131,56.08789
	c0,4.39648,0.49609,8.67676,1.45215,12.78223C88.02539,66.53125,46.69629,44.20117,19.03223,10.2666
	c-4.82812,8.28418-7.59375,17.91895-7.59375,28.19824c0,19.45898,9.90234,36.62695,24.95215,46.68555
	c-9.19434-0.29102-17.84277-2.81445-25.40527-7.01562c-0.00391,0.23438-0.00488,0.46875-0.00488,0.70508
	c0,27.17627,19.33398,49.8457,44.99316,54.99805c-4.70703,1.28125-9.66211,1.9668-14.77734,1.9668
	c-3.61426,0-7.12793-0.35156-10.55273-1.00586c7.1377,22.2832,27.85156,38.5,52.39551,38.95312
	c-19.19629,15.04297-43.38086,24.00977-69.65918,24.00977c-4.52734,0-8.99219-0.26562-13.37988-0.7832
	c24.82227,15.91406,54.30469,25.19922,85.97949,25.19922c103.16943,0,159.58545-85.4668,159.58545-159.58594
	c0-2.43164-0.05469-4.85059-0.16211-7.25586C256.35986,47.42773,265.86963,37.54883,273.38916,26.30078z"/>
</svg>
